<?xml version="1.0" standalone="no"?>
<!DOCTYPE svg PUBLIC "-//W3C//DTD SVG 1.1//EN" "http://www.w3.org/Graphics/SVG/1.1/DTD/svg11.dtd" >
<svg xmlns="http://www.w3.org/2000/svg">
<metadata>
Created by FontPrep 20130207 at Mon Jun  1 17:36:27 2015
 By Hazmi
Copyright (c) 1981, 1982, 1983, 1989 and 1993, Linotype Library GmbH or its affiliated Linotype-Hell companies. All rights reserved.

The digitally encoded machine readable software for producing the Typefaces licensed to you is now the property of Heidelberger Druckmaschinen AG and its licensors, and may not be reproduced, used, displayed, modified, disclosed or transferred without the express written approval of Heidelberger Druckmaschinen AG.

Copyright (c) 1988, 1990, 1993 Adobe Systems Incorporated. All Rights Reserved.
</metadata>
<defs>
<font id="a68121ef2e891aed38ff01110987f27a" horiz-adv-x='1024' >
  <font-face 
    font-family="HelveticaNeue"
    font-weight="400"
    font-stretch="normal"
    units-per-em="2048"
    panose-1="2 0 5 3 0 0 0 0 0 0"
    ascent="1638"
    descent="-410"
    x-height="1059"
    cap-height="1462"
    bbox="-66 -436 1872 1632"
    underline-thickness="102"
    underline-position="-153"
    unicode-range="U+0008-007E"
  />
<missing-glyph horiz-adv-x="1024" 
 />
    <glyph glyph-name=".notdef" horiz-adv-x="1024" 
 />
    <glyph glyph-name="uni0000" horiz-adv-x="0" 
 />
    <glyph glyph-name="uni0000" horiz-adv-x="0" 
 />
    <glyph glyph-name="uni000D" unicode="&#xd;" horiz-adv-x="569" 
 />
    <glyph glyph-name="uni0008" horiz-adv-x="0" 
 />
    <glyph glyph-name="uni0009" unicode="&#x9;" horiz-adv-x="569" 
 />
    <glyph glyph-name="uni000A" unicode="&#xa;" horiz-adv-x="569" 
 />
    <glyph glyph-name="uni001D" horiz-adv-x="0" 
 />
    <glyph glyph-name="space" unicode=" " horiz-adv-x="569" 
 />
    <glyph glyph-name="exclam" unicode="!" horiz-adv-x="530" 
d="M168 1462h194v-450l-51 -637h-92l-51 637v450zM152 227h227v-227h-227v227z" />
    <glyph glyph-name="quotedbl" unicode="&#x22;" horiz-adv-x="872" 
d="M223 1462h139v-528h-139v528zM510 1462h139v-528h-139v528z" />
    <glyph glyph-name="numbersign" unicode="#" 
d="M70 422v139h219l43 307h-209v140h227l60 419h141l-59 -419h253l60 419h141l-59 -419h182v-140h-201l-43 -307h187v-139h-207l-60 -422h-141l60 422h-254l-60 -422h-141l59 422h-198zM473 868l-43 -307h254l43 307h-254z" />
    <glyph glyph-name="dollar" unicode="$" 
d="M514 1333q-96 -8 -166 -71q-70 -57 -70 -167t66 -165q53 -41 170 -76v479zM627 129q187 8 245 150q18 45 18 108t-22 105q-43 79 -137 114q-49 20 -104 37v-514zM94 1069q0 90 35 169t87 131t131 87t167 41v135h113v-137q324 -39 403 -405h-174q-41 203 -229 237v-504
l123 -32q112 -27 202 -107q123 -110 123 -282q0 -98 -35 -171q-29 -74 -88 -131q-117 -113 -325 -133v-168h-113v168q-207 23 -328 145t-135 334h174q2 -137 83 -216t206 -101v543q-240 61 -317 135q-103 80 -103 262z" />
    <glyph glyph-name="percent" unicode="%" horiz-adv-x="2048" 
d="M1487 1479h174l-1100 -1522h-176zM1200 380q0 188 72 292q41 61 102 90q62 35 158 35q179 0 258 -121q41 -57 53 -131q36 -148 0 -312q-16 -70 -57 -131q-45 -61 -103 -90q-57 -35 -149 -35t-158 31q-176 95 -176 372zM1526 88q180 0 180 299q0 47 -6 96q-4 104 -74 172
q-39 29 -95 29q-96 0 -147 -102q-30 -78 -30 -197q0 -297 172 -297zM188 1035q0 188 72 292q41 61 102 90q62 35 158 35q179 0 258 -121q41 -57 53 -131q36 -148 0 -311q-16 -70 -57 -131q-97 -127 -254 -127q-92 0 -155 33q-177 84 -177 371zM514 743q180 0 180 300
t-174 296q-100 0 -147 -102q-31 -81 -31 -197q0 -297 172 -297z" />
    <glyph glyph-name="ampersand" unicode="&#x26;" horiz-adv-x="1290" 
d="M252 386q0 -60 22 -112q27 -48 66 -78q86 -68 188 -67q199 0 314 174l-336 404q-51 -27 -96 -60q-90 -57 -136 -156q-22 -45 -22 -105zM932 1163q0 -223 -275 -379l265 -321q41 117 47 227h166q-6 -59 -13 -112q-21 -99 -49 -166t-37 -82l285 -330h-227l-156 182
q-66 -102 -178 -153t-248 -51q-138 0 -228 46q-162 85 -202 238q-14 78 -14 136t26 128q67 138 185 211q63 45 131 80q-8 10 -29 39q-20 30 -46 66t-36 57q-51 71 -51 187q0 62 22 108q16 49 62 98q101 92 246 91t245 -74q109 -92 109 -226zM598 1309q-70 0 -124 -38
q-52 -38 -52 -118q0 -31 12 -66q27 -59 80 -126l49 -62l30 20q107 67 147 151q18 36 18 92t-45 102q-45 45 -115 45z" />
    <glyph glyph-name="quotesingle" unicode="'" horiz-adv-x="569" 
d="M215 1462h139v-528h-139v528z" />
    <glyph glyph-name="parenleft" unicode="(" horiz-adv-x="530" 
d="M96 553q0 514 322 944h133q-147 -233 -209 -463t-61 -487q0 -255 62 -483t208 -467h-133q-162 252 -242 477t-80 479z" />
    <glyph glyph-name="parenright" unicode=")" horiz-adv-x="530" 
d="M-18 -403q145 231 206 462q62 231 62 485q1 509 -268 953h131q71 -109 135 -233q189 -365 186 -725q0 -246 -81 -488t-240 -454h-131z" />
    <glyph glyph-name="asterisk" unicode="*" horiz-adv-x="720" 
d="M303 1462h109v-231l219 82l41 -99l-223 -77l135 -187l-84 -63l-142 196l-133 -196l-92 63l133 187l-217 77l37 99l217 -82v231z" />
    <glyph glyph-name="plus" unicode="+" horiz-adv-x="1228" 
d="M684 588h446v-139h-446v-449h-139v449h-447v139h447v448h139v-448z" />
    <glyph glyph-name="comma" unicode="," horiz-adv-x="569" 
d="M170 227h227v-207q0 -257 -225 -319v102q37 14 57 37q19 16 37 48q31 53 25 112h-121v227z" />
    <glyph glyph-name="hyphen" unicode="-" horiz-adv-x="796" 
d="M102 651h592v-164h-592v164z" />
    <glyph glyph-name="period" unicode="." horiz-adv-x="569" 
d="M170 227h227v-227h-227v227z" />
    <glyph glyph-name="slash" unicode="/" horiz-adv-x="681" 
d="M569 1497h150l-606 -1530h-148z" />
    <glyph glyph-name="zero" unicode="0" 
d="M242 1331q116 121 328 121q211 0 327 -121q139 -150 152 -452q4 -115 4 -244q0 -371 -156 -539q-110 -119 -327 -119q-387 0 -459 402q-25 133 -25 338q0 204 20 305q40 205 136 309zM270 715q0 -51 4 -183q6 -90 33 -192q33 -92 92 -152t170 -59q111 0 170 59t92 152
q27 102 33 192q4 131 4 183v116q-12 261 -88 365t-212 103t-208 -103q-74 -95 -90 -365v-116z" />
    <glyph glyph-name="one" unicode="1" 
d="M729 0h-174v1040h-377v140q74 0 143 10q136 20 222 127q37 49 53 135h133v-1452z" />
    <glyph glyph-name="two" unicode="2" 
d="M542 1452q104 0 191 -27q90 -33 146 -82q133 -107 133 -304q0 -183 -109 -306q-69 -85 -244 -196q-90 -53 -135 -82q-120 -67 -221 -181q-41 -59 -51 -120h745v-154h-948q21 322 262 498q66 47 154 102q89 55 157 101t111 96q96 96 95 224q-1 129 -83 206q-83 71 -179 71
q-97 0 -151 -32t-90 -87q-36 -54 -46 -110q-18 -63 -15 -131h-174q-12 216 111 369q59 65 148 105t193 40z" />
    <glyph glyph-name="three" unicode="3" 
d="M465 827h57q61 0 105 17q45 10 87 42q85 65 85 179q0 115 -74 176q-76 57 -164 57t-143 -24q-51 -29 -86 -70q-64 -88 -66 -221h-174q2 99 32 187q61 177 224 247q88 35 186 35t183 -22q160 -50 233 -193q33 -78 33 -175t-57 -172t-144 -116v-4q133 -29 197 -125
q65 -92 65 -215q-1 -322 -307 -426q-95 -27 -199 -27q-212 0 -348 121q-68 63 -96 150q-37 86 -33 201h175q2 -137 81 -232q78 -88 228 -88q61 0 121 18q114 44 170 144q24 55 24 122t-24 117q-49 104 -164 142q-60 16 -118 16t-108 -6v147q6 -2 19 -2z" />
    <glyph glyph-name="four" unicode="4" 
d="M858 494h197v-154h-197v-340h-164v340h-637v168l662 944h139v-958zM694 494v710h-4l-483 -710h487z" />
    <glyph glyph-name="five" unicode="5" 
d="M526 803q-147 0 -266 -137l-149 8l135 753h717v-153h-586l-78 -418l4 -4q47 53 121 79q157 55 332 -6q175 -62 250 -249q36 -92 36 -200t-30 -197q-36 -89 -96 -153t-158 -110q-104 -39 -206 -39t-196 27q-90 35 -145 82q-131 101 -139 305h174q2 -53 25 -101
q45 -93 159 -143q55 -18 121 -18t117 23q55 18 99 63t68 107q23 62 23 142q0 79 -22 142q-83 197 -310 197z" />
    <glyph glyph-name="six" unicode="6" 
d="M586 780q-76 0 -130 -26t-92 -67q-78 -86 -79 -232q0 -146 80 -232q37 -43 94 -67q53 -27 127 -27q201 0 274 199q39 133 0 250q-29 117 -145 176q-53 26 -129 26zM618 934q206 0 328 -135q117 -140 117 -328q0 -187 -105 -332q-66 -76 -151 -114q-89 -47 -239 -47
t-250 64q-181 117 -224 394q-16 132 -16 260t26 270q56 299 250 420q102 66 271 66t274 -96q106 -92 123 -275h-174q-12 101 -77 159t-171 58t-174 -53q-124 -100 -158 -317q-12 -78 -16 -180l4 -5q115 191 362 191z" />
    <glyph glyph-name="seven" unicode="7" 
d="M102 1264v163h940v-149q-202 -198 -378 -578q-160 -366 -179 -700h-194q23 353 184 696q153 318 389 568h-762z" />
    <glyph glyph-name="eight" unicode="8" 
d="M575 129q70 0 121 23q47 16 95 57q39 43 61 90q20 57 20 115q0 173 -184 254q-57 20 -119 20q-128 0 -216 -77q-87 -77 -87 -205q0 -127 87 -202t222 -75zM82 418q0 125 65 225q66 94 189 137q-94 37 -148 121q-55 80 -55 173q0 263 264 353q79 25 181 25t189 -34
t130 -83q51 -45 77 -115q65 -173 -28 -319q-55 -82 -147 -121q256 -77 258 -362q0 -198 -139 -328q-138 -113 -352 -113t-341 109q-143 116 -143 332zM317 1073q0 -165 158 -217q43 -14 100 -14q104 0 173 61q68 61 67 172q0 111 -70 166q-66 57 -178 57t-174 -57
q-76 -56 -76 -168z" />
    <glyph glyph-name="nine" unicode="9" 
d="M838 970q0 124 -76 230q-95 100 -235 99q-139 -1 -208 -107q-37 -45 -49 -109q-16 -55 -16 -119t20 -124q85 -193 267 -193q68 0 123 25q108 53 152 171q22 61 22 127zM541 129q158 0 239 137q80 139 88 424l-4 4q-49 -92 -139 -146t-198 -54q-109 0 -197 36
q-167 69 -232 252q-63 201 6 389q35 86 100 150q133 131 343 131q359 0 457 -354q41 -125 40 -340q0 -375 -118 -578q-123 -203 -385 -203q-184 -1 -305 93t-136 280h174q8 -104 85 -162t182 -59z" />
    <glyph glyph-name="colon" unicode=":" horiz-adv-x="569" 
d="M170 227h227v-227h-227v227zM397 831h-227v228h227v-228z" />
    <glyph glyph-name="semicolon" unicode=";" horiz-adv-x="569" 
d="M170 227h227v-207q2 -117 -53 -200q-53 -86 -172 -119v102q37 14 57 37q19 16 37 48q31 53 25 112h-121v227zM397 831h-227v228h227v-228z" />
    <glyph glyph-name="less" unicode="&#x3c;" horiz-adv-x="1228" 
d="M1135 913l-871 -395l871 -395v-137l-1041 469v127l1041 471v-140z" />
    <glyph glyph-name="equal" unicode="=" horiz-adv-x="1228" 
d="M1130 655h-1032v140h1032v-140zM98 381h1032v-139h-1032v139z" />
    <glyph glyph-name="greater" unicode="&#x3e;" horiz-adv-x="1228" 
d="M94 123l871 395l-871 395v140l1041 -471v-127l-1041 -469v137z" />
    <glyph glyph-name="question" unicode="?" 
d="M563 1497q98 0 182 -27q85 -32 139 -80t87 -125t33 -163t-17 -127q-18 -83 -94 -168q-12 -12 -34 -35t-60 -57t-94 -105q-16 -25 -41 -78q-14 -51 -15 -96v-80h-174v97q4 90 33 145q20 53 65 109q57 59 86 88q29 25 82 82q39 49 61 100t14 147t-71 156q-61 63 -155 63
q-159 0 -234 -98q-69 -87 -69 -239h-174q-4 104 30 194q65 190 235 260q88 36 185 37zM446 227h228v-227h-228v227z" />
    <glyph glyph-name="at" unicode="@" horiz-adv-x="1638" 
d="M532 596q0 -76 50 -132t121 -56q72 0 131 43q55 45 100 110q92 150 92 283q0 80 -51 131q-45 59 -135 59q-52 0 -112 -42q-114 -80 -171 -242q-25 -78 -25 -154zM926 406q-122 -138 -249 -138q-126 0 -218 94q-39 47 -58 103q-23 53 -23 141t35 194q34 106 99 189
q59 82 152 133q84 52 177 52t152 -39q63 -37 97 -129l47 129h129l-172 -582q-10 -38 -17 -53q-6 -31 -6 -51q0 -63 48 -63q47 0 99 42q98 82 158 262q27 80 27 186t-47 199q-41 94 -119 164t-180 108q-102 37 -222 37t-232 -51q-111 -51 -197 -143t-134 -211t-47 -254
q0 -135 51 -255t138 -204q82 -84 200 -139q115 -49 253 -49q139 0 275 68t224 180h129q-101 -172 -277 -270q-162 -89 -396 -89q-128 1 -267 59t-248 162q-221 232 -221 549q0 160 61 295q57 136 163 242q222 222 536 223q139 0 270 -48t219 -130q91 -76 149 -195t58 -254
q0 -136 -48 -246q-92 -213 -275 -309q-83 -43 -147 -43t-101 34t-39 100h-6z" />
    <glyph glyph-name="A" unicode="A" horiz-adv-x="1327" 
d="M557 1462h215l571 -1462h-215l-159 440h-619l-164 -440h-198zM412 604h495l-243 682h-5z" />
    <glyph glyph-name="B" unicode="B" horiz-adv-x="1402" 
d="M1116 426q0 238 -317 244h-445v-506h488q130 0 202 70t72 192zM160 1462h631q222 -12 290 -54t118 -119t50 -191t-57 -198q-57 -85 -160 -124v-4q137 -29 208 -124t71 -228q0 -76 -29 -155t-86 -134q-55 -61 -139 -94q-80 -37 -191 -37h-706v1462zM354 834h389
q168 0 240 57t72 186t-92 183q-65 38 -220 38h-389v-464z" />
    <glyph glyph-name="C" unicode="C" horiz-adv-x="1478" 
d="M789 1333q-264 0 -388 -182q-120 -157 -119 -421t119 -419q55 -82 153 -132t210 -50q202 0 314 119t124 303h195q-29 -276 -191 -430t-442 -154q-166 0 -297 58q-257 124 -336 403q-43 137 -43 300q0 335 178 544q86 104 217 164t273 61q254 0 424 -121q78 -57 133 -147
q55 -98 69 -207h-194q-35 158 -147 234t-252 77z" />
    <glyph glyph-name="D" unicode="D" horiz-adv-x="1441" 
d="M1364 766q0 -766 -702 -766h-502v1462h502q338 0 520 -172t182 -524zM354 164h324q104 0 188 31q134 49 205 155q39 57 72 158q27 106 27 236q-1 260 -109 407q-130 149 -379 147h-328v-1134z" />
    <glyph glyph-name="E" unicode="E" horiz-adv-x="1251" 
d="M160 1462h1009v-164h-815v-464h760v-164h-760v-506h822v-164h-1016v1462z" />
    <glyph glyph-name="F" unicode="F" horiz-adv-x="1175" 
d="M160 1462h960v-164h-766v-464h672v-164h-672v-670h-194v1462z" />
    <glyph glyph-name="G" unicode="G" horiz-adv-x="1554" 
d="M1253 182q-165 -215 -487 -215q-146 0 -274 62q-127 57 -220 161q-184 208 -184 512q0 158 43 306q96 293 348 426q137 63 277 63t252 -27q112 -33 190 -88q172 -121 215 -370h-194q-41 232 -281 303q-70 18 -178 18t-204 -52q-95 -52 -155 -142q-120 -168 -119 -421
t130 -411q140 -178 366 -178t357 137q128 142 118 340h-467v164h641v-770h-122z" />
    <glyph glyph-name="H" unicode="H" horiz-adv-x="1478" 
d="M160 1462h194v-628h770v628h195v-1462h-195v670h-770v-670h-194v1462z" />
    <glyph glyph-name="I" unicode="I" horiz-adv-x="530" 
d="M168 1462h194v-1462h-194v1462z" />
    <glyph glyph-name="J" unicode="J" horiz-adv-x="1062" 
d="M903 365q0 -80 -22 -146q-18 -68 -70 -129q-51 -53 -135 -90q-86 -33 -205 -33q-203 0 -315 107q-111 111 -111 317v90h195v-61q0 -146 47 -209q25 -41 69 -59q45 -23 119 -23q131 0 182 71t52 193v1069h194v-1097z" />
    <glyph glyph-name="K" unicode="K" horiz-adv-x="1366" 
d="M160 1462h194v-729l742 729h252l-617 -590l641 -872h-246l-528 739l-244 -227v-512h-194v1462z" />
    <glyph glyph-name="L" unicode="L" 
d="M160 1462h194v-1298h774v-164h-968v1462z" />
    <glyph glyph-name="M" unicode="M" horiz-adv-x="1783" 
d="M164 1462h266l461 -1229l463 1229h266v-1462h-184v1217h-4l-457 -1217h-166l-457 1217h-4v-1217h-184v1462z" />
    <glyph glyph-name="N" unicode="N" horiz-adv-x="1478" 
d="M158 1462h207l770 -1186h4v1186h184v-1462h-213l-764 1174h-4v-1174h-184v1462z" />
    <glyph glyph-name="O" unicode="O" horiz-adv-x="1556" 
d="M78 731q0 318 176 533q193 233 524 233t516 -223q185 -222 185 -542t-176 -533q-89 -107 -221 -169t-304 -62t-304 62q-257 122 -351 412q-45 137 -45 289zM272 731q0 -103 29 -213q62 -232 248 -338q98 -51 229 -51t230 51q184 105 247 332q29 115 29 219q0 103 -29 213
q-61 232 -247 338q-98 51 -230 51t-229 -51q-186 -106 -248 -332q-29 -115 -29 -219z" />
    <glyph glyph-name="P" unicode="P" horiz-adv-x="1327" 
d="M160 1462h641q225 0 334 -114q115 -109 115 -317t-115 -320q-113 -117 -334 -113h-447v-598h-194v1462zM1055 1029q0 271 -320 269h-381v-536h381q320 -4 320 267z" />
    <glyph glyph-name="Q" unicode="Q" horiz-adv-x="1556" 
d="M794 -33q-188 1 -320 63q-257 122 -351 412q-45 137 -45 289q0 318 176 533q193 233 524 233t516 -223t185 -543q0 -361 -222 -581l193 -152l-98 -123l-224 178q-146 -86 -334 -86zM1284 718q0 118 -29 226q-61 232 -247 338q-98 51 -230 51t-229 -51
q-186 -106 -248 -332q-29 -115 -29 -219q0 -103 29 -213q62 -232 248 -338q99 -51 215 -51t217 41l-162 129l103 119l194 -156q88 88 128 213t40 243z" />
    <glyph glyph-name="R" unicode="R" horiz-adv-x="1402" 
d="M760 788q160 0 235 52q49 27 74 78q29 48 29 144t-62 166t-198 70h-484v-510h406zM829 625h-475v-625h-194v1462h688q207 0 326 -102t118 -281q0 -131 -59 -233q-61 -100 -195 -137v-4q57 -10 105 -41q43 -33 61 -70q40 -56 53 -191q14 -250 41 -317q12 -45 45 -86h-217
q-41 41 -41 252q-8 111 -27 187q-33 130 -114 163q-39 23 -115 23z" />
    <glyph glyph-name="S" unicode="S" horiz-adv-x="1327" 
d="M315 1086q0 -73 41 -111q62 -73 256 -115q222 -41 342 -86q174 -53 258 -192q39 -74 39 -183t-51 -198q-57 -84 -135 -135q-92 -55 -184 -74q-98 -25 -211 -25q-243 0 -416 123q-178 144 -178 391h184q0 -170 129 -268q118 -82 288 -83t261 54q119 65 119 211
q0 80 -41 123q-39 47 -107 76q-63 31 -133 46t-183 41q-111 25 -187 49q-169 52 -246 171q-39 71 -39 175t47 188t119 129q139 104 373 104q235 0 368 -111q158 -127 162 -352h-184q-16 158 -112 229t-247 71q-150 0 -229 -54q-47 -27 -74 -76q-29 -45 -29 -118z" />
    <glyph glyph-name="T" unicode="T" horiz-adv-x="1175" 
d="M492 1298h-488v164h1170v-164h-488v-1298h-194v1298z" />
    <glyph glyph-name="U" unicode="U" horiz-adv-x="1478" 
d="M746 129q384 0 387 399v934h194v-934q0 -281 -149 -422q-152 -139 -432 -139t-435 135q-160 133 -159 426v934h194v-934q0 -195 105 -299q105 -100 295 -100z" />
    <glyph glyph-name="V" unicode="V" horiz-adv-x="1251" 
d="M735 0h-221l-514 1462h209l418 -1267h4l422 1267h202z" />
    <glyph glyph-name="W" unicode="W" horiz-adv-x="1896" 
d="M1481 0h-203l-334 1229h-4l-338 -1229h-203l-374 1462h198l287 -1216h4l328 1216h211l323 -1216h4l297 1216h195z" />
    <glyph glyph-name="X" unicode="X" horiz-adv-x="1251" 
d="M508 752l-481 710h233l365 -571l381 571h217l-484 -710l514 -752h-237l-393 604l-406 -604h-217z" />
    <glyph glyph-name="Y" unicode="Y" horiz-adv-x="1327" 
d="M764 0h-195v598l-565 864h232l438 -696l428 696h221l-559 -864v-598z" />
    <glyph glyph-name="Z" unicode="Z" horiz-adv-x="1251" 
d="M115 1298v164h1069v-164l-908 -1134h932v-164h-1163v164l909 1134h-839z" />
    <glyph glyph-name="bracketleft" unicode="[" horiz-adv-x="530" 
d="M530 1358h-219v-1622h219v-139h-383v1900h383v-139z" />
    <glyph glyph-name="bracketright" unicode="]" horiz-adv-x="530" 
d="M0 -264h219v1622h-219v139h383v-1900h-383v139z" />
    <glyph glyph-name="asciicircum" unicode="^" horiz-adv-x="1228" 
d="M549 1427h131l446 -886h-143l-371 737l-364 -737h-146z" />
    <glyph glyph-name="underscore" unicode="_" horiz-adv-x="1024" 
d="M0 -152h1024v-102h-1024v102z" />
    <glyph glyph-name="grave" unicode="`" horiz-adv-x="454" 
d="M156 1577l196 -332h-131l-287 332h222z" />
    <glyph glyph-name="a" unicode="a" horiz-adv-x="1099" 
d="M258 295q0 -166 203 -166q86 0 147 24q120 47 160 138q18 41 18 78v178q-35 -27 -76 -34t-120 -21q-78 -8 -119 -17q-122 -13 -184 -86q-29 -41 -29 -94zM424 -23q-66 1 -132 17q-140 35 -190 141q-28 55 -28 140q1 163 110 237q76 55 248 86q63 14 137 20q78 12 122 24
t71 38q26 25 26 80t-22 86q-16 32 -65 58t-153 26t-179 -41q-74 -43 -80 -160h-174q2 96 41 166q37 70 98 109q112 79 299 79t281 -51q127 -75 127 -239v-545q0 -63 6 -90q11 -29 39 -29t63 10v-135q-45 -27 -119 -27q-153 0 -153 162q-135 -162 -373 -162z" />
    <glyph glyph-name="b" unicode="b" horiz-adv-x="1214" 
d="M956 538q0 73 -18 146q-25 78 -61 125q-35 53 -99 87t-149 34q-162 0 -250 -127q-39 -55 -56 -126q-37 -156 1 -296q16 -70 57 -129q47 -61 104 -88q61 -35 151 -35t155 35q165 98 165 374zM315 915q81 168 349 168q216 0 356 -165q121 -167 121 -392q0 -241 -121 -387
q-58 -74 -150 -118t-201 -44q-109 1 -176 27q-127 50 -178 137h-4v-141h-174v1462h174v-547h4z" />
    <glyph glyph-name="c" unicode="c" horiz-adv-x="1099" 
d="M258 519q0 -261 168 -357q57 -33 141 -33q129 0 203 69t88 189h178q-26 -195 -144 -302t-341 -107t-350 149q-129 143 -127 396q1 253 123 395q61 76 157 120t206 45q110 0 181 -22q156 -35 240 -180q41 -68 49 -162h-180q-42 209 -262 211q-172 0 -260 -127
q-70 -109 -70 -284z" />
    <glyph glyph-name="d" unicode="d" horiz-adv-x="1214" 
d="M1077 0h-174v143h-4q-41 -86 -133 -126t-211 -40q-119 -1 -211 47q-173 89 -240 295q-62 204 -2 426q29 96 91 177q132 161 364 161q99 0 182 -34q55 -27 88 -54q43 -31 72 -77h4v544h174v-1462zM258 517q0 -77 21 -140q16 -66 57 -127q95 -121 251 -121q157 0 249 125
q73 103 73 278t-78 275q-35 51 -102 90q-70 33 -155 33t-148 -35q-168 -96 -168 -378z" />
    <glyph glyph-name="e" unicode="e" horiz-adv-x="1099" 
d="M590 1083q124 0 217 -59q90 -53 148 -146t77 -198q23 -96 19 -203h-793q-4 -144 76 -244q91 -104 254 -104q110 0 182 53t92 154h172q-34 -180 -154 -269t-298 -90q-122 0 -216 40q-192 82 -255 292q-33 100 -35 221q-4 238 137 398q143 155 377 155zM560 930
q-126 0 -214 -88q-38 -38 -62 -96t-26 -115h608q-2 55 -26 113q-50 119 -160 161q-53 25 -120 25z" />
    <glyph glyph-name="f" unicode="f" horiz-adv-x="606" 
d="M377 1206v-147h205v-154h-205v-905h-174v905h-178v154h178v158q0 129 76 195t217 67q67 0 112 -17v-151q-6 2 -49 12l-49 2q-63 0 -98 -25t-35 -94z" />
    <glyph glyph-name="g" unicode="g" horiz-adv-x="1175" 
d="M803 811q-74 119 -232 119q-155 0 -240 -116q-73 -100 -73 -268t64 -276q77 -129 235 -129q84 0 148 35q57 37 96 94q71 121 71 281q0 159 -69 260zM546 1083q242 0 333 -176h2v152h163v-969q0 -262 -118 -390t-385 -128q-266 0 -381 166q-43 61 -45 145h174
q4 -49 30 -80q17 -27 65 -51t89 -31q39 -10 109 -10t128 30q116 60 154 208q16 78 17 162v69h-4q-47 -100 -136 -143q-87 -47 -199 -47q-218 0 -349 157q-59 76 -89 173q-57 183 -6 397q52 212 234 315q98 51 214 51z" />
    <glyph glyph-name="h" unicode="h" 
d="M131 1462h174v-559h4q20 47 58 84q47 39 84 53q73 43 182 43q209 0 297 -108q76 -89 78 -279v-696h-174v717q0 98 -58 155q-58 58 -146 58q-236 1 -306 -201q-18 -57 -19 -131v-598h-174v1462z" />
    <glyph glyph-name="i" unicode="i" horiz-adv-x="454" 
d="M141 1059h174v-1059h-174v1059zM315 1249h-174v213h174v-213z" />
    <glyph glyph-name="j" unicode="j" horiz-adv-x="454" 
d="M43 -250q57 0 77 31t21 115v1163h174v-1192q0 -139 -69 -207q-70 -63 -185 -63q-53 0 -88 8v149l19 -4h51zM315 1249h-174v213h174v-213z" />
    <glyph glyph-name="k" unicode="k" horiz-adv-x="1062" 
d="M141 1462h174v-866l484 463h233l-420 -385l451 -674h-221l-363 553l-164 -152v-401h-174v1462z" />
    <glyph glyph-name="l" unicode="l" horiz-adv-x="454" 
d="M141 1462h174v-1462h-174v1462z" />
    <glyph glyph-name="m" unicode="m" horiz-adv-x="1746" 
d="M1252 1083q364 0 364 -307v-776h-174v694q0 113 -39 166q-41 68 -168 69t-201 -73t-73 -197v-659h-175v694q0 37 -8 94q-12 45 -32 76q-42 64 -138 65t-148 -29t-91 -75q-29 -39 -50 -88q-14 -57 -14 -78v-659h-174v1059h164v-156h4q119 180 345 180t288 -180
q53 88 141 134q89 46 179 46z" />
    <glyph glyph-name="n" unicode="n" 
d="M131 1059h164v-168h4q106 193 344 192q199 0 287 -108q76 -89 78 -279v-696h-174v717q0 98 -58 155q-58 58 -146 58q-236 1 -306 -201q-18 -57 -19 -131v-598h-174v1059z" />
    <glyph glyph-name="o" unicode="o" horiz-adv-x="1175" 
d="M205 135q-131 155 -131 394q0 240 131 393q61 74 159 118t224 43q125 0 223 -44q192 -86 258 -294q33 -96 33 -216q0 -237 -133 -394q-133 -158 -378 -158t-386 158zM258 528q0 -94 27 -172t69 -125q92 -102 233 -102t234 104q43 45 72 123q25 78 25 172t-25 172
q-56 146 -176 203q-59 27 -129 27q-140 0 -234 -105q-96 -109 -96 -297z" />
    <glyph glyph-name="p" unicode="p" horiz-adv-x="1214" 
d="M956 538q0 73 -18 146q-25 78 -61 125q-35 53 -99 87t-149 34q-162 0 -250 -127q-39 -55 -56 -126q-37 -156 1 -296q16 -70 57 -129q47 -61 104 -88q61 -35 151 -35t155 35q165 98 165 374zM315 915q81 168 349 168q216 0 356 -165q121 -167 121 -392q0 -241 -121 -387
q-58 -74 -150 -118t-201 -44q-109 1 -176 27q-127 50 -178 137h-4v-544h-174v1462h174v-144h4z" />
    <glyph glyph-name="q" unicode="q" horiz-adv-x="1214" 
d="M1077 -403h-174v546h-4q-41 -86 -133 -126t-211 -40q-119 -1 -211 47q-173 89 -240 295q-62 204 -2 426q29 96 91 177q132 161 364 161q99 0 182 -34q55 -27 88 -54q43 -31 72 -77h4v141h174v-1462zM258 517q0 -77 21 -140q16 -66 57 -127q95 -121 251 -121
q157 0 249 125q73 103 73 278t-78 275q-35 51 -102 90q-70 33 -155 33t-148 -35q-168 -96 -168 -378z" />
    <glyph glyph-name="r" unicode="r" horiz-adv-x="681" 
d="M125 1059h164v-223h4q66 131 156 191t233 56v-184q-204 1 -293 -107q-90 -108 -90 -321v-471h-174v1059z" />
    <glyph glyph-name="s" unicode="s" horiz-adv-x="1024" 
d="M518 129q174 0 236 76q24 33 24 93t-51 92t-129 56q-106 27 -183 42q-329 64 -329 282q0 164 127 242q107 71 273 71q72 0 161 -14q78 -18 135 -53q121 -88 133 -264h-174q-2 49 -26 84q-30 52 -133 86q-57 8 -121 8t-117 -29q-31 -10 -53 -41q-21 -24 -21 -68t33 -71
q55 -55 168 -78q113 -22 145 -33q172 -40 240 -90q107 -71 107 -211q0 -98 -41 -159q-70 -120 -250 -158q-311 -46 -469 65q-61 41 -99 111q-39 70 -41 166h175q4 -61 25 -97t65 -65q88 -43 190 -43z" />
    <glyph glyph-name="t" unicode="t" horiz-adv-x="645" 
d="M584 154v-154h-133q-53 0 -115 8q-53 14 -81 37q-56 46 -56 186v674h-181v154h181v317h174v-317h211v-154h-211v-657q0 -63 19 -74q19 -12 46 -18l66 -2h80z" />
    <glyph glyph-name="u" unicode="u" 
d="M131 362v697h174v-717q0 -98 57 -156q56 -58 146 -57q238 0 307 199q18 61 19 133v598h174v-1059h-164v168h-4q-108 -189 -344 -191q-98 0 -174 27q-136 57 -175 201q-16 78 -16 157z" />
    <glyph glyph-name="v" unicode="v" horiz-adv-x="1024" 
d="M608 0h-186l-393 1059h194l297 -883h4l289 883h182z" />
    <glyph glyph-name="w" unicode="w" horiz-adv-x="1552" 
d="M1180 0h-185l-215 842h-4l-213 -842h-188l-340 1059h192l240 -866h4l213 866h190l222 -866h4l237 866h181z" />
    <glyph glyph-name="x" unicode="x" horiz-adv-x="1060" 
d="M416 557l-369 502h223l254 -371l264 371h209l-364 -488l409 -571h-223l-295 438l-295 -438h-211z" />
    <glyph glyph-name="y" unicode="y" horiz-adv-x="1024" 
d="M226 -270q48 0 85 24q35 29 54 74l71 178l-420 1053h197l309 -866h4l297 866h185l-461 -1200q-59 -147 -125 -219q-37 -31 -82 -50q-51 -14 -109 -14t-112 18v160q59 -24 107 -24z" />
    <glyph glyph-name="z" unicode="z" horiz-adv-x="983" 
d="M86 905v154h823v-119l-647 -786h676v-154h-893v133l639 772h-598z" />
    <glyph glyph-name="braceleft" unicode="{" horiz-adv-x="681" 
d="M530 1374q-98 0 -98 -176v-375q0 -76 -22 -123q-14 -41 -46 -77t-64 -54q-34 -18 -46 -20v-6q65 -10 106 -64q33 -37 50 -82q23 -47 22 -129v-372q0 -67 19 -121q10 -20 30 -41q23 -14 49 -15h103v-122h-144q-75 0 -149 67q-70 84 -72 201v371q0 107 -51 176
q-52 63 -119 63v139q68 0 119 66q51 82 51 176v373q0 113 72 201q74 67 149 67h144v-123h-103z" />
    <glyph glyph-name="bar" unicode="|" horiz-adv-x="454" 
d="M158 1610h139v-2046h-139v2046z" />
    <glyph glyph-name="braceright" unicode="}" horiz-adv-x="681" 
d="M152 -281q98 0 98 177v372q0 66 20 121q50 103 111 133q33 18 47 21v6q-64 10 -98 52q-35 42 -60 93q-20 57 -20 129v371q0 180 -98 180h-103v123h144q81 0 150 -71t71 -197v-373q0 -109 53 -176q38 -63 117 -66v-139q-31 0 -64 -18q-64 -35 -92 -125q-14 -41 -14 -96
v-371q0 -123 -74 -201q-67 -67 -147 -67h-144v122h103z" />
    <glyph glyph-name="asciitilde" unicode="~" horiz-adv-x="1228" 
d="M397 856q53 0 103 -20t125 -58q77 -38 119 -58t82 -20t61 12q20 12 51 40q33 40 76 104l110 -98q-27 -45 -49 -78t-61 -71q-128 -125 -305 -52q-61 29 -111 53l-106 54q-138 63 -213 -25q-45 -51 -70 -107l-111 99q101 225 299 225z" />
  </font>
</defs>
</svg>
