<?xml version="1.0" standalone="no"?>
<!DOCTYPE svg PUBLIC "-//W3C//DTD SVG 1.1//EN" "http://www.w3.org/Graphics/SVG/1.1/DTD/svg11.dtd" >
<svg xmlns="http://www.w3.org/2000/svg">
<metadata>Generated by IcoMoon</metadata>
<defs>
<font id="icoliputansix" horiz-adv-x="1024">
<font-face units-per-em="1024" ascent="960" descent="-64" />
<missing-glyph horiz-adv-x="1024" />
<glyph unicode="&#x20;" d="" horiz-adv-x="512" />
<glyph unicode="&#xe600;" d="M937.441 816.98v0c10.058-21.465 15.087-44.962 15.087-70.484v-562.068c0-46.421-16.638-86.142-49.913-119.125-33.266-32.984-73.338-49.475-120.17-49.475h-567.042c-34.116 0-64.644 8.752-91.571 26.255 8.236-17.576 19.845-33.79 34.825-48.639 33.275-32.984 73.347-49.475 120.18-49.475h567.042c46.832 0 86.904 16.492 120.17 49.475 33.275 32.984 49.913 72.704 49.913 119.125v562.068c0 46.421-16.638 86.142-49.913 119.125-9.034 8.955-18.57 16.694-28.608 23.218zM857.305 910.534c33.275-32.984 49.913-72.704 49.913-119.125v-562.068c0-46.421-16.638-86.142-49.913-119.125-33.266-32.984-73.338-49.475-120.17-49.475h-567.042c-46.832 0-86.904 16.492-120.18 49.475s-49.913 72.704-49.913 119.125v562.068c0 46.421 16.638 86.142 49.913 119.125 33.275 32.975 73.347 49.466 120.18 49.466h567.042c46.832 0 86.904-16.492 120.17-49.466zM702.675 375.005h-490.094c-6.029 0-11.268-2.2-15.669-6.585-4.401-4.38-6.612-9.588-6.612-15.589v-44.349c0-6.001 2.211-11.188 6.612-15.595 4.422-4.38 9.64-6.58 15.669-6.58h490.094c6.051 0 11.268 2.2 15.669 6.58 4.401 4.406 6.612 9.594 6.612 15.595v44.349c0 6.001-2.19 11.21-6.612 15.589-4.401 4.385-9.618 6.585-15.669 6.585zM718.344 723.167c-4.401 4.38-9.618 6.58-15.669 6.58h-490.094c-6.029 0-11.268-2.2-15.669-6.58-4.401-4.385-6.612-9.594-6.612-15.595v-44.349c0-6.001 2.211-11.188 6.612-15.573 4.422-4.401 9.64-6.601 15.669-6.601h490.094c6.051 0 11.268 2.2 15.669 6.601 4.401 4.385 6.612 9.573 6.612 15.573v44.349c0 6.001-2.19 11.21-6.612 15.595zM702.675 552.376h-490.094c-6.029 0-11.268-2.2-15.669-6.585-4.401-4.38-6.612-9.588-6.612-15.589v-44.349c0-6.001 2.211-11.21 6.612-15.595 4.422-4.38 9.64-6.58 15.669-6.58h490.094c6.051 0 11.268 2.2 15.669 6.58 4.401 4.385 6.612 9.594 6.612 15.595v44.349c0 6.001-2.211 11.21-6.612 15.589-4.401 4.385-9.618 6.585-15.669 6.585z" />
<glyph unicode="&#xe601;" d="M398.82 469.514c0.78-7.066 1.18-14.244 1.18-21.514 0-11.903-1.073-23.559-3.128-34.88l230.306-132.967c35.322 30.915 81.845 49.694 132.822 49.694 110.457 0 200-88.165 200-196.923s-89.543-196.923-200-196.923c-110.457 0-200 88.165-200 196.923 0 1.364 0.014 2.724 0.042 4.081v0l-251.801 145.377c-31.2-19.809-68.357-31.304-108.241-31.304-110.457 0-200 88.165-200 196.923s89.543 196.923 200 196.923c44.9 0 86.344-14.568 119.723-39.166l241.112 139.206c-0.553 5.965-0.835 12.007-0.835 18.114 0 108.758 89.543 196.923 200 196.923s200-88.165 200-196.923c0-108.758-89.543-196.923-200-196.923-46.124 0-88.602 15.373-122.435 41.2l-238.745-137.839z" horiz-adv-x="960" />
<glyph unicode="&#xe602;" d="M1019.314 361.964c0 23.163-8.31 43.397-24.877 60.764l-481.094 476.559c-17.012 16.916-39.917 31.232-68.583 43.039-28.707 11.796-54.957 17.674-78.751 17.674h-279.876c-23.308 0-43.51-8.479-60.563-25.354-17.063-16.927-25.569-36.925-25.569-60.078v-277.647c0-23.593 5.925-49.592 17.827-78.080 11.892-28.477 26.364-50.954 43.386-67.441l481.084-477.88c16.578-16.435 36.779-24.678 60.521-24.678 23.35 0 43.757 8.243 61.254 24.678l330.364 328.407c16.568 16.476 24.877 36.475 24.877 60.037v0zM276.212 686.008c-16.815-16.681-37.141-25.006-60.893-25.006-23.783 0-44.067 8.325-60.883 25.006-16.857 16.712-25.239 36.833-25.239 60.396 0 23.603 8.382 43.725 25.239 60.396 16.815 16.722 37.099 25.047 60.883 25.047 23.752 0 44.077-8.325 60.893-25.047 16.815-16.671 25.197-36.792 25.197-60.396 0-23.562-8.382-43.684-25.197-60.396v0zM1227.107 422.728l-481.043 476.518c-17.063 16.916-39.917 31.273-68.676 43.080-28.666 11.756-54.916 17.674-78.71 17.674h-150.679c23.752 0 49.992-5.919 78.71-17.674 28.707-11.807 51.572-26.163 68.625-43.080l481.053-476.518c16.609-17.367 24.919-37.601 24.919-60.764 0-23.562-8.31-43.561-24.919-60.037l-316.212-313.723c13.471-13.763 25.363-23.798 35.644-30.003 10.323-6.236 23.546-9.359 39.721-9.359 23.308 0 43.747 8.243 61.203 24.678l330.364 328.407c16.619 16.476 24.919 36.475 24.919 60.037-0.041 23.163-8.299 43.397-24.919 60.764v0z" horiz-adv-x="1280" />
<glyph unicode="&#xe603;" d="M946.967 709.722c-45.38 76.981-106.932 137.919-184.705 182.864-77.743 44.936-162.654 67.413-254.733 67.413s-176.99-22.478-254.733-67.413c-77.783-44.905-139.335-105.884-184.715-182.864-45.391-77.021-68.081-161.099-68.081-252.276 0-91.136 22.69-175.214 68.081-252.235 45.38-76.981 106.932-137.959 184.675-182.864 77.783-44.936 162.694-67.413 254.773-67.413s176.99 22.478 254.733 67.413c77.743 44.905 139.325 105.884 184.705 182.864 45.35 77.021 68.040 161.099 68.040 252.235 0 91.176-22.69 175.295-68.040 252.276v0zM818.774 278.819c-32.16-54.513-75.806-97.722-130.849-129.566-55.053-31.844-115.215-47.726-180.396-47.726-65.191 0-125.354 15.882-180.396 47.726-55.093 31.844-98.699 75.053-130.859 129.566-32.15 54.553-48.229 114.076-48.229 178.628 0 64.592 16.080 124.115 48.229 178.668 32.16 54.513 75.766 97.682 130.859 129.526 55.043 31.844 115.165 47.767 180.396 47.767 65.181 0 125.344-15.922 180.396-47.767 55.043-31.844 98.689-75.013 130.849-129.526 32.16-54.553 48.199-114.076 48.199-178.668 0-64.552-16.039-124.075-48.199-178.628zM570.966 708.739h-42.288c-6.185 0-11.254-1.958-15.208-5.883-3.964-3.915-5.941-8.935-5.941-15.059v-230.35h-148.044c-6.174 0-11.244-1.958-15.208-5.843-3.964-3.925-5.941-8.945-5.941-15.059v-41.884c0-6.114 1.977-11.133 5.941-15.059s9.034-5.883 15.208-5.883h211.481c6.185 0 11.254 1.958 15.167 5.883 3.964 3.925 5.982 8.945 5.982 15.059v293.135c0 6.124-2.018 11.103-5.982 15.059-3.954 3.925-9.023 5.883-15.167 5.883z" />
<glyph unicode="&#xe604;" d="M1312.453 840.662c-49.652-20.938-99.304-34.021-148.907-39.298 56.026 32.997 93.925 79.583 113.685 139.77-51.273-29.841-105.96-50.212-164.111-61.223-51.236 53.368-114.176 80.089-188.918 80.089-71.475 0-132.45-24.745-182.913-74.21-50.426-49.453-75.602-109.267-75.602-179.381 0-18.878 2.1-38.213 6.374-58.127-105.678 5.228-204.798 31.298-297.384 78.125-92.586 46.863-171.16 109.267-235.733 187.296-23.457-39.249-35.21-81.932-35.21-128 0-43.442 10.402-83.763 31.231-120.94 20.816-37.129 48.829-67.247 84.051-90.269-41.645 1.554-80.6 12.288-116.866 32.19v-3.144c0-61.223 19.625-115.013 58.814-161.37 39.238-46.357 88.755-75.535 148.477-87.534-22.401-5.783-45.096-8.65-68.024-8.65-14.921 0-31.231 1.313-48.841 3.903 16.555-50.778 46.963-92.521 91.248-125.229 44.322-32.708 94.453-49.598 150.491-50.634-93.888-72.234-200.917-108.375-320.939-108.375-22.978 0-43.794 1.036-62.461 3.156 120.071-75.909 252.436-113.833 397.020-113.833 91.776 0 177.976 14.252 258.527 42.767 80.588 28.527 149.435 66.729 206.517 114.64 57.094 47.911 106.353 103.014 147.716 165.322 41.35 62.259 72.151 127.289 92.439 195.102s30.42 135.722 30.42 203.764c0 14.637-0.295 25.648-0.823 32.985 50.708 36.093 93.937 79.812 129.724 131.108v0z" horiz-adv-x="1325" />
<glyph unicode="&#xe605;" d="M512-64c-282.77 0-512 229.23-512 512s229.23 512 512 512c282.77 0 512-229.23 512-512s-229.23-512-512-512zM785.067 570.189c-20.1-8.237-41.7-13.795-64.355-16.283 23.133 12.802 40.928 33.047 49.266 57.206-21.622-11.848-45.592-20.466-71.127-25.112-20.448 20.115-49.581 32.666-81.802 32.666-61.876 0-112.055-46.3-112.055-103.406 0-8.116 1-15.992 2.892-23.556-93.108 4.294-175.66 45.458-230.937 108.051-9.631-15.3-15.165-33.047-15.165-52.009 0-35.856 19.774-67.529 49.831-86.059-18.361 0.522-35.634 5.197-50.744 12.932v-1.304c0-50.093 38.634-91.888 89.868-101.389-9.381-2.358-19.306-3.652-29.525-3.652-7.196 0-14.241 0.672-21.067 1.886 14.251-41.093 55.625-70.97 104.652-71.833-38.319-27.73-86.629-44.264-139.167-44.264-9.023 0-17.937 0.502-26.698 1.445 49.581-29.315 108.479-46.441 171.779-46.441 206.087 0 318.783 157.542 318.783 294.205 0 4.475-0.13 8.929-0.315 13.404 21.85 14.547 40.83 32.766 55.886 53.514z" />
<glyph unicode="&#xe606;" d="M946.967 709.722c-45.38 76.981-106.932 137.919-184.705 182.864-77.743 44.936-162.654 67.413-254.733 67.413s-176.99-22.478-254.733-67.413c-77.783-44.905-139.335-105.884-184.715-182.864-45.391-77.021-68.081-161.099-68.081-252.275 0-91.136 22.69-175.214 68.081-252.235 45.38-76.981 106.932-137.959 184.675-182.864 77.783-44.936 162.694-67.413 254.773-67.413s176.99 22.478 254.733 67.413c77.743 44.905 139.325 105.884 184.705 182.864 45.35 77.021 68.040 161.099 68.040 252.235 0 91.176-22.69 175.295-68.040 252.275v0zM761.268 421.486l-359.485-209.408c-6.61-3.925-13.667-5.883-21.149-5.883-7.046 0-14.103 1.757-21.149 5.251-14.103 8.272-21.149 20.47-21.149 36.633v418.776c0 16.123 7.046 28.361 21.149 36.633 14.539 7.841 28.631 7.65 42.298-0.632l359.485-209.408c14.103-7.841 21.149-19.848 21.149-36.001 0-16.113-7.046-28.12-21.149-35.96v0z" />
<glyph unicode="&#xe607;" d="M406.302 325.296c-12.165 22.26-20.521 68.4-20.521 121.719 0 50.652 7.541 94.824 18.724 118.2 3.665 10.22 11.023 18.743 20.507 24.040 15.123 15.952 86.311 28.021 171.833 28.021 79.822 0 147.133-10.505 168.081-24.867 6.308-2.256 11.97-5.834 16.631-10.392 17.971-9.212 31.821-65.981 31.821-134.599 0-68.584-13.825-125.314-31.772-134.605-3.804-3.732-8.277-6.81-13.226-9.046-7.085-6.376-23.32-12.279-47.17-16.966-32.759-6.454-77.227-10.081-123.597-10.081s-90.837 3.628-123.631 10.081c-25.884 5.092-42.823 11.62-48.798 18.629-8.205 4.537-14.835 11.485-18.882 19.864v0zM512-64c282.77 0 512 229.23 512 512s-229.23 512-512 512c-282.77 0-512-229.23-512-512s229.23-512 512-512zM174.513 525.467c3.063 22.234 26.803 16.4 36.233 13.891 43.264-11.407 113.903-44.865 140.638-72.871 16.333-17.083 0-33.173 0-33.173-12.74-18.361-96.068-61.337-131.601-75.474-42.47-16.963-43.102 7.938-45.269 19.377-8.969 47.509-5.137 111.537 0 148.25zM598.415 390.735c-33.604 0-60.902 25.402-60.902 56.653 0 31.315 27.264 56.685 60.902 56.685 33.698 0 60.962-25.394 60.962-56.685 0-31.252-27.264-56.653-60.962-56.653z" />
<glyph unicode="&#xe608;" d="M699.483 88.271v0c11.92-24.898 31.446-45.542 55.614-59.024 17.597-20.829 67.487-40.226 143.725-55.356 96.588-19.176 227.558-29.956 364.133-29.956s267.545 10.779 364.033 29.956c70.246 13.926 118.063 31.467 138.931 50.413 14.577 6.646 27.751 15.791 38.955 26.88 52.861 27.607 93.58 196.178 93.58 399.969 0 203.892-40.793 372.577-93.724 399.95-13.728 13.542-30.403 24.174-48.983 30.878-61.698 42.675-259.951 73.889-495.053 73.889-251.89 0-461.561-35.863-506.103-83.262-27.934-15.74-49.604-41.066-60.399-71.435-32.939-69.462-55.148-200.716-55.148-351.224 0-158.436 24.611-295.536 60.441-361.68zM16.789 683.063c-15.13-109.091-26.415-299.345 0-440.514 6.384-33.989 8.244-107.982 133.333-57.576 104.656 42.009 350.083 169.71 387.608 224.267 0 0 48.105 47.811 0 98.571-78.743 83.215-286.797 182.635-414.224 216.53-27.772 7.454-97.694 24.79-106.717-41.278zM1265.317 282.718c-98.975 0-179.377 75.479-179.377 168.342 0 93.051 80.301 168.436 179.377 168.436 99.252 0 179.553-75.455 179.553-168.436 0-92.863-80.301-168.342-179.553-168.342z" horiz-adv-x="1911" />
<glyph unicode="&#xe609;" d="M3649.271 906.302v-914.565h893.46v914.565h-893.46zM4275.947 817.237l65.39-3.772c26.827-1.677 44.955-3.353 54.386-5.030s14.147-5.24 14.147-10.689c0-4.611-19.491-17.71-58.473-39.297s-71.467-40.24-97.456-55.958c-25.988-15.719-62.036-42.231-108.144-79.536s-92.006-81.946-137.695-133.923c-9.222-10.898-17.814-21.692-25.779-32.38s-14.985-20.853-21.063-30.494c-6.078-9.641-9.536-14.88-10.374-15.719 44.851 47.785 84.985 83.309 120.405 106.572s72.62 34.895 111.602 34.895c40.659 0 72.725-12.26 96.198-36.782s35.21-58.159 35.21-100.914c0-47.785-16.557-100.704-49.671-158.758s-74.82-107.096-125.12-147.126c-50.3-40.030-98.922-60.045-145.869-60.045-28.922 0-57.216 11.317-84.881 33.952s-49.88 51.871-66.647 87.71c-16.767 35.839-25.15 72.62-25.15 110.345 0 51.138 18.338 110.135 55.015 176.992s89.805 132.455 159.387 196.797c69.582 64.342 151.108 118.728 244.582 163.159zM3967.861 150.138c22.216 0 53.548 15.090 93.997 45.27s76.078 67.066 106.887 110.659c30.809 43.593 46.213 84.88 46.213 123.863 0 35.21-13.204 52.815-39.611 52.815-30.18 0-77.335-27.036-141.468-81.108-38.563-32.695-66.752-62.35-84.566-88.968s-26.722-56.692-26.722-90.225c0-25.569 3.458-44.012 10.374-55.33s18.548-16.976 34.895-16.976zM441.737 249.479h-401.265v408.388h94.974v-331.618h306.291v-76.771zM649.273 249.479h-94.974v408.388h94.974v-408.388zM1273.111 487.705c0-52.764-30.602-79.145-91.808-79.145h-256.43v-159.082h-93.391v408.388h349.821c61.206 0 91.808-26.381 91.808-79.145v-91.017zM1181.303 511.449v43.53c0 13.719-3.957 22.688-11.872 26.909-5.804 3.693-16.093 5.54-30.867 5.54h-213.692v-108.429h213.692c14.774 0 25.063 1.847 30.867 5.54 7.915 4.221 11.872 13.191 11.872 26.909v0zM1838.383 346.036c0-37.99-7.255-63.58-21.765-76.771s-41.023-19.786-79.541-19.786h-258.013c-38.517 0-65.031 6.595-79.541 19.786s-21.765 38.781-21.765 76.771v311.831h94.974v-331.618h270.676v331.618h94.974v-311.831zM2398.906 585.054h-188.365v-335.575h-94.974v335.575h-187.574v72.813h470.913v-72.813zM2912.733 249.479h-106.846l-49.070 89.434h-258.804l-47.487-89.434h-94.974l231.104 408.388h91.808l234.269-408.388zM2717.245 412.518l-87.851 166.205-91.017-166.205h178.868zM3496.999 249.479h-64.899l-299.96 252.473c-12.663 10.553-24.007 21.633-34.032 33.241 2.638-26.382 3.957-47.223 3.957-62.525v-223.189h-85.477v408.388h64.899l287.296-240.601c20.578-17.412 36.143-32.186 46.696-44.321-2.638 37.99-3.957 61.469-3.957 70.439v214.483h85.477v-408.388z" horiz-adv-x="4544" />
<glyph unicode="&#xe60a;" d="M187.343 648.517c15.91-11.484 63.877-45.552 143.901-102.235 80.078-56.727 141.381-100.385 183.962-130.973 4.675-3.347 14.65-10.658 29.838-21.889 15.231-11.264 27.856-20.337 37.917-27.263 10.050-6.97 22.212-14.71 36.517-23.354 14.262-8.61 27.727-15.063 40.351-19.357 12.668-4.305 24.366-6.452 35.138-6.452h1.39c10.772 0 22.47 2.147 35.138 6.452 12.614 4.294 26.079 10.791 40.351 19.357 14.262 8.643 26.423 16.384 36.517 23.354 10.061 6.926 22.686 15.999 37.874 27.263 15.231 11.231 25.206 18.542 29.87 21.889 43.044 30.632 152.573 108.346 328.585 233.252 34.168 24.389 62.703 53.81 85.626 88.262 22.933 34.453 34.427 70.535 34.427 108.346 0 31.568-11.149 58.621-33.371 81.116-22.212 22.495-48.56 33.715-78.979 33.715h-1033.463c-36.064 0-63.791-12.431-83.234-37.326-19.4-24.862-29.116-55.957-29.116-93.294 0-30.147 12.872-62.794 38.628-97.985 25.712-35.135 53.105-62.794 82.135-82.878zM1254.511 571.739c-153.499-106.188-270.051-188.724-349.622-247.566-26.671-20.128-48.344-35.785-64.965-47.005-16.578-11.275-38.714-22.759-66.312-34.453-27.651-11.748-53.353-17.595-77.256-17.595h-1.39c-23.903 0-49.648 5.847-77.256 17.595-27.598 11.693-49.734 23.178-66.355 34.453-16.578 11.22-38.251 26.877-64.922 47.005-63.209 47.357-179.513 129.894-348.954 247.566-26.682 18.201-50.326 39.011-70.9 62.453v-569.806c0-31.612 10.987-58.621 32.983-81.116 22.007-22.495 48.473-33.715 79.367-33.715h1033.463c30.883 0 57.349 11.22 79.356 33.715s32.994 49.504 32.994 81.116v569.806c-20.154-22.968-43.551-43.779-70.233-62.453z" horiz-adv-x="1339" />
<glyph unicode="&#xe60b;" d="M216.31 670.135c39.844 0 73.803 14.15 101.962 42.449 28.194 28.291 42.273 62.462 42.273 102.47 0 40-14.080 74.171-42.273 102.462-28.159 28.334-62.118 42.484-101.962 42.484-39.801 0-73.768-14.15-101.962-42.484-28.15-28.291-42.23-62.427-42.23-102.462 0-40.008 14.079-74.18 42.23-102.47 28.194-28.299 62.161-42.449 101.962-42.449zM387.857 443.957c42.239-42.484 93.215-63.687 152.939-63.687s110.709 21.203 152.947 63.687c42.265 42.449 63.371 93.68 63.371 153.701s-21.106 111.261-63.371 153.701c-42.239 42.484-93.224 63.695-152.947 63.695s-110.7-21.246-152.939-63.695c-42.239-42.441-63.371-93.68-63.371-153.701s21.132-111.252 63.371-153.701zM865.282 670.135c39.81 0 73.803 14.15 101.962 42.449 28.194 28.291 42.273 62.462 42.273 102.47 0 40-14.080 74.171-42.273 102.462-28.159 28.334-62.152 42.484-101.962 42.484-39.801 0-73.803-14.15-101.962-42.484-28.15-28.291-42.23-62.427-42.23-102.462 0-40.008 14.080-74.18 42.23-102.47 28.159-28.299 62.161-42.449 101.962-42.449zM1011.747 670.135c-2.23 0-10.406-3.97-24.477-11.909-14.080-7.939-32.411-15.948-54.935-24.061-22.515-8.104-44.866-12.178-67.053-12.178-25.151 0-50.104 4.343-74.918 13.029 1.893-13.95 2.835-26.432 2.835-37.359 0-52.456-15.22-100.768-45.644-144.946 60.838-1.868 110.605-26.024 149.3-72.477h75.488c30.786 0 56.69 7.67 77.718 22.94 21.037 15.296 31.538 37.654 31.538 67.109 0.035 133.211-23.267 199.851-69.853 199.851zM927.572 212.384c-3.95 22.089-8.946 42.579-14.953 61.446s-14.079 37.255-24.209 55.2c-10.164 17.919-21.772 33.19-34.944 45.845-13.129 12.656-29.205 22.732-48.176 30.297-18.946 7.531-39.905 11.335-62.8 11.335-3.742 0-11.815-4.074-24.235-12.187-12.394-8.104-26.067-17.199-41.124-27.179-15.030-10.006-35.082-19.066-60.268-27.17-25.186-8.113-50.51-12.187-76.067-12.187-25.523 0-50.873 4.074-76.033 12.187-25.186 8.104-45.272 17.164-60.294 27.17-15.022 9.98-28.729 19.075-41.124 27.179-12.394 8.113-20.458 12.187-24.209 12.187-22.921 0-43.855-3.805-62.826-11.335-18.946-7.566-35.013-17.642-48.15-30.297-13.163-12.621-24.78-27.926-34.944-45.845-10.121-17.946-18.194-36.334-24.201-55.2-6.016-18.866-11.011-39.357-14.927-61.446-3.95-22.054-6.586-42.623-7.9-61.689s-1.953-38.61-1.953-58.631c0-45.263 13.673-81.024 41.080-107.256 27.45-26.223 63.881-39.357 109.326-39.357h492.351c45.436 0 81.867 13.133 109.283 39.357 27.416 26.232 41.124 61.993 41.124 107.256 0 20.022-0.674 39.565-1.962 58.631-1.314 19.066-3.95 39.635-7.865 61.689zM334.071 452.712c-30.449 44.178-45.644 92.49-45.644 144.946 0 10.927 0.942 23.383 2.835 37.359-24.814-8.686-49.767-13.029-74.953-13.029-22.143 0-44.494 4.074-67.018 12.178-22.515 8.113-40.847 16.121-54.927 24.061s-22.247 11.909-24.512 11.909c-46.56 0-69.853-66.64-69.853-199.851 0-29.455 10.536-51.813 31.53-67.109 21.037-15.27 46.966-22.905 77.762-22.905h75.488c38.686 46.419 88.418 70.575 149.291 72.442z" horiz-adv-x="1088" />
<glyph unicode="&#xe60c;" d="M452.147 446.884l-441.3 441.613c-7.21 7.535-10.848 16.155-10.848 25.863 0 9.759 3.638 18.38 10.848 25.863l6.86 7.412c7.193 7.466 15.499 11.242 24.918 11.242 9.336 0 17.642-3.776 24.918-11.242l473.011-474.887c7.193-7.552 10.831-16.173 10.831-25.863 0-9.776-3.638-18.397-10.831-25.863l-473.011-474.904c-7.21-7.535-15.515-11.242-24.918-11.242-9.352 0-17.658 3.707-24.918 11.242l-6.86 7.412c-7.21 7.483-10.848 16.104-10.848 25.863 0 9.707 3.638 18.328 10.848 25.794l441.3 441.699z" horiz-adv-x="551" />
<glyph unicode="&#xe60d;" d="M99.238 446.884l441.3 441.613c7.21 7.535 10.848 16.155 10.848 25.863 0 9.759-3.638 18.38-10.848 25.863l-6.86 7.412c-7.193 7.466-15.499 11.242-24.918 11.242-9.336 0-17.642-3.776-24.918-11.242l-473.011-474.887c-7.193-7.552-10.831-16.173-10.831-25.863 0-9.776 3.638-18.397 10.831-25.863l473.011-474.904c7.21-7.535 15.515-11.242 24.918-11.242 9.352 0 17.658 3.707 24.918 11.242l6.86 7.412c7.21 7.483 10.848 16.104 10.848 25.863 0 9.707-3.638 18.328-10.848 25.794l-441.3 441.699z" horiz-adv-x="551" />
<glyph unicode="&#xe60e;" d="M1117.555 766.596c-30.278 29.206-66.837 43.808-109.633 43.808h-135.663l-30.891 79.45c-7.695 19.085-21.709 35.543-42.108 49.411-20.399 13.796-41.281 20.734-62.693 20.734h-310.126c-21.421 0-42.331-6.938-62.693-20.734-20.408-13.868-34.45-30.326-42.117-49.411l-30.891-79.45h-135.654c-42.842 0-79.365-14.603-109.67-43.808-30.278-29.197-45.416-64.462-45.416-105.742v-523.539c0-41.28 15.139-76.546 45.416-105.751 30.305-29.206 66.828-43.799 109.67-43.799h852.836c42.796 0 79.355 14.594 109.633 43.799s45.416 64.471 45.416 105.751v523.539c0 41.28-15.139 76.546-45.416 105.742v0zM773.192 214.139c-53.074-51.186-117.003-76.824-191.711-76.824s-138.6 25.638-191.711 76.824c-53.102 51.231-79.643 112.896-79.643 184.923 0 72.064 26.57 133.693 79.643 184.923 53.111 51.231 117.003 76.868 191.711 76.868s138.6-25.638 191.711-76.868c53.111-51.195 79.653-112.86 79.653-184.923 0-72.028-26.542-133.693-79.653-184.923zM581.481 567.357c-48.065 0-89.123-16.458-123.238-49.375-34.125-32.917-51.187-72.557-51.187-118.92 0-46.327 17.062-85.958 51.187-118.875 34.116-32.917 75.173-49.375 123.238-49.375s89.16 16.458 123.285 49.375c34.125 32.917 51.187 72.548 51.187 118.875 0 46.363-17.062 86.003-51.187 118.92s-75.22 49.375-123.285 49.375z" horiz-adv-x="1170" />
<glyph unicode="&#xe60f;" d="M955.357 705.007c-45.782 78.431-107.879 140.517-186.342 186.309-78.432 45.782-164.095 68.683-256.99 68.683s-178.558-22.901-256.99-68.683c-78.473-45.751-140.569-107.878-186.352-186.309-45.793-78.472-68.684-164.134-68.684-257.028 0-92.853 22.891-178.515 68.684-256.987 45.783-78.431 107.879-140.558 186.311-186.309 78.473-45.782 164.136-68.683 257.030-68.683s178.558 22.901 256.99 68.683c78.432 45.751 140.559 107.878 186.342 186.309 45.752 78.472 68.643 164.134 68.643 256.987 0 92.894-22.891 178.597-68.643 257.028v0zM887.141 230.56c-38.759-66.35-91.363-118.941-157.701-157.701-66.35-38.759-138.859-58.090-217.416-58.090-78.569 0-151.078 19.331-217.416 58.090-66.399 38.759-118.954 91.351-157.713 157.701-38.747 66.399-58.127 138.846-58.127 217.416 0 78.618 19.38 151.066 58.127 217.465 38.759 66.35 91.314 118.893 157.713 157.652 66.338 38.759 138.798 58.139 217.416 58.139 78.557 0 151.066-19.38 217.416-58.139 66.338-38.759 118.941-91.302 157.701-157.652 38.759-66.399 58.090-138.846 58.090-217.465 0-78.569-19.331-151.017-58.090-217.416zM738.474 502.941l-348.721 205.147c-13.258 8.114-26.928 8.34-41.032 0.62-13.681-8.104-20.516-20.053-20.516-35.888v-410.255c0-15.795 6.835-27.784 20.516-35.888 6.835-3.423 13.681-5.144 20.516-5.144 7.258 0 14.103 1.918 20.516 5.763l348.721 205.147c13.681 7.681 20.516 19.444 20.516 35.229 0 15.824-6.835 27.587-20.516 35.268z" />
<glyph unicode="&#xe610;" d="M950.463 568.050h-318.46v318.448c0 20.413-7.153 37.761-21.423 52.078-14.27 14.27-31.653 21.423-52.067 21.423h-93.062c-20.413 0-37.761-7.153-52.078-21.423-14.27-14.317-21.423-31.665-21.423-52.078v-318.448h-318.448c-20.413 0-37.761-7.153-52.078-21.423-14.27-14.317-21.423-31.665-21.423-52.078v-93.109c0-20.413 7.153-37.749 21.423-52.020 14.317-14.317 31.665-21.423 52.078-21.423h318.448v-318.507c0-20.413 7.153-37.749 21.423-52.067 14.317-14.27 31.665-21.423 52.078-21.423h93.062c20.46 0 37.796 7.153 52.067 21.423 14.317 14.317 21.423 31.653 21.423 52.067v318.507h318.507c20.413 0 37.749 7.106 52.020 21.423 14.317 14.27 21.47 31.606 21.47 52.020v93.109c-0.035 20.413-7.153 37.761-21.47 52.078-14.27 14.27-31.606 21.423-52.067 21.423z" />
<glyph unicode="&#xe611;" d="M2958.222 865.369h682.667l-1820.444-910.222-1820.444 910.222h682.667l1137.778-568.889 1137.778 568.889z" horiz-adv-x="3641" />
<glyph unicode="&#xe612;" d="M2958.222-44.853h682.667l-1820.444 910.222-1820.444-910.222h682.667l1137.778 568.889 1137.778-568.889z" horiz-adv-x="3641" />
<glyph unicode="&#xe613;" d="M995.567 82.618l-209.878 208.105c50.573 72.443 75.874 153.135 75.874 242.111 0 57.856-11.331 113.171-33.956 165.962-22.663 52.764-53.249 98.295-91.786 136.509-38.547 38.223-84.417 68.589-137.665 91.024s-109.023 33.671-167.369 33.671c-58.346 0-114.13-11.236-167.369-33.671-53.211-22.435-99.128-52.801-137.665-91.024-38.547-38.214-69.171-83.745-91.796-136.509-22.625-52.792-33.956-108.106-33.956-165.962s11.331-113.124 33.956-165.925c22.625-52.801 53.249-98.295 91.796-136.508 38.538-38.251 84.454-68.58 137.665-91.052 53.239-22.435 109.023-33.671 167.369-33.671 89.73 0 171.143 25.088 244.162 75.273l209.868-207.528c14.664-15.351 33.008-23.059 55.042-23.059 21.236 0 39.608 7.708 55.079 23.059 15.518 15.379 23.254 33.596 23.254 54.616 0 21.42-7.52 39.638-22.625 54.579v0zM624.451 340.796c-53.652-53.192-118.195-79.779-193.665-79.779s-140.012 26.615-193.665 79.779c-53.652 53.201-80.455 117.201-80.455 192.037s26.803 138.873 80.455 192.037c53.652 53.201 118.195 79.788 193.665 79.788s140.012-26.587 193.665-79.788c53.643-53.164 80.492-117.201 80.492-192.037s-26.85-138.836-80.492-192.037v0z" />
<glyph unicode="&#xe614;" d="M1074.862 747.717c-51.425 65.511-121.314 117.289-209.587 155.27-88.263 37.992-184.693 57.013-289.26 57.013-78.016 0-152.599-11.229-223.721-33.676-71.161-22.417-132.42-52.769-183.855-90.965-51.435-38.227-92.347-83.653-122.784-136.3s-45.655-107.901-45.655-165.66c0-66.636 19.381-129.111 58.172-187.32 38.801-58.199 91.814-107.093 159.119-146.639-4.734-17.743-10.287-34.637-16.718-50.662-6.431-15.974-12.21-29.074-17.378-39.301-5.119-10.227-12.092-21.578-20.88-34.003-8.788-12.456-15.406-21.21-19.913-26.323-4.517-5.113-11.914-13.581-22.192-25.321-10.287-11.791-16.915-19.461-19.923-23.010-0.424-0.205-2.16-2.24-5.158-5.993-2.969-3.794-4.478-5.676-4.478-5.676l-3.847-5.993c-2.16-3.313-3.127-5.43-2.929-6.31 0.227-0.879-0.197-3.119-1.272-6.668-1.075-3.559-0.967-6.238 0.306-7.997v-0.675c1.736-7.987 5.474-14.419 11.254-19.338 5.819-4.868 12.329-6.872 19.607-5.952 27.892 3.559 52.323 8.396 73.321 14.624 112.27 29.8 210.86 83.572 295.691 161.345 32.133-3.59 63.221-5.349 93.195-5.349 104.606 0 201.036 19.011 289.299 57.003 88.273 37.992 158.162 89.759 209.558 155.28 51.425 65.511 77.168 136.975 77.168 214.278 0 77.333-25.742 148.766-77.138 214.318v0z" horiz-adv-x="1152" />
<glyph unicode="&#xe615;" d="M6.009 960c7.019-21.994 16.224-44.56 27.697-67.556l267.325-535.785c115.787-232.066 420.586-420.659 680.499-420.659h3250.030c259.898 0 564.584 188.336 680.499 420.659l267.325 535.785c11.472 22.992 20.666 45.558 27.67 67.556h-5201.046z" horiz-adv-x="5213" />
<glyph unicode="&#xe616;" d="M6758.4 960l-622.020-650.039c-197.197-206.080-588.848-373.961-873.808-373.961h-3789.387c-285.048 0-673.785 168.829-868.465 377.091l-604.721 646.909h6758.4z" horiz-adv-x="6758" />
<glyph unicode="&#xe617;" d="M6758.4-64l-622.020 650.039c-197.197 206.080-588.848 373.961-873.808 373.961h-3789.387c-285.048 0-673.785-168.829-868.465-377.091l-604.721-646.909h6758.4z" horiz-adv-x="6758" />
<glyph unicode="&#xe618;" d="M982.235 513.030c23.282-27.491 34.938-59.963 34.938-97.495 0-34.048-12.075-63.467-36.196-88.368-24.15-24.871-52.768-37.301-85.804-37.301h-176.095c1.678-6.115 3.385-11.336 5.062-15.734 1.678-4.348 4.038-9.137 7.013-14.388 2.936-5.221 5.062-9.137 6.32-11.768 7.666-14.83 13.489-27.060 17.489-36.628 4.038-9.609 8.047-22.712 12.085-39.299 4.038-16.557 6.057-33.144 6.057-49.741 0-10.472-0.117-18.977-0.341-25.493-0.195-6.547-1.258-16.386-3.17-29.449-1.902-13.103-4.457-24.007-7.618-32.712-3.199-8.745-8.271-18.555-15.274-29.459-6.974-10.944-15.469-19.76-25.418-26.507-9.978-6.787-22.668-12.44-38.176-17.029-15.469-4.589-32.919-6.858-52.427-6.858-11.051 0-20.571 4.157-28.608 12.43-8.505 8.705-15.704 19.65-21.644 32.712-5.911 13.103-10.056 24.429-12.387 34.048-2.321 9.609-4.984 22.903-7.959 39.922-3.814 18.314-6.672 31.498-8.574 39.57-1.902 8.083-5.638 18.676-11.129 31.739-5.521 13.093-12.075 23.565-19.732 31.417-13.987 14.388-35.357 40.594-64.199 78.518-20.766 27.923-42.175 54.32-64.199 79.191-22.063 24.901-38.137 37.763-48.31 38.626-10.593 0.864-19.703 5.332-27.359 13.414-7.618 8.083-11.431 17.571-11.431 28.475v419.509c0 11.336 4.038 21.025 12.075 29.108 8.047 8.073 17.606 12.31 28.618 12.742 14.826 0.472 48.31 10.041 100.435 28.827 32.656 11.336 58.181 19.971 76.616 25.855 18.405 5.884 44.165 12.189 77.23 18.977 33.036 6.747 63.556 10.121 91.52 10.121h82.029c56.396-0.864 98.113-17.882 125.239-51.027 24.579-30.082 34.938-69.582 31.163-118.45 16.503-16.155 27.974-36.628 34.294-61.499 7.198-26.628 7.198-52.161 0-76.56 19.508-26.628 28.618-56.519 27.359-89.663 0.039-13.997-3.131-30.544-9.49-49.772zM223.762 373.646h-183.069c-11.012 0-20.58 4.157-28.618 12.43s-12.075 18.123-12.075 29.459v418.836c0 11.336 4.038 21.146 12.075 29.459 8.076 8.274 17.606 12.43 28.618 12.43h183.069c11.051 0 20.58-4.157 28.618-12.43 8.076-8.314 12.075-18.123 12.075-29.459v-418.836c0-11.336-3.999-21.186-12.075-29.459-8.037-8.274-17.567-12.43-28.618-12.43zM150.647 780.362c-8.037 8.083-17.557 12.119-28.569 12.119-11.47 0-21.107-4.036-28.959-12.119-7.813-8.033-11.734-17.963-11.734-29.761 0-11.336 3.921-21.146 11.734-29.459 7.852-8.274 17.489-12.43 28.959-12.43 11.012 0 20.532 4.157 28.569 12.43 8.076 8.314 12.124 18.123 12.124 29.459 0 11.798-4.048 21.728-12.124 29.761v0z" />
<glyph unicode="&#xe619;" d="M349.053 624.479v88.22c0 13.261 0.576 23.499 1.776 30.764 1.237 7.255 3.961 14.405 8.21 21.45 4.249 7.035 11.111 11.878 20.595 14.595 9.512 2.679 22.12 4.023 37.881 4.023h86.082v176.469h-137.584c-79.62 0-136.785-19.362-171.504-58.086-34.766-38.733-52.125-95.78-52.125-171.188v-106.248h-103.042v-176.479h103.042v-512h206.669v512h137.547l18.196 176.479h-155.743z" horiz-adv-x="512" />
<glyph unicode="&#xe61a;" d="M512-64c-282.77 0-512 229.23-512 512s229.23 512 512 512c282.77 0 512-229.23 512-512s-229.23-512-512-512zM644.887 521.124h-104.153v61.99c0 28.111 8.492 47.267 52.154 47.267l55.645 0.025v86.837c-9.61 1.184-42.636 3.823-81.131 3.823-80.306 0-135.246-45.254-135.246-128.345v-71.598h-90.823v-97.079h90.823v-249.112h108.578v249.112h90.585l13.568 97.079z" />
<glyph unicode="&#xe61b;" d="M603.045 308.011c-10.333 14.568-21.725 28.135-34.193 40.597-12.477 12.547-24.954 23.905-37.422 34.158-12.477 10.253-23.86 20.129-34.202 29.57-10.333 9.403-18.711 19.251-25.115 29.504-6.449 10.253-9.678 20.733-9.678 31.392 0 14.785 4.485 28.616 13.455 41.56 8.97 12.906 19.868 25.406 32.731 37.548 12.854 12.094 25.716 25.293 38.615 39.681 12.818 14.341 23.752 33.337 32.722 56.902 8.97 23.603 13.455 50.557 13.455 80.911 0 36.113-7.606 70.771-22.81 104.004-15.204 33.224-36.651 59.083-64.331 77.559h78.943l78.907 48.603h-255.468c-36.229 0-72.7-4.088-109.315-12.311-54.169-12.727-99.753-41.749-136.789-87.076s-55.541-96.734-55.541-154.156c0-60.707 20.747-111.198 62.268-151.389 41.485-40.163 91.276-60.301 149.365-60.301 11.67 0 25.331 1.029 40.929 3.097-0.807-3.286-2.144-7.704-4.099-13.237-1.964-5.533-3.507-9.96-4.7-13.246-1.157-3.276-2.135-7.26-2.906-11.981s-1.157-9.554-1.157-14.454c0-27.077 12.477-57.648 37.422-91.683-29.645-0.85-58.86-3.616-87.698-8.337s-59.039-12.094-90.613-22.168c-31.565-10.026-59.846-24.594-84.791-43.665-24.945-19.099-43.656-41.749-56.133-68.005-14.397-30.353-21.617-58.044-21.617-83.092 0-27.474 5.848-52.408 17.554-74.755 11.67-22.347 26.667-40.607 44.992-54.768s39.485-26.029 63.452-35.697c23.967-9.621 47.719-16.522 71.301-20.61 23.582-4.097 46.885-6.165 69.866-6.165 104.453 0 186.302 26.888 245.548 80.618 54.554 50.048 81.849 107.913 81.849 173.557 0 23.386-3.22 45.214-9.669 65.541-6.413 20.317-14.782 37.727-25.124 52.295v0zM377.679 531.682c-19.904 0-38.785 5.344-56.725 16.003-17.94 10.697-33.107 24.528-45.584 41.57-12.477 16.994-23.402 36.179-32.758 57.525-9.355 21.318-16.262 42.636-20.747 63.992-4.485 21.318-6.727 41.636-6.727 60.924 0 39.389 9.956 73.207 29.816 101.53 19.868 28.324 47.935 42.448 84.199 42.448 25.716 0 49.020-8.412 69.866-25.227s37.216-38.133 49.092-63.983c11.912-25.859 21.052-52.597 27.501-80.288 6.413-27.7 9.634-53.843 9.634-78.485 0-41.003-8.476-73.943-25.429-98.764-16.962-24.821-44.329-37.245-82.136-37.245v0zM539.315 69.583c-10.728-19.288-25.232-34.375-43.557-45.214-18.325-10.886-37.87-18.882-58.752-24.009-20.855-5.164-42.75-7.713-65.775-7.713-24.945 0-49.684 3.097-74.243 9.224-24.559 6.156-48.033 15.521-70.422 27.993-22.424 12.538-40.543 29.759-54.384 51.7s-20.738 46.875-20.738 74.793c0 24.604 5.256 46.545 15.76 65.833 10.548 19.288 23.967 34.668 40.328 46.13 16.406 11.509 35.502 20.95 57.326 28.324 21.832 7.383 42.849 12.51 63.138 15.38 20.254 2.88 40.929 4.315 61.945 4.315 12.899 0 22.64-0.434 29.259-1.246 2.314-1.624 8.27-5.938 17.832-12.916 9.535-6.968 15.984-11.688 19.276-14.162 3.328-2.464 9.355-7.185 18.11-14.162 8.799-6.968 15.033-12.207 18.711-15.672 3.713-3.503 9.077-8.743 16.083-15.71 7.014-6.968 12.199-13.019 15.491-18.146 3.328-5.127 7.427-11.358 12.298-18.731 4.871-7.411 8.27-14.492 10.235-21.243 1.92-6.788 3.776-14.162 5.534-22.168 1.749-7.997 2.628-16.295 2.628-24.925 0-25.859-5.364-48.386-16.083-67.674zM866.434 802.455v157.545h-74.844v-157.545h-149.652v-78.739h149.652v-157.554h74.844v157.554h149.643v78.739h-149.643z" />
<glyph unicode="&#xe61c;" d="M972.565 671.927c9.381-0.045 15.448-0.097 15.448-0.154 0-2.984 0-21.998 0-18.973 0 7.164 0 38.744 0 34.133v-50c23.222-58.457 35.987-122.204 35.987-188.933 0-282.77-229.23-512-512-512-28.973 0-57.384 2.407-85.044 7.031-17.084-1.985-35.057-3.126-53.917-3.423-78.677 0.733-137.407 17.507-176.222 50.276-38.627 30.278-58.239 66.378-58.722 108.344v0c-85.655 91.527-138.095 214.526-138.095 349.772 0 282.77 229.23 512 512 512 202.469 0 377.488-117.523 460.565-288.073zM138.095 98.228c75.081-80.228 175.684-136.276 288.861-155.197 68.050 7.907 122.003 29.211 161.808 63.956 48.062 42.062 72.123 90.258 72.123 144.695-0.748 38.321-9.502 69.355-26.305 93.116-17.836 23.388-38.605 44.68-62.277 64.088l-38.111 31.228c-5.506 5.462-11.178 11.866-16.998 19.183-6.868 7.661-10.295 17.312-10.295 29.059 0 12.060 3.352 22.624 10.040 31.752 5.686 8.783 11.851 16.639 18.569 23.567 11.686 10.235 22.699 20.305 33.099 30.136 9.367 9.861 18.24 20.634 26.575 32.321 17.103 24.121 25.991 56.262 26.62 96.438 0 21.906-2.439 41.104-7.392 57.519-6.015 16.475-12.898 30.69-20.664 42.735-8.11 12.749-16.4 23.582-24.854 32.351-8.813 8.394-16.714 14.784-23.792 19.153h69.235l69.37 40.506h-224.613c-29.777 0-61.723-3.457-95.795-10.399-34.415-8.095-67.589-25.228-99.506-51.489-46.551-44.95-69.774-94.957-69.774-150.141 0-45.623 16.415-85.605 49.274-119.99 31.348-36.869 76.911-55.678 136.734-56.426 11.267 0 23.328 0.748 36.061 2.185-2.080-5.896-4.384-12.27-6.868-19.273-2.798-6.584-4.19-14.888-4.19-24.809 0-16.489 3.666-30.645 11.058-42.391 6.344-12.12 13.557-23.492 21.667-34.161-26.216-0.718-59.12-4.025-98.787-9.831-40.057-6.928-78.273-20.829-114.618-41.568-32.41-19.318-54.795-41.747-67.11-67.23-12.809-25.527-19.153-48.72-19.153-69.489 0-0.531 0.003-1.062 0.009-1.591v0zM588.464 107.779c0-35.089-13.587-63.743-40.79-86.054-27.847-22.639-68.277-34.341-121.217-35.089-59.030 0.748-105.476 13.901-139.487 39.473-35.762 25.557-53.598 58.072-53.598 97.53 0 20.081 4.070 37.258 12.33 51.518 7.123 13.527 15.876 24.854 26.26 33.982 10.759 8.768 21.293 15.532 31.677 20.275 10.355 4.384 18.375 7.676 24.106 9.876 24.33 7.317 48.137 12.599 71.36 15.906 23.597 2.17 38.276 2.873 43.992 2.17 9.651 0 18.046-0.344 25.228-1.077 41.852-29.268 72.587-53.913 92.278-74.008 18.569-21.173 27.862-45.982 27.862-74.502zM431.874 437.016c-23.403 0-44.201 7.137-62.397 21.442-18.24 14.275-33.039 31.662-44.576 52.132-23.792 43.947-35.627 86.173-35.627 126.799-0.778 30.749 7.362 58.566 24.375 83.45 20.2 23.792 45.488 36.061 75.938 36.795 22.999-0.733 43.334-7.527 61.065-20.305 17.327-13.527 31.303-31.124 41.957-52.686 22.654-44.994 33.982-89.675 33.982-133.936 0-10.28-0.838-22.864-2.469-37.887-2.693-15.023-8.813-29.657-18.33-43.917-19.707-20.141-44.336-30.779-73.918-31.887zM972.565 671.927c-31.964 0.154-102.403 0.236-102.403 0.236v117.865h-57.1v-117.865h-117.836v-57.115h117.836v-117.836h57.1v117.836h117.851v21.885c-4.723 11.89-9.879 23.561-15.448 34.993z" />
<glyph unicode="&#xe61d;" d="M50.758 149.076c-13.736 0-25.671-4.987-35.696-14.926-10.025-9.927-15.062-21.733-15.062-35.334v-100.521c0-13.601 5.037-25.359 15.062-35.346 10.074-9.927 21.96-14.914 35.696-14.914h1218.893c13.784 0 25.671 4.987 35.696 14.914 10.025 9.987 15.062 21.745 15.062 35.346v100.521c0 13.601-4.988 25.407-15.062 35.334-10.025 9.939-21.912 14.926-35.696 14.926h-1218.893zM1269.651 953.121h-1218.893c-13.736 0-25.671-4.987-35.696-14.914-10.025-9.939-15.062-21.745-15.062-35.346v-100.521c0-13.601 5.037-25.359 15.062-35.298 10.074-9.975 21.96-14.962 35.696-14.962h1218.893c13.784 0 25.671 4.987 35.696 14.962 10.025 9.939 15.062 21.697 15.062 35.298v100.521c0 13.601-4.988 25.407-15.062 35.346-10.025 9.927-21.912 14.914-35.696 14.914zM50.758 551.099c-13.736 0-25.671-4.987-35.696-14.926-10.025-9.927-15.062-21.733-15.062-35.334v-100.521c0-13.601 5.037-25.407 15.062-35.346 10.074-9.927 21.96-14.914 35.696-14.914h1218.893c13.784 0 25.671 4.987 35.696 14.914 10.025 9.939 15.062 21.745 15.062 35.346v100.521c0 13.601-5.037 25.407-15.062 35.334-10.025 9.939-21.912 14.926-35.696 14.926h-1218.893z" horiz-adv-x="1331" />
<glyph unicode="&#xe61e;" d="M0 960h1024v-1024h-1024v1024zM320 175.059h414.057v94.871h-310.332v498.071h-103.725v-592.941z" />
<glyph unicode="&#xe61f;" d="M982.235 402.084c23.282 27.476 34.938 59.929 34.938 97.44 0 34.029-12.075 63.431-36.196 88.318-24.15 24.857-52.768 37.28-85.804 37.28h-176.095c1.678 6.111 3.385 11.329 5.062 15.725 1.678 4.345 4.038 9.132 7.013 14.38 2.936 5.218 5.062 9.132 6.32 11.761 7.666 14.822 13.489 27.044 17.489 36.608 4.038 9.604 8.047 22.699 12.085 39.277 4.038 16.548 6.057 33.126 6.057 49.713 0 10.467-0.117 18.966-0.341 25.479-0.195 6.543-1.258 16.377-3.17 29.433-1.902 13.096-4.457 23.994-7.618 32.694-3.199 8.74-8.271 18.545-15.274 29.443-6.974 10.938-15.469 19.749-25.418 26.492-9.978 6.784-22.668 12.433-38.176 17.019-15.47 4.586-32.919 6.854-52.427 6.854-11.051 0-20.571-4.155-28.608-12.423-8.505-8.7-15.704-19.639-21.644-32.694-5.911-13.096-10.056-24.415-12.387-34.029-2.321-9.603-4.984-22.89-7.959-39.899-3.814-18.304-6.672-31.48-8.574-39.548-1.902-8.078-5.638-18.665-11.129-31.721-5.521-13.086-12.075-23.552-19.732-31.4-13.987-14.38-35.357-40.572-64.199-78.474-20.766-27.907-42.175-54.289-64.199-79.146-22.063-24.887-38.137-37.742-48.31-38.605-10.593-0.863-19.703-5.329-27.359-13.407-7.618-8.078-11.431-17.561-11.431-28.459v-419.273c0-11.329 4.038-21.013 12.075-29.091 8.047-8.068 17.606-12.303 28.618-12.734 14.826-0.472 48.31-10.035 100.435-28.811 32.656-11.329 58.181-19.96 76.616-25.84 18.405-5.881 44.165-12.183 77.23-18.966 33.036-6.744 63.556-10.115 91.52-10.115h82.029c56.396 0.863 98.113 17.872 125.239 50.998 24.579 30.065 34.938 69.543 31.163 118.383 16.503 16.146 27.974 36.608 34.294 61.464 7.198 26.613 7.198 52.132 0 76.517 19.508 26.613 28.618 56.487 27.359 89.613 0.039 13.989-3.131 30.526-9.49 49.744zM223.762 541.39h-183.069c-11.012 0-20.58-4.154-28.618-12.423s-12.075-18.113-12.075-29.443v-418.6c0-11.329 4.038-21.134 12.075-29.443 8.076-8.269 17.606-12.423 28.618-12.423h183.069c11.051 0 20.58 4.155 28.618 12.423 8.076 8.309 12.075 18.113 12.075 29.443v418.6c0 11.33-3.999 21.174-12.075 29.443-8.037 8.269-17.567 12.423-28.618 12.423zM150.647 134.902c-8.037-8.078-17.557-12.112-28.569-12.112-11.47 0-21.107 4.034-28.959 12.112-7.813 8.028-11.734 17.953-11.734 29.744 0 11.33 3.921 21.134 11.734 29.443 7.852 8.269 17.489 12.423 28.959 12.423 11.012 0 20.532-4.155 28.569-12.423 8.076-8.309 12.124-18.113 12.124-29.443 0-11.791-4.048-21.716-12.124-29.744v0z" />
<glyph unicode="&#xe620;" d="M965.575 344.481l-129.723 128.559c-34.95 34.588-77.346 51.883-127.254 51.883-50.731 0-93.978-18.11-129.723-54.367l-54.913 54.367c36.596 35.451 54.913 78.488 54.913 129.185 0 49.446-17.264 91.231-51.813 125.449l-128.488 127.924c-34.5 35.006-76.934 52.518-127.244 52.518-49.908 0-92.112-17.105-126.622-51.295l-91.701-90.226c-35.323-34.219-53.009-75.994-53.009-125.44s17.456-91.477 52.415-126.075l129.713-128.559c34.96-34.588 77.346-51.921 127.254-51.921 50.731 0 93.978 18.148 129.761 54.405l54.875-54.405c-36.596-35.404-54.875-78.45-54.875-129.147 0-49.446 17.236-91.221 51.774-125.449l128.488-127.924c34.538-34.996 76.934-52.518 127.254-52.518 49.898 0 92.074 17.114 126.612 51.295l91.701 90.226c35.323 34.219 53.009 76.004 53.009 125.44 0 49.446-17.456 91.449-52.406 126.075v0zM439.143 608.967c-1.235 1.223-5.091 5.148-11.551 11.738-6.431 6.59-10.92 11.036-13.389 13.293-2.498 2.266-6.469 5.338-11.848 9.263-5.417 3.925-10.728 6.59-15.925 8.040-5.197 1.441-10.92 2.181-17.159 2.181-16.633 0-30.768-5.774-42.396-17.332-11.656-11.52-17.494-25.515-17.494-42.003 0-6.182 0.746-11.852 2.211-17 1.455-5.148 4.144-10.401 8.106-15.739 3.924-5.367 7.072-9.292 9.35-11.738 2.278-2.484 6.766-6.931 13.379-13.293 6.661-6.409 10.623-10.231 11.886-11.454-12.479-12.772-27.476-19.143-44.932-19.143-17.044 0-31.179 5.556-42.396 16.668l-129.751 128.55c-11.628 11.52-17.456 25.562-17.456 42.041 0 16.033 5.79 29.848 17.456 41.368l91.701 90.264c12.039 11.112 26.203 16.668 42.424 16.668 16.604 0 30.768-5.784 42.396-17.304l128.488-127.924c11.666-11.52 17.456-25.553 17.456-42.003 0-17.332-6.843-32.37-20.557-45.141v0zM880.784 177.038l-91.701-90.254c-11.666-10.705-25.791-16.043-42.424-16.043-17.054 0-31.179 5.556-42.396 16.668l-128.488 127.924c-11.666 11.52-17.456 25.553-17.456 42.003 0 17.332 6.843 32.37 20.557 45.151 1.273-1.261 5.12-5.186 11.551-11.785 6.431-6.552 10.919-10.999 13.427-13.255 2.498-2.295 6.431-5.367 11.848-9.301 5.378-3.925 10.69-6.59 15.886-8.031 5.197-1.451 10.919-2.152 17.159-2.152 16.633 0 30.768 5.784 42.434 17.294 11.628 11.52 17.456 25.524 17.456 42.003 0 6.182-0.746 11.852-2.172 17-1.493 5.148-4.182 10.411-8.144 15.777-3.962 5.338-7.072 9.263-9.35 11.738-2.278 2.446-6.766 6.893-13.417 13.303-6.651 6.372-10.623 10.183-11.848 11.406 12.479 13.189 27.437 19.778 44.893 19.778 16.633 0 30.806-5.746 42.434-17.294l129.713-128.521c11.666-11.558 17.494-25.553 17.494-42.041 0-16.071-5.828-29.886-17.456-41.368v0z" />
<glyph unicode="&#xe621;" d="M1126.4-64l1126.4 1024h-2252.8z" horiz-adv-x="2253" />
<glyph unicode="&#xe622;" d="M465.455 448l-465.455-512v1024z" horiz-adv-x="465" />
<glyph unicode="&#xe623;" d="M301.489 949.736c4.247 6.816 9.106 10.264 14.577 10.264 5.5 0 10.359-3.448 14.577-10.264l31.661-51.289c4.208-6.832 6.336-14.703 6.336-23.614 0-8.926-2.128-16.797-6.336-23.614l-248.915-403.212 248.915-403.29c4.208-6.816 6.336-14.688 6.336-23.614 0-8.847-2.128-16.718-6.336-23.614l-31.661-51.273c-4.218-6.832-9.077-10.217-14.577-10.217-5.471 0-10.33 3.385-14.577 10.217l-295.143 478.177c-4.218 6.816-6.346 14.688-6.346 23.614 0 8.847 2.089 16.719 6.346 23.614l295.143 478.114z" horiz-adv-x="369" />
<glyph unicode="&#xe624;" d="M67.151 949.736c-4.247 6.816-9.106 10.264-14.577 10.264-5.5 0-10.359-3.448-14.577-10.264l-31.661-51.289c-4.208-6.832-6.336-14.703-6.336-23.614 0-8.926 2.128-16.797 6.336-23.614l248.915-403.212-248.915-403.29c-4.208-6.816-6.336-14.688-6.336-23.614 0-8.847 2.128-16.718 6.336-23.614l31.661-51.273c4.218-6.832 9.077-10.217 14.577-10.217 5.471 0 10.33 3.385 14.577 10.217l295.143 478.177c4.218 6.816 6.346 14.688 6.346 23.614 0 8.847-2.089 16.719-6.346 23.614l-295.143 478.114z" horiz-adv-x="369" />
<glyph unicode="&#xe625;" d="M799.771 447.959h-228.207v469.369c0 12.478-3.63 22.706-10.761 30.684-7.040 7.998-16.16 11.987-27.286 11.987h-228.262c-11.053 0-20.172-3.989-27.359-11.987-7.132-7.978-10.688-18.206-10.688-30.684v-469.287h-228.28c-17.382 0-29.274-8.96-35.621-26.695-6.347-16.938-3.557-32.444 8.335-46.661l380.394-426.697c8.755-7.998 17.801-11.987 27.359-11.987 9.466 0 18.586 3.989 27.359 11.987l379.172 425.347c7.971 10.617 11.892 21.336 11.892 31.953 0 12.458-3.557 22.686-10.688 30.684s-16.251 11.987-27.359 11.987v0z" horiz-adv-x="838" />
<glyph unicode="&#xe626;" d="M799.771 448.041h-228.207v-469.369c0-12.478-3.63-22.706-10.761-30.684-7.040-7.998-16.16-11.987-27.286-11.987h-228.262c-11.053 0-20.172 3.989-27.359 11.987-7.132 7.978-10.688 18.206-10.688 30.684v469.287h-228.28c-17.382 0-29.274 8.96-35.621 26.695-6.347 16.938-3.557 32.444 8.335 46.661l380.394 426.697c8.755 7.998 17.801 11.987 27.359 11.987 9.466 0 18.586-3.989 27.359-11.987l379.172-425.347c7.971-10.617 11.892-21.336 11.892-31.953 0-12.458-3.557-22.686-10.688-30.684s-16.251-11.987-27.359-11.987v0z" horiz-adv-x="838" />
<glyph unicode="&#xe627;" d="M775.109 880.178l-754.255-754.255c-10.753-10.853-16.192-23.27-16.192-37.252 0-14.056 5.439-26.474 16.192-37.252l80.911-80.911c10.778-10.753 23.196-16.192 37.252-16.192 14.081 0 26.499 5.439 37.252 16.192l636.092 636.116 636.216-636.116c10.753-10.753 23.171-16.192 37.252-16.192 13.957 0 26.374 5.439 37.252 16.192l80.887 80.911c10.778 10.778 16.118 23.196 16.118 37.252 0 13.982-5.339 26.399-16.118 37.252l-754.354 754.255c-10.753 10.778-23.171 16.217-37.252 16.217-13.957 0-26.374-5.339-37.252-16.217v0z" horiz-adv-x="1638" />
<glyph unicode="&#xe628;" d="M946.967 709.722c-45.38 76.981-106.932 137.919-184.705 182.864-77.743 44.936-162.654 67.413-254.733 67.413s-176.99-22.478-254.733-67.413c-77.783-44.905-139.335-105.884-184.715-182.864-45.391-77.021-68.081-161.099-68.081-252.275 0-91.136 22.69-175.214 68.081-252.235 45.38-76.981 106.932-137.959 184.675-182.864 77.783-44.936 162.694-67.413 254.773-67.413s176.99 22.478 254.733 67.413c77.743 44.905 139.325 105.884 184.705 182.864 45.35 77.021 68.040 161.099 68.040 252.235 0 91.176-22.69 175.295-68.040 252.275v0zM668.084 256.582c8.395-8.272 12.592-18.111 12.592-29.445s-4.197-21.143-12.592-29.455l-67.412-66.741c-8.354-8.282-18.26-12.439-29.706-12.439-11.477 0-21.382 4.156-29.777 12.439l-300.002 297.091c-8.354 8.282-12.552 18.081-12.552 29.455 0 11.334 4.197 21.133 12.552 29.415l300.002 297.091c8.395 8.282 18.3 12.439 29.777 12.439 11.446 0 21.352-4.156 29.706-12.439l67.412-66.741c8.395-8.312 12.592-18.121 12.592-29.455s-4.197-21.173-12.592-29.445l-202.853-200.905 202.853-200.865z" />
<glyph unicode="&#xe629;" d="M801.256 926.597c-8.299 12.483-19.427 21.606-33.373 27.402-8.914 4.004-18.247 6.001-27.999 6.001h-666.166c-9.723 0-19.056-1.997-27.97-6.001-13.975-5.796-25.103-14.92-33.363-27.361-8.231-12.483-12.386-26.276-12.386-41.4v-860.314c0-15.124 4.155-28.928 12.386-41.4 8.26-12.442 19.388-21.565 33.363-27.361 8.914-4.004 18.247-6.001 27.97-6.001 19.924 0 37.517 7.363 52.76 22.036l280.342 283.003 280.303-283.003c14.853-14.234 32.417-21.361 52.76-21.361 10.591 0 19.924 1.761 27.999 5.325 13.946 5.796 25.073 14.92 33.373 27.402 8.231 12.431 12.385 26.235 12.385 41.359v860.314c0 15.124-4.155 28.918-12.385 41.359v0z" horiz-adv-x="819" />
<glyph unicode="&#xe62a;" d="M54.185 960v-1024h1024v1024h-1024zM739.515 823.625l76.101-3.799c31.221-1.689 52.319-3.377 63.295-5.066s16.464-5.277 16.464-10.764c0-4.643-22.684-17.835-68.052-39.575s-83.174-40.525-113.419-56.355c-30.245-15.83-72.198-42.53-125.859-80.099s-107.077-82.526-160.25-134.871c-10.732-10.975-20.733-21.845-30.001-32.61s-17.44-21.001-24.513-30.71c-7.073-9.709-11.098-14.986-12.074-15.83 52.198 48.123 98.906 83.898 140.128 107.327s84.515 35.142 129.883 35.142c47.319 0 84.637-12.347 111.956-37.042s40.977-58.571 40.977-101.628c0-48.123-19.269-101.417-57.807-159.882s-87.076-107.854-145.616-148.168c-58.539-40.314-115.126-60.47-169.763-60.47-33.66 0-66.588 11.397-98.784 34.193s-58.051 52.239-77.564 88.331c-19.513 36.092-29.269 73.134-29.269 111.126 0 51.5 21.342 110.915 64.027 178.245s104.516 133.393 185.495 198.191c80.979 64.797 175.86 119.568 284.646 164.315zM380.964 151.803c25.855 0 62.319 15.197 109.395 45.59s88.54 67.541 124.395 111.443c35.855 43.902 53.783 85.481 53.783 124.74 0 35.459-15.366 53.189-46.099 53.189-35.124 0-90.003-27.227-164.641-81.682-44.88-32.926-77.686-62.792-98.419-89.597s-31.099-57.093-31.099-90.864c0-25.75 4.025-44.324 12.074-55.721s21.586-17.096 40.611-17.096z" horiz-adv-x="1088" />
<glyph unicode="&#xe62b;" d="M0 960h1024v-1024h-1024v1024z" />
<glyph unicode="&#xe62c;" d="M763.641 889.391l-251.678-251.678-251.668 251.668c-16.132 16.132-35.495 24.189-58.088 24.227-22.556 0-41.946-8.085-58.079-24.217l-73.546-73.546c-16.132-16.132-24.189-35.495-24.227-58.088 0.037-22.593 8.094-41.956 24.227-58.088l251.668-251.668-251.668-251.668c-16.132-16.132-24.189-35.495-24.227-58.088 0.037-22.593 8.094-41.956 24.227-58.088l73.583-73.583c16.132-16.132 35.486-24.18 58.042-24.18 22.63 0 41.956 8.094 58.088 24.227l251.668 251.668 251.715-251.715c16.132-16.132 35.486-24.18 58.079-24.217 22.593 0.037 41.956 8.094 58.088 24.227l73.546 73.546c16.17 16.17 24.217 35.523 24.217 58.079 0 22.63-8.085 41.946-24.217 58.079l-251.715 251.715 251.715 251.715c16.132 16.132 24.217 35.449 24.18 58.042 0.037 22.593-8.011 41.946-24.143 58.079l-73.583 73.583c-16.16 16.105-35.495 24.189-58.125 24.189-22.556 0-41.909-8.048-58.079-24.217z" />
</font>
</defs>
</svg>
