<?xml version="1.0" standalone="no"?>
<!DOCTYPE svg PUBLIC "-//W3C//DTD SVG 1.1//EN" "http://www.w3.org/Graphics/SVG/1.1/DTD/svg11.dtd" >
<svg xmlns="http://www.w3.org/2000/svg">
<metadata>
Created by FontPrep 20130207 at Mon Jun  1 17:37:45 2015
 By Hazmi
Copyright (c) 1981, 1982, 1983, 1989 and 1993, Linotype Library GmbH or its affiliated Linotype-Hell companies. All rights reserved.

The digitally encoded machine readable software for producing the Typefaces licensed to you is now the property of Heidelberger Druckmaschinen AG and its licensors, and may not be reproduced, used, displayed, modified, disclosed or transferred without the express written approval of Heidelberger Druckmaschinen AG.

Copyright (c) 1988, 1990, 1993 Adobe Systems Incorporated. All Rights Reserved.
</metadata>
<defs>
<font id="7384ecabcada72f0e077cd45d8e1c705" horiz-adv-x='1024' >
  <font-face 
    font-family="HelveticaNeue-Light"
    font-weight="200"
    font-stretch="normal"
    units-per-em="2048"
    panose-1="2 0 3 3 0 0 0 0 0 0"
    ascent="1638"
    descent="-410"
    x-height="1057"
    cap-height="1462"
    bbox="-61 -436 1851 1653"
    underline-thickness="102"
    underline-position="-153"
    unicode-range="U+0008-007F"
  />
<missing-glyph horiz-adv-x="1024" 
 />
    <glyph glyph-name=".notdef" horiz-adv-x="1024" 
 />
    <glyph glyph-name=".null" horiz-adv-x="0" 
 />
    <glyph glyph-name="uni000D" unicode="&#xd;" horiz-adv-x="569" 
 />
    <glyph glyph-name="uni0008" horiz-adv-x="0" 
 />
    <glyph glyph-name="uni0009" unicode="&#x9;" horiz-adv-x="569" 
 />
    <glyph glyph-name="uni001D" horiz-adv-x="0" 
 />
    <glyph glyph-name="space" unicode=" " horiz-adv-x="569" 
 />
    <glyph glyph-name="exclam" unicode="!" horiz-adv-x="493" 
d="M178 1462h139v-436l-30 -661h-78l-31 661v436zM162 0v217h172v-217h-172z" />
    <glyph glyph-name="quotedbl" unicode="&#x22;" horiz-adv-x="757" 
d="M178 1462h129v-497h-129v497zM451 1462h129v-497h-129v497z" />
    <glyph glyph-name="numbersign" unicode="#" 
d="M1018 457h-227l-64 -457h-102l63 457h-289l-63 -457h-103l64 457h-225v92h237l45 319h-225v93h238l63 454h102l-63 -454h289l63 454h103l-64 -454h215v-93h-227l-45 -319h215v-92zM457 868l-45 -319h288l45 319h-288z" />
    <glyph glyph-name="dollar" unicode="$" 
d="M606 78q146 0 238 69q108 86 106 230q0 76 -32 123q-54 87 -191 133q-35 12 -121 35v-590zM526 1384q-57 0 -116 -16q-123 -45 -160 -151q-25 -55 -25 -133t27 -122q26 -46 68 -75t105 -46t101 -28v571zM96 1089q0 101 35 171q56 138 229 206q84 27 166 27v160h80v-160
q182 0 307 -121q66 -66 95 -141q37 -80 32 -182h-129q-2 155 -86 245t-219 90v-589q220 -46 324 -119q70 -47 108 -119q41 -70 41 -171t-39 -185q-45 -78 -106 -126t-152 -79q-86 -25 -176 -25v-174h-80v176q-240 23 -350 142q-109 121 -117 352h129q4 -184 91 -274
q84 -96 247 -115v606q-94 20 -166 45q-264 85 -264 360z" />
    <glyph glyph-name="percent" unicode="%" horiz-adv-x="1820" 
d="M465 1354q-61 0 -105 -27q-45 -33 -66 -71t-36 -97q-8 -73 -8 -103t8 -100q23 -107 102 -165q42 -27 104 -27t109 27q85 65 101 165q10 58 10 100q0 116 -45 197q-20 39 -66 74q-47 27 -108 27zM1317 1485h96l-926 -1553h-98zM1366 743q171 0 250 -112q74 -89 75 -273
t-75 -276q-79 -111 -249 -111t-251 111q-74 89 -75 273t75 276q79 112 250 112zM1366 651q-68 -1 -108 -27t-66 -74t-33 -95q-10 -41 -10 -99t10 -102q6 -47 33 -93q26 -46 66 -73t108 -27t104 29q113 69 113 264q0 114 -45 199q-27 45 -68 70q-36 28 -104 28zM717 1335
q74 -100 75 -275t-75 -278q-91 -112 -251 -111t-249 111q-74 100 -75 275t75 278q90 111 249 111t251 -111z" />
    <glyph glyph-name="ampersand" unicode="&#x26;" horiz-adv-x="1251" 
d="M305 586q-96 -101 -96 -221t93 -204q93 -83 213 -83q217 0 357 209l-364 442q-141 -75 -203 -143zM1110 647q0 -198 -86 -350l246 -297h-162l-156 190q-80 -100 -192 -159t-222 -59q-212 -1 -331 104q-63 57 -92 127q-35 72 -35 164q0 152 117 274q99 94 241 172
q-21 27 -37 47t-24 33q-29 31 -58 82q-61 91 -61 199q0 182 197 268q68 20 127 20t127 -20q199 -87 196 -277q0 -129 -90 -223q-33 -43 -90 -82q-55 -43 -107 -74l320 -385q43 77 43 246h129zM582 1354q-78 0 -138 -47q-57 -49 -57 -139t111 -234q37 -45 53 -64
q79 45 151 117q74 79 74 174q0 96 -57 146q-59 47 -137 47z" />
    <glyph glyph-name="quotesingle" unicode="'" horiz-adv-x="569" 
d="M221 1462h129v-497h-129v497z" />
    <glyph glyph-name="parenleft" unicode="(" horiz-adv-x="493" 
d="M496 1493q-261 -416 -263 -995q0 -220 72 -461q65 -221 191 -426h-103q-150 248 -213 446q-74 235 -76 488q0 494 289 948h103z" />
    <glyph glyph-name="parenright" unicode=")" horiz-adv-x="493" 
d="M260 604q0 419 -260 889h100q149 -249 214 -448q75 -229 75 -488q0 -493 -289 -946h-100q260 429 260 993z" />
    <glyph glyph-name="asterisk" unicode="*" horiz-adv-x="720" 
d="M319 1462h80v-252l236 84l31 -75l-242 -80l147 -201l-65 -47l-150 205l-149 -205l-66 47l150 201l-236 80l29 75l235 -84v252z" />
    <glyph glyph-name="plus" unicode="+" horiz-adv-x="1228" 
d="M561 1030h109v-461h460v-108h-460v-461h-109v461h-461v108h461v461z" />
    <glyph glyph-name="comma" unicode="," horiz-adv-x="569" 
d="M371 217v-217q0 -150 -101 -238q-41 -31 -80 -41v89q42 17 74 79q12 33 19 58q4 39 2 53h-86v217h172z" />
    <glyph glyph-name="hyphen" unicode="-" horiz-adv-x="757" 
d="M123 504v119h512v-119h-512z" />
    <glyph glyph-name="period" unicode="." horiz-adv-x="569" 
d="M199 0v217h172v-217h-172z" />
    <glyph glyph-name="slash" unicode="/" horiz-adv-x="681" 
d="M-25 -29l629 1522h105l-625 -1522h-109z" />
    <glyph glyph-name="zero" unicode="0" 
d="M569 1337q-125 -1 -199 -65t-110 -156q-61 -152 -61 -408q0 -257 63 -409q37 -93 110 -157q74 -64 198 -64q370 0 370 631q0 258 -63 407q-35 92 -109 156t-199 65zM570 1446q159 0 253 -70q184 -129 226 -411q20 -125 20 -257t-19 -259q-42 -282 -227 -410
q-94 -68 -252 -68t-257 69q-182 127 -224 411q-20 125 -20 257t20 257q39 280 223 411q98 70 257 70z" />
    <glyph glyph-name="one" unicode="1" 
d="M707 1434v-1434h-129v1065h-379v92q103 4 163 10q133 13 191 115q33 47 49 152h105z" />
    <glyph glyph-name="two" unicode="2" 
d="M1018 0h-944q4 196 129 336q63 72 127 119t149 106q84 53 152 103q68 45 131 108t90 125q31 61 31 140t-26 132q-82 168 -296 168q-165 0 -246 -113t-77 -286h-129q-4 113 26 205q53 190 230 266q86 37 191 37q311 0 423 -227q33 -81 33 -173q0 -172 -111 -303
q-55 -70 -115 -112q-42 -37 -144 -104t-144 -90t-101 -75q-154 -120 -176 -243h797v-119z" />
    <glyph glyph-name="three" unicode="3" 
d="M922 397q0 144 -101 226q-83 75 -243 75h-109v109h109q109 0 196 61q96 82 95 204t-93 202q-43 31 -100 49q-66 14 -134 14q-68 1 -130 -27q-121 -55 -164 -188q-23 -68 -19 -147h-129q0 102 32 187q69 184 233 247q82 37 173 37t179 -21q84 -27 143 -65q63 -47 98 -115
q39 -67 39 -175t-63 -191q-61 -88 -178 -115v-4q135 -20 219 -117q76 -101 76 -219t-39 -207q-91 -166 -267 -217q-85 -29 -193 -29q-220 0 -359 127q-68 66 -99 152q-37 88 -26 207h129q-4 -88 20 -156q20 -72 70 -119q45 -51 114 -76q63 -28 147 -28t144 20
q136 41 198 160q32 61 32 139z" />
    <glyph glyph-name="four" unicode="4" 
d="M842 1434v-969h215v-109h-215v-356h-119v356h-662v125l664 953h117zM723 465v780h-4l-541 -780h545z" />
    <glyph glyph-name="five" unicode="5" 
d="M973 1415v-119h-627l-92 -475l4 -4q53 63 137 98q83 35 179 35t185 -37t154 -102q129 -141 129 -353q-1 -207 -145 -352q-74 -68 -160 -98q-90 -37 -190 -37q-206 0 -336 117q-129 117 -137 322h129q7 -146 102 -239q96 -95 255 -94t257 120q99 111 97 276q0 80 -29 143
q-23 61 -74 117q-101 109 -275 109q-88 0 -173 -46q-86 -46 -136 -124h-110l139 743h717z" />
    <glyph glyph-name="six" unicode="6" 
d="M940 446q0 74 -22 148q-25 70 -70 121q-88 110 -256 110q-82 1 -151 -29t-109 -81q-49 -51 -70 -121q-24 -68 -24 -148q1 -165 91 -267q90 -103 267 -101q74 0 141 28q66 33 107 82q44 45 70 115q26 69 26 143zM211 696h4q51 106 154 172q106 66 221 66t201 -37
q169 -63 245 -250q33 -94 33 -196t-37 -189q-29 -80 -98 -156q-76 -70 -156 -98q-86 -37 -208 -37t-212 41q-185 72 -247 365q-29 147 -29 354q0 241 82 420q31 82 90 147q124 148 329 148t317 -92t134 -283h-129q-14 117 -94 192t-206 75t-203 -66q-191 -160 -191 -576z
" />
    <glyph glyph-name="seven" unicode="7" 
d="M104 1415h922v-119q-66 -70 -162 -186q-214 -274 -340 -651q-66 -213 -78 -459h-139q25 380 160 659q63 147 176 312q106 162 254 325h-793v119z" />
    <glyph glyph-name="eight" unicode="8" 
d="M827 156q107 91 107 247t-111 232q-43 37 -114 61q-72 18 -142 18q-153 1 -254 -75q-109 -96 -108 -248t106 -231q95 -82 254 -82t262 78zM1004 1074q0 -106 -62 -185q-59 -82 -172 -117v-4q141 -27 217 -125q76 -89 76 -221q0 -327 -301 -424q-88 -27 -192 -27
q-206 0 -350 110t-144 320q2 139 79 241t212 126v4q-113 33 -173 116t-60 188q-1 178 136 284q55 39 140 65q161 38 315 0q165 -53 242 -178q37 -67 37 -173zM786 1274q-78 63 -210 63t-223 -65t-91 -188t96 -203q81 -65 211 -60q61 -4 115 15q53 12 98 47q94 81 92 204
q0 59 -22 109q-25 47 -66 78z" />
    <glyph glyph-name="nine" unicode="9" 
d="M547 590q81 0 151 30t109 80q96 104 95 272q-1 167 -87 257q-89 110 -272 108q-74 1 -140 -29t-108 -79q-98 -102 -96 -260q0 -74 22 -148q50 -139 176 -203q70 -28 150 -28zM534 78q126 0 203 63q142 124 176 367q14 106 15 211h-4q-52 -109 -156 -173t-216 -65
q-112 0 -202 36q-172 69 -248 251q-70 199 4 387q35 88 101 154q67 65 153 101t208 36t212 -41q277 -105 277 -721q0 -238 -82 -422q-31 -82 -90 -143q-53 -66 -139 -107t-201 -41q-190 0 -305 90q-113 92 -136 283h129q15 -118 95 -192t206 -74z" />
    <glyph glyph-name="colon" unicode=":" horiz-adv-x="569" 
d="M199 807v217h172v-217h-172zM199 0v217h172v-217h-172z" />
    <glyph glyph-name="semicolon" unicode=";" horiz-adv-x="569" 
d="M371 217v-217q0 -150 -101 -238q-41 -31 -80 -41v89q42 17 74 79q12 33 19 58q4 39 2 53h-86v217h172zM199 807v217h172v-217h-172z" />
    <glyph glyph-name="less" unicode="&#x3c;" horiz-adv-x="1228" 
d="M1135 -14l-1041 477v110l1041 480v-113l-914 -422l914 -422v-110z" />
    <glyph glyph-name="equal" unicode="=" horiz-adv-x="1228" 
d="M1130 666h-1030v108h1030v-108zM1130 262h-1030v109h1030v-109z" />
    <glyph glyph-name="greater" unicode="&#x3e;" horiz-adv-x="1228" 
d="M1008 518l-914 422v113l1041 -480v-110l-1041 -477v110z" />
    <glyph glyph-name="question" unicode="?" horiz-adv-x="1099" 
d="M111 1012q0 224 122 348q120 133 342 133q170 0 293 -100q123 -105 123 -279q0 -115 -59 -207t-219 -239q-72 -68 -82 -156q-4 -41 -8 -145h-129q-4 183 51 272q25 53 73 98q40 41 102 99q142 131 142 272q0 57 -22 113q-27 55 -66 86q-77 77 -205 77q-163 0 -250 -106
q-83 -107 -79 -266h-129zM473 217h172v-217h-172v217z" />
    <glyph glyph-name="at" unicode="@" horiz-adv-x="1638" 
d="M524 571q0 -92 48 -145t121 -53t137 52t104 120q43 63 72 150q48 145 14 231q-57 118 -140 118q-82 0 -151 -47q-57 -43 -111 -116q-94 -161 -94 -310zM1434 880q0 102 -45 210q-49 102 -127 167q-160 144 -425 144t-449 -195q-183 -195 -183 -483q0 -139 50 -262
t135 -210t204 -138q120 -51 230 -51q278 -1 456 159q59 51 104 113h105q-47 -86 -117 -152q-72 -72 -152 -116q-171 -94 -349 -95q-177 0 -320 58q-147 66 -240 164q-98 94 -156 238t-59 306q0 162 60 299q55 137 159 238q102 104 240 160q133 59 290 59t277 -47
q123 -41 218 -128q202 -185 202 -462q0 -123 -41 -229q-85 -220 -264 -320q-85 -45 -153 -45q-142 0 -154 137h-4q-45 -47 -114 -91t-138 -44q-130 0 -203 85t-75 199q-2 238 132 415q61 82 154 139q92 51 177 51t147 -39q59 -43 92 -133l51 133h108l-196 -590
q-24 -88 -23 -113q3 -55 49 -57q67 0 131 46t111 122q105 171 105 358z" />
    <glyph glyph-name="A" unicode="A" horiz-adv-x="1290" 
d="M575 1462h156l574 -1462h-150l-178 455h-666l-176 -455h-147zM354 573h576l-283 750z" />
    <glyph glyph-name="B" unicode="B" horiz-adv-x="1366" 
d="M1151 420q0 284 -385 282h-479v-583h479q278 0 354 155q31 55 31 146zM147 1462h619q324 0 430 -188q39 -66 39 -146q0 -148 -72 -235q-27 -37 -78 -74q-51 -31 -104 -43v-4q143 -18 225 -117q84 -96 84 -239q0 -85 -30 -170q-47 -113 -146 -168q-49 -29 -143 -58
q-96 -20 -205 -20h-619v1462zM287 821h479q156 0 248 72q80 73 82 176q0 274 -330 274h-479v-522z" />
    <glyph glyph-name="C" unicode="C" horiz-adv-x="1441" 
d="M217 732q0 -269 131 -441q62 -91 168 -147t229 -56q223 0 349 137q128 147 143 332h139q-31 -269 -189 -427q-159 -159 -419 -159q-172 1 -302 63q-255 123 -345 408q-43 139 -43 289q0 321 172 531q187 231 518 231q216 0 383 -121q172 -125 205 -352h-139
q-35 164 -164 262q-55 43 -131 70q-78 23 -154 22q-144 0 -250 -55t-170 -148q-68 -88 -98 -204q-33 -111 -33 -235z" />
    <glyph glyph-name="D" unicode="D" horiz-adv-x="1402" 
d="M287 119h297q147 0 272 33q231 77 295 299q35 121 35 281q0 328 -144 470q-70 70 -186 109q-125 33 -272 32h-297v-1224zM147 1462h506q338 -10 502 -188q170 -176 170 -543t-170 -543q-164 -178 -502 -188h-506v1462z" />
    <glyph glyph-name="E" unicode="E" horiz-adv-x="1214" 
d="M147 1462h1010v-119h-870v-528h815v-119h-815v-577h880v-119h-1020v1462z" />
    <glyph glyph-name="F" unicode="F" horiz-adv-x="1099" 
d="M147 1462h928v-119h-788v-528h700v-119h-700v-696h-140v1462z" />
    <glyph glyph-name="G" unicode="G" horiz-adv-x="1517" 
d="M1397 0h-101l-18 266h-4q-35 -74 -90 -135q-157 -157 -415 -159q-173 0 -303 62q-255 123 -345 408q-43 139 -43 289q0 321 172 531q86 106 215 168t273 63q267 0 434 -128q166 -128 206 -357h-139q-6 66 -43 127q-31 61 -94 118q-68 57 -146 86q-78 35 -206 35t-232 -55
q-106 -55 -170 -148q-68 -88 -98 -204q-33 -111 -33 -235q0 -269 131 -441q62 -91 168 -147t238 -56t229 41q189 79 260 281q35 98 31 215h-498v118h621v-743z" />
    <glyph glyph-name="H" unicode="H" horiz-adv-x="1441" 
d="M147 1462h140v-635h868v635h139v-1462h-139v709h-868v-709h-140v1462z" />
    <glyph glyph-name="I" unicode="I" horiz-adv-x="454" 
d="M158 1462h139v-1462h-139v1462z" />
    <glyph glyph-name="J" unicode="J" horiz-adv-x="1024" 
d="M737 1462h140v-1054q0 -233 -101 -335t-325 -102q-123 0 -205 41q-156 86 -187 271q-16 94 -16 186h139q2 -41 5 -109q7 -155 112 -229q55 -43 153 -43t146 23q49 18 84 65q55 87 55 291v995z" />
    <glyph glyph-name="K" unicode="K" horiz-adv-x="1327" 
d="M147 1462h140v-786l850 786h188l-653 -604l684 -858h-180l-609 762l-280 -260v-502h-140v1462z" />
    <glyph glyph-name="L" unicode="L" horiz-adv-x="1099" 
d="M147 1462h140v-1343h819v-119h-959v1462z" />
    <glyph glyph-name="M" unicode="M" horiz-adv-x="1681" 
d="M1542 1462v-1462h-139v1264h-4l-500 -1264h-131l-481 1264h-4v-1264h-140v1462h205l486 -1282l503 1282h205z" />
    <glyph glyph-name="N" unicode="N" horiz-adv-x="1441" 
d="M145 1462h156l852 -1237h4v1237h139v-1462h-155l-852 1237h-4v-1237h-140v1462z" />
    <glyph glyph-name="O" unicode="O" horiz-adv-x="1517" 
d="M70 731q0 321 172 531q187 231 518 231q335 0 516 -231q172 -208 172 -530t-172 -531q-84 -101 -214 -165t-302 -64t-302 62q-255 123 -345 408q-43 139 -43 289zM209 732q0 -269 131 -441q62 -91 168 -147t252 -56q272 0 420 203q63 88 98 205q31 118 31 238t-33 235
q-70 243 -268 350q-102 55 -248 55q-281 0 -420 -203q-68 -88 -98 -204q-33 -111 -33 -235z" />
    <glyph glyph-name="P" unicode="P" horiz-adv-x="1290" 
d="M147 1462h650q104 0 178 -28q76 -23 137 -82q119 -106 119 -308q0 -201 -119 -307q-61 -59 -137 -82q-74 -29 -178 -28h-510v-627h-140v1462zM287 745h479q147 0 236 74q90 73 90 225t-90 226t-236 73h-479v-598z" />
    <glyph glyph-name="Q" unicode="Q" horiz-adv-x="1517" 
d="M1309 731q0 123 -33 238q-70 243 -268 350q-102 55 -248 55q-281 0 -420 -203q-68 -88 -98 -204q-33 -111 -33 -235q0 -269 131 -441q139 -203 425 -203q151 0 265 72l-192 145l71 88l213 -162q187 175 187 500zM1448 731q0 -368 -221 -579l209 -158l-70 -86l-227 170
q-150 -106 -379 -107q-172 1 -302 63q-255 123 -345 408q-43 139 -43 289q0 321 172 531q187 231 518 231q335 0 516 -231q172 -208 172 -531z" />
    <glyph glyph-name="R" unicode="R" horiz-adv-x="1366" 
d="M1118 111q-6 30 -6 65t-4 51q-4 88 -14 154q-6 70 -37 139q-71 136 -242 129h-528v-649h-140v1462h670q189 0 313 -90q132 -111 132 -291q0 -139 -72 -242t-213 -130v-4q66 -8 119 -37q52 -35 78 -74t42 -99q18 -70 23 -213t27 -208q12 -45 34 -74h-153q-29 46 -29 111z
M287 768h520q61 0 121 18q118 46 170 148q25 49 24 119q0 135 -78 213t-237 77h-520v-575z" />
    <glyph glyph-name="S" unicode="S" horiz-adv-x="1290" 
d="M348 172q123 -84 299 -84t295 68q135 90 135 220q0 72 -28 116q-40 75 -168 126q-53 18 -105 31l-325 80q-146 35 -230 107q-39 33 -74 100q-51 118 -6 270q23 72 76 135q55 61 155 107t228 45q382 0 522 -256q43 -86 43 -199h-139q-4 86 -39 146q-29 59 -86 106
q-63 45 -127 62q-106 40 -287 8q-227 -62 -227 -277q0 -51 16 -87q36 -78 121 -109q45 -18 84 -27l357 -88q86 -24 148 -50t118 -74q55 -48 84 -107q29 -68 29 -154q0 -73 -29 -154q-27 -55 -58 -92q-35 -47 -98 -84q-61 -41 -153 -61q-91 -25 -219 -25t-242 30
q-232 61 -307 249q-43 96 -37 231h139q-4 -204 135 -309z" />
    <glyph glyph-name="T" unicode="T" 
d="M-8 1462h1157v-119h-510v-1343h-139v1343h-508v119z" />
    <glyph glyph-name="U" unicode="U" horiz-adv-x="1402" 
d="M133 1462h139v-905q0 -363 246 -443q80 -26 183 -26t183 26t135 82q113 117 111 361v905h140v-936q0 -242 -131 -391q-151 -164 -439 -164q-156 0 -258 45q-109 43 -176 119q-68 72 -102 176q-31 104 -31 215v936z" />
    <glyph glyph-name="V" unicode="V" horiz-adv-x="1214" 
d="M-12 1462h147l475 -1308h4l471 1308h148l-543 -1462h-162z" />
    <glyph glyph-name="W" unicode="W" horiz-adv-x="1857" 
d="M0 1462h150l331 -1280h4l357 1280h174l358 -1280h4l334 1280h139l-403 -1462h-148l-370 1309h-4l-369 -1309h-151z" />
    <glyph glyph-name="X" unicode="X" horiz-adv-x="1175" 
d="M6 1462h164l414 -612l428 612h155l-499 -712l528 -750h-168l-444 645l-451 -645h-156l525 754z" />
    <glyph glyph-name="Y" unicode="Y" horiz-adv-x="1251" 
d="M694 0h-139v602l-573 860h163l482 -741l479 741h166l-578 -860v-602z" />
    <glyph glyph-name="Z" unicode="Z" horiz-adv-x="1175" 
d="M76 1462h1052v-123l-962 -1220h983v-119h-1139v123l963 1220h-897v119z" />
    <glyph glyph-name="bracketleft" unicode="[" horiz-adv-x="493" 
d="M156 -389v1882h329v-109h-200v-1665h200v-108h-329z" />
    <glyph glyph-name="backslash" unicode="\" horiz-adv-x="681" 
d="M598 -29l-623 1522h103l631 -1522h-111z" />
    <glyph glyph-name="bracketright" unicode="]" horiz-adv-x="493" 
d="M338 1493v-1882h-330v108h201v1665h-201v109h330z" />
    <glyph glyph-name="asciicircum" unicode="^" horiz-adv-x="1228" 
d="M90 487l471 928h107l471 -928h-117l-410 799l-403 -799h-119z" />
    <glyph glyph-name="underscore" unicode="_" horiz-adv-x="1024" 
d="M0 -254v102h1024v-102h-1024z" />
    <glyph glyph-name="grave" unicode="`" horiz-adv-x="378" 
d="M-61 1493h157l215 -289h-104z" />
    <glyph glyph-name="a" unicode="a" horiz-adv-x="1062" 
d="M799 578h-4q-14 -25 -70 -39q-55 -15 -171 -29q-237 -30 -312 -104q-47 -40 -47 -104q0 -114 71 -167q61 -57 148 -57q177 0 274 88q111 89 111 244v168zM949 0q-37 0 -68 12q-60 32 -66 99q-6 31 -6 73h-4q-33 -53 -72 -90q-100 -120 -313 -123q-247 0 -328 169
q-26 56 -26 153q1 179 180 254q72 31 150 42t174 21t132 18t54 23q42 25 42 120q0 52 -20 97q-26 44 -60 66t-87 37q-70 8 -109 8q-121 0 -200 -57q-80 -63 -82 -189h-129q23 354 420 354t397 -339v-562q0 -78 76 -77q25 0 40 8v-109q-58 -8 -95 -8z" />
    <glyph glyph-name="b" unicode="b" horiz-adv-x="1175" 
d="M969 527q1 81 -19 162q-43 180 -170 249q-62 41 -164 41t-165 -41q-131 -65 -181 -246q-18 -84 -18 -165t18 -162q51 -183 181 -246q63 -41 165 -41t164 41q126 71 170 247q20 80 19 161zM123 1462h129v-606h4q45 114 145 172q96 59 221 59q227 0 359 -165
q117 -160 117 -394t-117 -393q-61 -78 -150 -119q-85 -45 -211 -45t-227 60q-100 55 -147 170h-4v-201h-119v1462z" />
    <glyph glyph-name="c" unicode="c" horiz-adv-x="1062" 
d="M569 1087q168 0 287 -89t141 -273h-129q-58 254 -299 254q-168 0 -278 -141q-139 -213 -70 -473q23 -74 70 -146q110 -141 278 -141q57 0 113 22t94 64q89 80 101 215h129q-27 -190 -142 -301q-117 -106 -295 -107q-123 0 -215 44q-179 86 -252 296q-33 100 -32 217
q0 242 129 394q137 165 370 165z" />
    <glyph glyph-name="d" unicode="d" horiz-adv-x="1175" 
d="M207 527q0 -81 19 -161q42 -177 169 -247q61 -41 164 -41t166 41q132 66 180 246q36 166 0 327q-51 184 -180 246q-63 41 -165 41t-165 -41q-122 -69 -170 -246q-18 -84 -18 -165zM1053 0h-119v201h-4q-23 -55 -62 -95q-35 -42 -93 -74q-106 -59 -227 -60
q-120 -1 -204 44q-88 41 -149 119q-119 163 -118 395q1 233 118 392q59 76 146 120t181 45q156 0 252 -59q102 -58 146 -172h4v606h129v-1462z" />
    <glyph glyph-name="e" unicode="e" horiz-adv-x="1062" 
d="M549 1087q127 0 218 -53t142 -133q55 -76 81 -185t22 -222h-813q0 -68 18 -146q44 -151 172 -231q63 -39 158 -39q141 0 221 74t111 196h129q-82 -375 -461 -377q-235 0 -365 164q-61 84 -84 180q-28 92 -28 208q2 382 262 517q90 47 217 47zM301 864q-45 -57 -68 -123
q-25 -59 -34 -139h684q-8 150 -92 262q-102 115 -244 115t-246 -115z" />
    <glyph glyph-name="f" unicode="f" horiz-adv-x="530" 
d="M322 1149v-92h208v-109h-208v-948h-129v948h-181v109h181v96q0 155 49 223q59 88 207 86q48 0 108 -8v-111q-33 4 -49 9l-45 2q-94 0 -123 -60q-18 -41 -18 -145z" />
    <glyph glyph-name="g" unicode="g" 
d="M801 250q47 68 63 135q23 70 23 153q0 171 -78 300q-35 57 -104 102q-66 39 -159 39q-172 0 -265 -137q-82 -118 -82 -297t84 -295q102 -129 257 -129q156 0 261 129zM1016 86q0 -372 -250 -471q-94 -35 -196 -35q-202 0 -316 76q-63 43 -98 98q-41 57 -47 146h129
q16 -107 110 -164q78 -47 199 -47q180 0 260 102t80 295v143h-4q-47 -102 -134 -159q-87 -58 -207 -58q-229 -1 -362 158q-112 149 -111 381t124 379q63 76 151 114q86 43 203 43q168 0 284 -131q37 -47 52 -82h4v183h129v-971z" />
    <glyph glyph-name="h" unicode="h" horiz-adv-x="1099" 
d="M121 1462h129v-588h4q39 100 131 154q93 59 203 59q209 0 309 -108q82 -100 82 -299v-680h-129v659q0 150 -55 228q-65 92 -216 92q-79 0 -137 -29q-55 -23 -102 -73q-41 -51 -66 -115q-20 -68 -24 -146v-616h-129v1462z" />
    <glyph glyph-name="i" unicode="i" horiz-adv-x="378" 
d="M125 1057h129v-1057h-129v1057zM125 1462h129v-207h-129v207z" />
    <glyph glyph-name="j" unicode="j" horiz-adv-x="378" 
d="M-25 -283q23 0 33 2q74 0 96 43q20 43 21 111v1184h129v-1153q0 -43 -8 -113q-29 -120 -107 -156q-43 -25 -110 -24l-88 4v106q11 -4 34 -4zM125 1462h129v-207h-129v207z" />
    <glyph glyph-name="k" unicode="k" horiz-adv-x="1024" 
d="M123 1462h129v-917l586 512h172l-451 -391l481 -666h-161l-418 575l-209 -174v-401h-129v1462z" />
    <glyph glyph-name="l" unicode="l" horiz-adv-x="378" 
d="M125 1462h129v-1462h-129v1462z" />
    <glyph glyph-name="m" unicode="m" horiz-adv-x="1705" 
d="M248 879q112 208 336 208q116 0 201 -52t112 -154q45 102 137 154t199 52q350 0 350 -370v-717h-129v711q0 131 -55 199t-195 69q-223 0 -274 -238q-12 -70 -12 -143v-598h-130v717q0 259 -221 262q-157 0 -236 -107t-79 -282v-590h-129v1057h119v-178h6z" />
    <glyph glyph-name="n" unicode="n" horiz-adv-x="1099" 
d="M121 1057h129v-183h4q39 100 131 154q93 59 203 59q209 0 309 -108q82 -100 82 -299v-680h-129v659q0 150 -55 228q-65 92 -216 92q-79 0 -137 -29q-55 -23 -102 -73q-41 -51 -66 -115q-20 -68 -24 -146v-616h-129v1057z" />
    <glyph glyph-name="o" unicode="o" 
d="M569 -29q-123 0 -215 44q-179 86 -252 296q-33 100 -32 217q0 242 129 394q137 165 368 165q232 0 367 -159q135 -160 135 -400q0 -241 -129 -393q-63 -76 -158 -119q-90 -45 -213 -45zM570 979q-169 0 -279 -141q-139 -213 -70 -473q23 -74 70 -146q111 -141 279 -141
q169 0 278 141q138 212 70 473q-23 74 -70 146q-109 141 -278 141z" />
    <glyph glyph-name="p" unicode="p" horiz-adv-x="1175" 
d="M969 527q1 81 -19 162q-43 180 -170 249q-61 41 -162 41q-195 0 -288 -135q-78 -109 -78 -312q0 -86 18 -167q51 -183 181 -246q63 -41 165 -41t164 41q126 71 170 247q20 80 19 161zM123 1057h119v-201h4q47 113 147 172q99 59 227 59q228 0 361 -165q117 -160 117 -394
t-117 -393q-61 -78 -150 -119q-84 -45 -208 -45q-194 0 -308 129q-37 41 -59 101h-4v-590h-129v1446z" />
    <glyph glyph-name="q" unicode="q" horiz-adv-x="1175" 
d="M207 527q0 -81 19 -161q42 -177 169 -247q61 -41 164 -41t166 41q132 66 180 246q36 166 0 327q-51 184 -180 246q-63 41 -165 41t-165 -41q-122 -69 -170 -246q-18 -84 -18 -165zM1053 -389h-129v590h-4q-45 -116 -146 -172q-95 -56 -220 -57q-126 -1 -210 44
q-88 41 -149 119q-119 163 -118 395q1 233 118 392q128 165 358 165q122 0 224 -62q56 -34 91 -75q37 -35 62 -94h4v201h119v-1446z" />
    <glyph glyph-name="r" unicode="r" horiz-adv-x="645" 
d="M123 1057h119v-248h4q49 127 151 198t248 64v-129q-96 4 -160 -24q-68 -23 -125 -78q-108 -116 -108 -277v-563h-129v1057z" />
    <glyph glyph-name="s" unicode="s" horiz-adv-x="985" 
d="M492 979q-42 0 -99 -8q-55 -14 -82 -33q-82 -42 -82 -141q0 -41 21 -72q43 -53 127 -86q27 -8 72 -21l172 -38q68 -10 108 -31q110 -36 166 -141q27 -51 27 -130q0 -146 -140 -237q-105 -67 -289 -69q-183 -1 -299 88t-131 282h130q8 -131 94 -199q90 -66 217 -65
q170 0 262 106q27 42 27 92q0 90 -72 134q-54 39 -160 61l-166 37q-37 8 -116 37q-57 27 -95 53q-40 39 -62 84t-22 116t35 130q69 110 221 143q78 16 151 16q161 0 259 -83q53 -41 85 -108t34 -148h-129q-4 111 -84 176q-78 55 -180 55z" />
    <glyph glyph-name="t" unicode="t" horiz-adv-x="606" 
d="M199 948h-185v109h185v317h129v-317h215v-109h-215v-712q0 -61 16 -101q20 -37 82 -38t117 5v-108l-115 -4q-129 0 -180 50t-49 185v723z" />
    <glyph glyph-name="u" unicode="u" horiz-adv-x="1099" 
d="M979 0h-119v190h-4q-51 -106 -147 -162q-95 -56 -207 -56q-205 -1 -293 103q-88 105 -88 296v686h129v-688q2 -141 65 -217q66 -74 217 -74q86 0 142 35q118 73 157 231q18 80 19 158v555h129v-1057z" />
    <glyph glyph-name="v" unicode="v" horiz-adv-x="948" 
d="M4 1057h143l332 -928h4l328 928h133l-395 -1057h-137z" />
    <glyph glyph-name="w" unicode="w" horiz-adv-x="1517" 
d="M16 1057h138l270 -905h4l258 905h145l259 -905h4l270 905h137l-340 -1057h-141l-260 889h-4l-258 -889h-142z" />
    <glyph glyph-name="x" unicode="x" horiz-adv-x="985" 
d="M412 549l-379 508h162l301 -402l295 402h161l-381 -506l412 -551h-164l-332 444l-325 -444h-160z" />
    <glyph glyph-name="y" unicode="y" horiz-adv-x="948" 
d="M152 -279l45 -2q76 0 118 48q18 15 66 118l45 119l-422 1053h137l348 -901l326 901h129l-459 -1217q-56 -137 -108 -180q-29 -29 -70 -37q-37 -12 -100 -12l-60 4q-25 0 -38 6v109q33 -4 43 -9z" />
    <glyph glyph-name="z" unicode="z" horiz-adv-x="948" 
d="M913 109v-109h-882v104l690 844h-643v109h807v-92l-699 -856h727z" />
    <glyph glyph-name="braceleft" unicode="{" horiz-adv-x="681" 
d="M446 885q0 -234 -143 -332v-4q44 -30 77 -80q66 -104 66 -252v-287q0 -89 25 -147q18 -33 37 -45q18 -18 51 -19h41v-108h-102q-88 0 -134 71t-47 185v301q0 328 -147 328v108q147 0 147 328v305q1 115 47 185t134 71h102v-109h-41q-107 0 -113 -210v-289z" />
    <glyph glyph-name="bar" unicode="|" horiz-adv-x="454" 
d="M174 1610h109v-2046h-109v2046z" />
    <glyph glyph-name="braceright" unicode="}" horiz-adv-x="681" 
d="M123 -281q108 0 113 211v287q0 142 61 246q38 56 82 86v4q-44 30 -77 80q-66 104 -66 252v289q0 97 -27 145q-10 27 -33 49q-27 16 -53 16h-41v109h102q88 0 134 -71t47 -185v-303q0 -328 147 -328v-108q-147 0 -147 -328v-303q-1 -115 -47 -185t-134 -71h-102v108h41z
" />
    <glyph glyph-name="asciitilde" unicode="~" horiz-adv-x="1228" 
d="M307 623q43 14 104 14t222 -66q140 -67 201 -67t105 46t75 95l73 -74q-45 -73 -86 -106q-41 -32 -83 -55q-107 -32 -192 2q-84 33 -112 47q-136 69 -234 69t-165 -141l-74 74q10 23 39 63q35 61 127 99z" />
    <glyph glyph-name="uni007F" horiz-adv-x="0" 
 />
  </font>
</defs>
</svg>
