<?xml version="1.0" standalone="no"?>
<!DOCTYPE svg PUBLIC "-//W3C//DTD SVG 1.1//EN" "http://www.w3.org/Graphics/SVG/1.1/DTD/svg11.dtd" >
<svg xmlns="http://www.w3.org/2000/svg">
<metadata></metadata>
<defs>
<font id="franklingothicurwdemregular" horiz-adv-x="1201" vert-adv-y="2048" >
<font-face units-per-em="2048" ascent="1707" descent="-341" />
<missing-glyph horiz-adv-x="512" />
<glyph horiz-adv-x="2048" vert-adv-y="0" />
<glyph horiz-adv-x="2048" vert-adv-y="0" />
<glyph unicode="&#xd;" horiz-adv-x="2048" vert-adv-y="0" />
<glyph unicode=" " horiz-adv-x="512" vert-adv-y="2457" />
<glyph unicode="!" horiz-adv-x="602" vert-adv-y="2457" d="M109 1365h383l-99 -957h-184zM144 0v315h315v-315h-315z" />
<glyph unicode="&#x22;" horiz-adv-x="759" vert-adv-y="2457" d="M77 1365h242l-36 -568h-171zM439 1365h242l-35 -568h-171z" />
<glyph unicode="#" vert-adv-y="2457" d="M70 421l35 199h218l27 154h-214l34 198h215l69 393h199l-69 -393h157l69 393h202l-70 -393h190l-35 -198h-190l-27 -154h193l-35 -199h-193l-74 -421h-202l74 421h-156l-75 -421h-198l74 421h-218zM522 620h157l27 154h-157z" />
<glyph unicode="$" vert-adv-y="2457" d="M48 387l275 63q51 -177 257 -177q125 0 179 64q25 30 25 69q0 44 -29 73q-29 28 -70 41q-49 16 -122 31q-196 40 -295 98q-154 93 -154 291q0 140 83 243q104 129 290 155v158h161v-156q119 -13 198 -53q106 -54 164 -151q18 -31 42 -91l-253 -84q-29 71 -61 101 q-53 49 -160 49q-172 0 -172 -113q0 -60 52 -93q36 -21 129 -40q138 -28 204 -49q140 -43 216 -136q79 -96 79 -223q0 -168 -125 -290q-111 -108 -313 -127v-190h-161v190q-130 13 -225 65q-110 61 -165 157q-25 42 -49 125z" />
<glyph unicode="%" horiz-adv-x="1412" vert-adv-y="2457" d="M58 1023q0 154 75 255q72 97 206 97t207 -96q77 -102 77 -259q0 -151 -78 -252q-72 -95 -206 -95q-131 0 -202 93q-79 102 -79 257zM241 1029q0 -141 28 -190q23 -39 72 -39q50 0 74 46q25 47 25 173q0 105 -14 161q-19 72 -85 72q-67 0 -86 -72q-14 -51 -14 -151zM249 0 l756 1365h152l-757 -1365h-151zM788 341q0 153 75 254q72 97 207 97q134 0 206 -96q78 -102 78 -259q0 -151 -78 -252q-73 -95 -207 -95q-131 0 -202 93q-79 102 -79 258zM971 346q0 -142 28 -190q23 -39 72 -39q51 0 75 46q25 48 25 172q0 106 -14 162q-19 72 -86 72 t-86 -72q-14 -51 -14 -151z" />
<glyph unicode="&#x26;" horiz-adv-x="1470" vert-adv-y="2457" d="M58 403q0 176 137 287q72 57 201 108q-60 79 -82 118q-43 75 -43 156q0 156 130 243q115 77 290 77q164 0 272 -75q134 -93 134 -264q0 -145 -100 -235q-57 -51 -156 -95l191 -209q84 97 121 270l283 -39q-25 -105 -52 -165q-68 -149 -170 -270q65 -63 140 -63q26 0 82 6 v-243q-78 -19 -136 -19q-112 0 -189 41q-47 26 -107 90q-93 -71 -164 -101q-114 -48 -264 -48q-236 0 -369 112q-64 53 -104 134q-45 91 -45 184zM399 426q0 -95 74 -155q57 -45 139 -45q117 0 227 81l-279 310q-71 -28 -103 -55q-58 -51 -58 -136zM572 1082q0 -57 74 -133 l57 -59q146 59 146 159q0 64 -49 105q-37 31 -99 31q-57 0 -92 -28q-37 -29 -37 -75z" />
<glyph unicode="'" horiz-adv-x="396" vert-adv-y="2457" d="M77 1365h242l-36 -568h-171z" />
<glyph unicode="(" horiz-adv-x="601" vert-adv-y="2457" d="M45 511q0 462 291 854h217q-109 -188 -159 -351q-76 -244 -76 -513q0 -241 75 -490q58 -191 155 -352h-218q-285 408 -285 852z" />
<glyph unicode=")" horiz-adv-x="601" vert-adv-y="2457" d="M47 -341q109 188 160 351q75 244 75 513q0 241 -75 490q-58 191 -155 352h218q286 -409 286 -853q0 -462 -291 -853h-218z" />
<glyph unicode="*" horiz-adv-x="1202" vert-adv-y="2457" d="M148 961l79 220l278 -121l-26 305h239l-30 -305l293 121l72 -220l-299 -70l198 -225l-198 -140l-157 263l-155 -263l-201 140l201 225z" />
<glyph unicode="+" vert-adv-y="2457" d="M95 581v218h397v412h217v-412h398v-218h-398v-412h-217v412h-397z" />
<glyph unicode="," horiz-adv-x="527" vert-adv-y="2457" d="M109 0v310h310v-280l-200 -349h-110l155 319h-155z" />
<glyph unicode="-" horiz-adv-x="527" vert-adv-y="2457" d="M25 411v217h478v-217h-478z" />
<glyph unicode="." horiz-adv-x="527" vert-adv-y="2457" d="M109 0v309h309v-309h-309z" />
<glyph unicode="/" horiz-adv-x="1096" vert-adv-y="2457" d="M-134 -341l975 1706h201l-973 -1706h-203z" />
<glyph unicode="0" vert-adv-y="2457" d="M68 681q0 202 67 370q132 334 464 334q252 0 388 -191q147 -205 147 -520q0 -199 -71 -368q-137 -326 -465 -326q-248 0 -381 184q-149 208 -149 517zM400 694q0 -292 56 -393q46 -85 147 -85q102 0 152 100q49 98 49 356q0 212 -28 329q-37 155 -178 155 q-105 0 -153 -105q-45 -96 -45 -357z" />
<glyph unicode="1" vert-adv-y="2457" d="M91 0v250h414v780q-231 -139 -380 -203v281q182 55 290 122q77 47 118 87q22 21 54 69h232v-1136h378v-250h-1106z" />
<glyph unicode="2" vert-adv-y="2457" d="M65 0v265q64 48 248 179q118 83 263 212q117 104 156 171q35 61 35 124q0 83 -55 135q-50 47 -133 47q-200 0 -232 -261l-282 62q95 451 531 451q155 0 252 -48q120 -58 186 -164q59 -95 59 -218q0 -167 -121 -306q-98 -113 -316 -254q-73 -48 -197 -123h653l-23 -272 h-1024z" />
<glyph unicode="3" vert-adv-y="2457" d="M36 395l290 42q24 -99 70 -145q67 -66 176 -66q93 0 150 49q60 50 60 135q0 96 -71 145q-46 31 -188 31h-125v239h144q119 0 167 52q44 48 44 108q0 75 -60 125q-47 40 -125 40q-102 0 -158 -66q-29 -34 -50 -108l-283 46q23 85 54 135q76 121 210 181q103 47 239 47 q199 0 339 -94q147 -97 147 -272q0 -221 -235 -303q114 -31 174 -85q102 -92 102 -240q0 -205 -172 -319q-138 -92 -356 -92q-173 0 -284 58q-157 82 -223 233q-20 45 -36 124z" />
<glyph unicode="4" vert-adv-y="2457" d="M47 315v239l551 832h365v-832h191v-239h-191v-315h-319v315h-597zM288 554h371v462q0 13 3 65q0 19 2 56z" />
<glyph unicode="5" vert-adv-y="2457" d="M76 367l300 45q20 -75 54 -111q64 -69 174 -69q107 0 168 70q51 60 51 138q0 101 -77 165q-60 49 -138 49q-128 0 -197 -106l-261 43l54 774h860l-35 -280h-596l-22 -304q51 51 94 73q85 44 197 44q187 0 314 -122q129 -123 129 -314q0 -236 -166 -371 q-138 -111 -366 -111q-237 0 -385 126q-87 75 -126 176q-11 28 -26 85z" />
<glyph unicode="6" vert-adv-y="2457" d="M80 674q0 171 49 322q63 193 202 298q122 92 310 92q223 0 357 -138q86 -89 118 -228l-275 -73q-19 91 -53 136q-54 74 -150 74q-161 0 -217 -203q-24 -90 -24 -217v-36q97 156 306 156q182 0 304 -116q129 -124 129 -303q0 -127 -71 -241q-135 -217 -428 -217 q-308 0 -458 256q-50 86 -77 216q-22 110 -22 222zM413 421q0 -101 68 -162q57 -51 137 -51q103 0 161 78q43 56 43 137q0 104 -64 160q-61 54 -137 54q-82 0 -144 -58q-64 -60 -64 -158z" />
<glyph unicode="7" vert-adv-y="2457" d="M117 1082l24 283h955v-244q-79 -90 -137 -186q-154 -258 -199 -452q-51 -219 -51 -383q0 -33 4 -100h-366q3 186 36 320q70 280 246 547q72 109 180 215h-692z" />
<glyph unicode="8" vert-adv-y="2457" d="M60 369q0 133 88 213q54 50 156 90q-93 56 -134 111q-64 88 -64 199q0 121 74 223q131 180 430 180q205 0 341 -93q145 -99 145 -267q0 -137 -100 -225q-34 -29 -106 -63q93 -42 146 -87q107 -92 107 -249q0 -197 -162 -316q-142 -105 -403 -105q-252 0 -393 116 q-125 105 -125 273zM348 382q0 -97 80 -145q64 -39 172 -39q144 0 207 69q27 30 27 77q0 101 -124 155q-56 24 -192 71q-78 -26 -114 -58q-56 -52 -56 -130zM411 1033q0 -91 104 -142q52 -26 118 -49q46 -16 47 -16q68 23 97 58q40 47 40 115q0 85 -61 133q-59 47 -158 47 q-85 0 -133 -37q-54 -41 -54 -109z" />
<glyph unicode="9" vert-adv-y="2457" d="M73 931q0 202 133 327q135 128 368 128q256 0 388 -163q153 -188 153 -521q0 -319 -151 -529q-139 -194 -414 -194q-215 0 -339 129q-69 72 -107 203l281 51q47 -144 182 -144q154 0 205 169q19 62 27 267q-54 -61 -98 -88q-86 -53 -207 -53q-168 0 -283 99 q-138 118 -138 319zM376 953q0 -94 65 -157q53 -51 133 -51q99 0 159 72q50 61 50 136q0 89 -67 153q-55 53 -136 53q-97 0 -156 -74q-48 -60 -48 -132z" />
<glyph unicode=":" horiz-adv-x="527" vert-adv-y="2457" d="M109 1v307h309v-307h-309zM109 707v303h309v-303h-309z" />
<glyph unicode=";" horiz-adv-x="527" vert-adv-y="2457" d="M109 -4v310h310v-280l-200 -350h-110l155 320h-155zM109 708v302h310v-302h-310z" />
<glyph unicode="&#x3c;" vert-adv-y="2457" d="M137 567v236l887 458v-280l-589 -297l589 -297v-278z" />
<glyph unicode="=" vert-adv-y="2457" d="M95 382v218h1012v-218h-1012zM95 758v218h1012v-218h-1012z" />
<glyph unicode="&#x3e;" vert-adv-y="2457" d="M177 109v280l589 296l-589 298v278l887 -458v-237z" />
<glyph unicode="?" horiz-adv-x="1045" vert-adv-y="2457" d="M27 931q19 113 44 173q66 153 207 229q106 57 243 57q179 0 307 -93q159 -117 159 -310q0 -217 -222 -364q-88 -58 -108 -85q-30 -40 -31 -119v-29h-258v42q0 140 18 194q16 50 63 92q37 32 99 78q60 44 86 85q27 40 27 102q0 78 -51 122q-46 38 -110 38q-88 0 -141 -66 q-41 -50 -58 -184zM362 0v302h314v-302h-314z" />
<glyph unicode="@" horiz-adv-x="1591" vert-adv-y="2457" d="M79 679q0 203 99 371q94 159 258 254q176 102 388 102q209 0 378 -100q142 -84 224 -221q85 -143 85 -307q0 -166 -87 -305q-69 -110 -180 -159q-70 -32 -140 -32q-108 0 -171 88q-80 -91 -185 -91q-88 0 -162 59t-108 168q-22 69 -22 147q0 180 105 291q94 99 224 99 q59 0 103 -23q20 -9 55 -36l12 43h189l-55 -451q-5 -43 -5 -83q0 -20 6 -29q7 -11 32 -11t47 11q59 28 95 84q65 100 65 226q0 202 -146 335q-144 132 -358 132q-232 0 -390 -164q-155 -161 -155 -397q0 -221 136 -378q154 -177 426 -177q183 0 320 64l65 30l12 6 q22 11 32 15l66 -165q-7 -3 -27 -13l-10 -5q-131 -60 -228.5 -83t-228.5 -23q-236 0 -408 99q-159 91 -254 252q-102 172 -102 377zM656 646q0 -77 31 -129q28 -45 74 -45q69 0 117 65q52 71 52 156q0 71 -40 114q-39 43 -94 43q-60 0 -99 -54q-41 -59 -41 -150z" />
<glyph unicode="A" horiz-adv-x="1245" vert-adv-y="2457" d="M0 0l437 1365h371l427 -1365h-344l-83 281h-442l-86 -281h-280zM443 532h290l-145 480z" />
<glyph unicode="B" horiz-adv-x="1334" vert-adv-y="2457" d="M137 0v1365h636q165 0 248 -38q102 -47 158 -135q49 -79 49 -180q0 -225 -247 -302q111 -28 174 -84q111 -100 111 -251q0 -165 -126 -272q-68 -58 -150 -78q-99 -25 -217 -25h-636zM456 253h245q113 0 158 29q33 21 53 61q19 37 19 77q0 84 -69 130q-49 32 -146 32h-260 v-329zM456 825h242q103 0 144 31q58 43 58 122q0 67 -47 109q-32 28 -70 32q-34 4 -109 4h-218v-298z" />
<glyph unicode="C" horiz-adv-x="1285" vert-adv-y="2457" d="M72 684q0 303 159 498q165 203 457 203q291 0 433 -195q78 -106 103 -242q7 -39 14 -91l-335 -21q-5 109 -33 171q-54 117 -192 117q-250 0 -250 -457q0 -190 46 -296q26 -62 84 -96q55 -34 127 -34q199 0 243 257l310 -20q-16 -107 -39 -167q-61 -156 -195 -243 q-136 -88 -322 -88q-284 0 -450 198q-160 190 -160 506z" />
<glyph unicode="D" horiz-adv-x="1328" vert-adv-y="2457" d="M137 0v1365h417q268 0 401 -83q160 -100 240 -284q62 -141 62 -311q0 -292 -170 -487q-174 -200 -480 -200h-470zM451 257h132q161 0 246 111q99 131 99 323q0 187 -97 314q-84 109 -245 109h-135v-857z" />
<glyph unicode="E" horiz-adv-x="1167" vert-adv-y="2457" d="M137 0v1365h976v-261h-651v-279h512v-257h-512v-298h651v-270h-976z" />
<glyph unicode="F" horiz-adv-x="1135" vert-adv-y="2457" d="M137 0v1365h971v-270h-639v-306h505v-255h-505v-534h-332z" />
<glyph unicode="G" horiz-adv-x="1315" vert-adv-y="2457" d="M72 665q0 313 150 513q156 207 445 207q276 0 426 -199q80 -105 107 -269l-304 -41q-13 88 -40 136q-62 112 -195 112q-139 0 -202 -129q-61 -123 -61 -325q0 -181 58 -294q69 -136 219 -136q115 0 179 85q43 56 42 150h-257v255h561v-730h-145q-18 78 -47 157 q-64 -73 -114 -106q-104 -71 -260 -71q-278 0 -426 206q-136 190 -136 479z" />
<glyph unicode="H" horiz-adv-x="1328" vert-adv-y="2457" d="M137 0v1365h314v-532h427v532h314v-1365h-314v563h-427v-563h-314z" />
<glyph unicode="I" horiz-adv-x="593" vert-adv-y="2457" d="M137 0v1365h319v-1365h-319z" />
<glyph unicode="J" horiz-adv-x="780" vert-adv-y="2457" d="M14 0v265q100 -17 156 -17q99 0 141 55q27 36 27 128v934h319v-974q0 -197 -90 -299q-101 -113 -337 -113q-92 0 -216 21z" />
<glyph unicode="K" horiz-adv-x="1291" vert-adv-y="2457" d="M137 0v1365h314v-642l428 642h306l-328 -487l410 -878h-353l-271 591l-192 -278v-313h-314z" />
<glyph unicode="L" horiz-adv-x="1031" vert-adv-y="2457" d="M137 0v1365h324v-1095h543v-270h-867z" />
<glyph unicode="M" horiz-adv-x="1761" vert-adv-y="2457" d="M137 0v1365h498l239 -817l252 817h499v-1365h-322v1113l-343 -1113h-219l-336 1113v-1113h-268z" />
<glyph unicode="N" horiz-adv-x="1324" vert-adv-y="2457" d="M137 0v1365h345l465 -805q-6 57 -6 91v714h247v-1365h-273l-536 922q2 -31 3 -47q3 -46 3 -58v-817h-248z" />
<glyph unicode="O" horiz-adv-x="1309" vert-adv-y="2457" d="M72 687q0 303 153 499q156 199 435 199q276 0 423 -198q155 -211 155 -514q0 -186 -74 -357q-145 -336 -514 -336q-270 0 -420 196q-158 207 -158 511zM407 684q0 -443 252 -443q244 0 244 441q0 214 -60 330q-57 112 -184 112q-136 0 -192 -117q-60 -125 -60 -323z" />
<glyph unicode="P" horiz-adv-x="1236" vert-adv-y="2457" d="M137 0v1365h538q192 0 281 -41q133 -62 197 -186q43 -84 43 -193q0 -217 -148 -343q-74 -63 -160 -80q-79 -15 -201 -15h-225v-507h-325zM451 755h209q86 0 128 25q87 52 87 156q0 80 -52 130q-53 51 -165 51h-207v-362z" />
<glyph unicode="Q" horiz-adv-x="1318" vert-adv-y="2457" d="M72 681q0 301 157 506q151 198 427 198q277 0 434 -200q156 -197 156 -514q0 -262 -125 -445q-68 -100 -162 -158q0 -50 21 -72q31 -33 100 -33q31 0 120 10v-242q-61 -13 -117 -13q-166 0 -233 70q-66 68 -81 206q-81 -9 -130 -9q-254 0 -407 194q-160 203 -160 502z M407 688q0 -197 53 -319q56 -130 199 -130q252 0 252 438q0 216 -60 334q-59 113 -192 113q-252 0 -252 -436z" />
<glyph unicode="R" horiz-adv-x="1346" vert-adv-y="2457" d="M137 0v1365h600q163 0 249 -32q126 -47 193 -164q57 -99 57 -212q0 -157 -102 -266q-43 -47 -135 -88l252 -603h-353l-210 541h-229v-541h-322zM459 774h196q92 0 121 7q61 16 96 66q34 49 34 105q0 86 -65 135q-35 27 -76 31q-38 4 -117 4h-189v-348z" />
<glyph unicode="S" horiz-adv-x="1189" vert-adv-y="2457" d="M0 357l296 68q55 -190 277 -190q134 0 192 69q27 32 27 74q0 48 -31 78q-31 31 -76 45q-53 16 -131 32q-211 43 -317 107q-166 99 -166 312q0 190 139 314q135 119 359 119q221 0 359 -104q82 -62 125 -154q12 -25 27 -62l-272 -91q-30 77 -65 108q-58 53 -173 53 q-114 0 -161 -52q-24 -27 -24 -69q0 -65 57 -100q38 -23 139 -44q147 -29 219 -51q150 -47 232 -147q85 -104 85 -240q0 -157 -106 -280q-146 -172 -455 -172q-240 0 -392 117q-88 68 -131 163q-14 31 -33 97z" />
<glyph unicode="T" horiz-adv-x="1002" vert-adv-y="2457" d="M0 1095v270h1002v-270h-338v-1095h-324v1095h-340z" />
<glyph unicode="U" horiz-adv-x="1330" vert-adv-y="2457" d="M123 515v850h347v-850q0 -103 13 -146q39 -128 219 -128q92 0 155 36q61 35 76 111q7 37 7 127v850h273v-850q0 -219 -49 -310q-122 -225 -491 -225q-287 0 -428 136q-75 72 -98 170q-24 98 -24 229z" />
<glyph unicode="V" horiz-adv-x="1138" vert-adv-y="2457" d="M-14 1365h340l273 -976l283 976h269l-411 -1365h-344z" />
<glyph unicode="W" horiz-adv-x="1788" vert-adv-y="2457" d="M14 1365h326l188 -833q1 -7 11 -44q4 -14 11 -43l223 920h295l230 -920q8 31 20 87l194 833h263l-344 -1365h-313l-225 903q-9 -40 -18 -78l-198 -825h-312z" />
<glyph unicode="X" horiz-adv-x="1228" vert-adv-y="2457" d="M3 0l421 725l-373 640h372l221 -415l232 415h299l-373 -635l422 -730h-370l-274 495l-274 -495h-303z" />
<glyph unicode="Y" horiz-adv-x="1068" vert-adv-y="2457" d="M-55 1365h371l261 -519l258 519h287l-428 -790v-575h-319v575z" />
<glyph unicode="Z" horiz-adv-x="1184" vert-adv-y="2457" d="M41 0v232l688 875h-642v258h1034v-236l-690 -868h712v-261h-1102z" />
<glyph unicode="[" horiz-adv-x="601" vert-adv-y="2457" d="M109 -341v1706h430v-128h-198v-1454h198v-124h-430z" />
<glyph unicode="\" horiz-adv-x="1096" vert-adv-y="2457" d="M55 1365h201l975 -1706h-203z" />
<glyph unicode="]" horiz-adv-x="601" vert-adv-y="2457" d="M62 -213h198v1454h-198v124h430v-1706h-430v128z" />
<glyph unicode="^" horiz-adv-x="1024" vert-adv-y="2457" d="M9 685l323 689h360l323 -689h-287l-216 469l-216 -469h-287z" />
<glyph unicode="_" horiz-adv-x="1024" vert-adv-y="2457" d="M0 -94h1024v-239h-1024v239z" />
<glyph unicode="`" horiz-adv-x="1024" vert-adv-y="2457" d="M233 1348l76 168l414 -243l-50 -112z" />
<glyph unicode="a" horiz-adv-x="1109" vert-adv-y="2457" d="M60 263q0 122 78 210q88 99 318 134q76 11 231 24v58q0 146 -149 146q-81 0 -130 -49q-35 -34 -43 -97l-275 26q18 91 48 138q61 96 200 143q102 34 229 34q165 0 272 -57q91 -48 124 -128q22 -52 22 -199v-457q0 -96 4 -124q4 -26 15 -65h-290q-14 70 -14 130v28 q-68 -94 -128 -130q-80 -49 -195 -49q-154 0 -239 87q-78 78 -78 197zM374 294q0 -52 32 -90q33 -40 95 -40q73 0 126 58q60 65 60 170v92q-116 -14 -180 -35q-133 -44 -133 -155z" />
<glyph unicode="b" horiz-adv-x="1115" vert-adv-y="2457" d="M123 0v1365h298v-482q50 82 103 112q63 36 147 36q195 0 293 -167q84 -142 84 -354q0 -239 -103 -385t-304 -146q-146 0 -228 88q-28 29 -65 88q-26 -35 -40 -75q-2 -6 -26 -80h-159zM421 400q0 -103 40 -155q45 -60 114 -60q61 0 106 49q61 68 61 271q0 149 -23 222 q-14 45 -55 76q-37 29 -86 29q-54 0 -90 -35q-67 -65 -67 -204v-193z" />
<glyph unicode="c" horiz-adv-x="1048" vert-adv-y="2457" d="M65 498q0 232 131 378q140 154 369 154q215 0 343 -142q70 -78 91 -171q6 -25 12 -75l-278 -16q-9 77 -31 115q-41 67 -127 67q-102 0 -145 -90q-32 -68 -32 -210q0 -176 53 -239q41 -48 115 -48q140 0 167 175l278 -17q-13 -92 -36 -145q-55 -125 -171 -193 q-106 -62 -256 -62q-226 0 -360 155q-123 141 -123 364z" />
<glyph unicode="d" horiz-adv-x="1105" vert-adv-y="2457" d="M68 494q0 240 91 384q95 152 285 152q115 0 185 -57q27 -21 63 -69v461h289v-1365h-276v158q-54 -91 -105 -127q-72 -52 -171 -52q-178 0 -273 149q-88 138 -88 366zM376 490q0 -194 73 -268q34 -33 85 -33q80 0 126 75q32 51 32 133v190q0 237 -148 237 q-168 0 -168 -334z" />
<glyph unicode="e" horiz-adv-x="1095" vert-adv-y="2457" d="M65 495q0 218 114 361q139 174 374 174q172 0 299 -102q136 -109 168 -318q8 -52 10 -155h-650q-1 -28 -1 -47q0 -114 65 -170q56 -48 130 -48q86 0 137 59q30 35 42 100l270 -20q-44 -135 -116 -212q-129 -137 -345 -137q-229 0 -367 152q-130 143 -130 363zM379 628 h359q-7 81 -30 126q-40 81 -142 81q-164 0 -187 -207z" />
<glyph unicode="f" horiz-adv-x="655" vert-adv-y="2457" d="M27 778v232h117q1 128 9.5 180t36.5 95q86 135 312 135q58 0 139 -12v-230q-64 6 -101 6q-69 0 -89 -36q-18 -32 -18 -100v-38h184v-232h-184v-778h-289v778h-117z" />
<glyph unicode="g" horiz-adv-x="1133" vert-adv-y="2457" d="M21 -121q0 135 173 182q-65 35 -91 69q-37 48 -37 111q0 105 87 165q38 27 114 61q-77 35 -112 74q-66 72 -66 173q0 151 132 235q128 81 334 81q126 0 266 -43q17 122 80 166q44 31 150 31q37 0 81 -8v-189q-51 9 -79 9q-98 0 -116 -87q34 -40 48 -62q32 -56 32 -130 q0 -167 -156 -250q-118 -63 -299 -63q-85 0 -164 14q-51 -31 -51 -77q0 -40 26 -58q32 -21 88 -26q62 -6 135 -9q202 -10 249 -16q141 -20 206 -81q74 -69 74 -176q0 -105 -74 -188q-76 -83 -220 -117q-108 -26 -285 -26q-260 0 -389 52q-66 27 -107 87q-29 42 -29 96z M280 -77q0 -50 54 -72q65 -27 235 -27q158 0 219 25q58 23 58 71q0 44 -57 62q-61 19 -283 19l-51 -1q-50 0 -69 3q-25 5 -32 4q-27 -2 -52 -28q-22 -24 -22 -56zM388 718q0 -85 57 -124q44 -29 105 -29q81 0 127 44t46 109q0 75 -59 120q-41 31 -112 31q-75 0 -118 -38 q-46 -41 -46 -113z" />
<glyph unicode="h" horiz-adv-x="1114" vert-adv-y="2457" d="M123 0v1365h289v-493q33 64 84 100q82 58 190 58q151 0 237 -98q47 -53 58 -122q10 -61 10 -143v-667h-298v569q0 115 -10 147q-26 81 -106 81q-59 0 -106 -41q-43 -37 -54 -101q-5 -29 -5 -86v-569h-289z" />
<glyph unicode="i" horiz-adv-x="543" vert-adv-y="2457" d="M123 0v1010h298v-1010h-298zM123 1095v298h298v-298h-298z" />
<glyph unicode="j" horiz-adv-x="550" vert-adv-y="2457" d="M-62 -113q42 -6 67 -6q71 0 96 46q21 36 21 128v955h304v-955q0 -165 -12 -213q-52 -207 -313 -207q-59 0 -163 17v235zM122 1093v300h304v-300h-304z" />
<glyph unicode="k" horiz-adv-x="1112" vert-adv-y="2457" d="M123 0v1365h281v-818q29 36 43 54q41 53 48 61l295 348h289l-289 -343l329 -667h-329l-212 458l-174 -200v-258h-281z" />
<glyph unicode="l" horiz-adv-x="543" vert-adv-y="2457" d="M123 0v1365h298v-1365h-298z" />
<glyph unicode="m" horiz-adv-x="1688" vert-adv-y="2457" d="M123 0v1010h280v-154q28 70 81 111q82 64 204 64q123 0 199 -67q43 -37 80 -108q42 80 94 116q83 58 197 58q146 0 231 -84q53 -52 65 -120q11 -64 11 -170v-656h-298v559q0 118 -5 143q-18 92 -121 92q-54 0 -95 -33q-40 -32 -49 -105q-5 -36 -5 -97v-559h-298v559 q0 122 -10 153q-25 83 -122 83q-94 0 -128 -73q-22 -47 -22 -163v-559h-289z" />
<glyph unicode="n" horiz-adv-x="1124" vert-adv-y="2457" d="M123 0v1010h277v-171q50 84 90 122q73 69 203 69q158 0 240 -98q68 -82 68 -284v-648h-298v567q0 105 -7 133q-23 98 -120 98q-83 0 -124 -76q-31 -56 -31 -155v-567h-298z" />
<glyph unicode="o" horiz-adv-x="1096" vert-adv-y="2457" d="M65 513q0 227 129 370q133 147 349 147q229 0 360 -150q129 -149 129 -379q0 -220 -129 -366q-136 -155 -361 -155q-221 0 -352 154q-125 146 -125 379zM379 531q0 -165 30 -255q15 -42 50 -71q38 -30 90 -30q97 0 136 93q33 76 33 227q0 168 -31 248q-36 92 -137 92 q-109 0 -144 -99q-27 -76 -27 -205z" />
<glyph unicode="p" horiz-adv-x="1105" vert-adv-y="2457" d="M123 -341v1351h274v-148q35 72 80 109q74 60 186 60q177 0 277 -144q96 -138 96 -376q0 -241 -97 -383q-101 -148 -284 -148q-116 0 -187 61q-27 23 -56 71v-453h-289zM412 442q0 -109 10 -142q15 -45 53 -76q45 -36 95 -36q73 0 117 75q40 69 40 252q0 310 -157 310 q-75 0 -120 -67q-38 -58 -38 -166v-150z" />
<glyph unicode="q" horiz-adv-x="1114" vert-adv-y="2457" d="M68 504q0 264 127 406q107 120 289 120q138 0 215 -71q32 -29 69 -89q47 67 76 140h161q-14 -93 -14 -140v-1211h-289v446q-51 -63 -90 -88q-59 -38 -153 -38q-206 0 -307 167q-84 140 -84 358zM382 502q0 -150 24 -216q15 -41 52 -70q36 -29 80 -29q70 0 119 69 q45 63 45 160v203q0 100 -45 156q-43 53 -110 53q-53 0 -95 -37q-44 -38 -59 -118q-11 -61 -11 -171z" />
<glyph unicode="r" horiz-adv-x="711" vert-adv-y="2457" d="M123 0v1010h273v-188q61 210 218 210q22 0 54 -3v-295q-21 1 -29 1q-227 0 -227 -324v-411h-289z" />
<glyph unicode="s" horiz-adv-x="969" vert-adv-y="2457" d="M11 278l251 36q18 -64 60 -92q65 -43 163 -43q100 0 152 44q26 21 26 56q0 31 -22 51q-21 21 -91 30q-256 35 -342 77q-72 36 -113 102q-45 72 -45 160q0 148 112 238q115 93 316 93q197 0 301 -101q58 -57 100 -164l-217 -57q-41 136 -197 136q-94 0 -134 -44 q-16 -18 -16 -46q0 -32 18 -49q31 -30 153 -46q226 -30 306 -76q64 -37 98 -106q32 -66 32 -146q0 -156 -116 -251q-121 -100 -338 -100q-164 0 -262 51q-117 61 -167 164q-14 29 -28 83z" />
<glyph unicode="t" horiz-adv-x="720" vert-adv-y="2457" d="M1 778v232h177l25 298l256 20v-318h216v-232h-216v-427q0 -82 24 -107q27 -27 115 -27q34 0 92 4v-221q-133 -22 -187 -22q-153 0 -234 49q-108 66 -108 280v471h-160z" />
<glyph unicode="u" horiz-adv-x="1109" vert-adv-y="2457" d="M123 350v660h289v-660q0 -135 113 -135q100 0 146 92q13 26 15 47q2 16 2 89v567h298v-1010h-276v172q-84 -192 -302 -192q-159 0 -230 103q-40 58 -48 123q-7 58 -7 144z" />
<glyph unicode="v" horiz-adv-x="924" vert-adv-y="2457" d="M-7 1010h310l194 -640l199 640h221l-346 -1010h-231z" />
<glyph unicode="w" horiz-adv-x="1477" vert-adv-y="2457" d="M11 1010h311l164 -617l154 617h270l148 -621l171 621h230l-304 -1010h-263l-160 649l-159 -649h-251z" />
<glyph unicode="x" horiz-adv-x="1011" vert-adv-y="2457" d="M0 0l333 543l-287 467h340l161 -273l160 273h255l-291 -467l340 -543h-340l-210 348l-206 -348h-255z" />
<glyph unicode="y" horiz-adv-x="912" vert-adv-y="2457" d="M-7 1010h315l193 -601l186 601h218l-316 -969q-49 -150 -68 -190q-61 -126 -149 -170q-66 -33 -178 -33q-60 0 -143 11v230q83 -14 146 -14q88 0 123 40q23 26 39 85z" />
<glyph unicode="z" horiz-adv-x="877" vert-adv-y="2457" d="M41 0v217l445 590h-408v203h739v-186l-451 -607h470v-217h-795z" />
<glyph unicode="{" horiz-adv-x="601" vert-adv-y="2457" d="M82 467v109q61 12 86 44q27 35 27 100v373q0 159 64 219q56 53 171 53q7 0 46 -2q39 -1 89 -2v-118h-33q-54 0 -70 -16t-18 -62q-1 -14 -1 -53v-362q0 -115 -42 -172q-21 -28 -80 -66q59 -36 81 -69q41 -60 41 -170v-361q0 -73 5 -90q9 -30 36 -37q17 -5 45 -5q11 0 36 1 v-118q-50 -1 -120 -4h-19q-121 0 -177 63q-54 61 -54 209v373q0 84 -27 117q-29 35 -86 46z" />
<glyph unicode="|" horiz-adv-x="1024" vert-adv-y="2457" d="M371 -341v1706h283v-1706h-283z" />
<glyph unicode="}" horiz-adv-x="601" vert-adv-y="2457" d="M82 -219h33q54 0 70 16t18 62q1 14 1 53v362q0 116 42 172q21 28 80 66q-59 36 -81 69q-41 59 -41 170v361q0 72 -5 90q-9 30 -36 37q-17 5 -45 5q-11 0 -36 -1v118q50 1 119 4h19q122 0 178 -63q54 -61 54 -209v-373q0 -84 27 -117q29 -35 86 -46v-109q-61 -11 -86 -44 q-27 -35 -27 -100v-373q0 -159 -64 -219q-56 -53 -171 -53q-7 0 -46 2q-39 1 -89 2v118z" />
<glyph unicode="~" vert-adv-y="2457" d="M102 578q50 124 102 190q78 98 210 98q67 0 214 -54q92 -34 115 -40q32 -7 58 -7q59 0 98 40q17 19 44 65l156 -96q-43 -93 -71 -134q-99 -144 -255 -144q-52 0 -204 54q-133 47 -171 47q-49 0 -86 -33q-22 -19 -58 -90z" />
<glyph unicode="&#xa0;" horiz-adv-x="512" vert-adv-y="2457" />
<glyph unicode="&#xa1;" horiz-adv-x="602" vert-adv-y="2457" d="M110 -341l99 957h184l100 -957h-383zM143 710v314h315v-314h-315z" />
<glyph unicode="&#xa2;" vert-adv-y="2457" d="M166 695q0 249 144 385q99 93 247 108v213h161v-213q87 -14 139 -39q176 -83 218 -324l-264 -16q-10 66 -30 104q-39 74 -135 74q-103 0 -143 -84q-39 -81 -39 -217q0 -115 39 -188q46 -83 144 -83t137 75q19 36 27 99l260 -20q-15 -89 -38 -139q-82 -178 -315 -225v-260 h-161v260q-88 15 -143 42q-121 60 -189 189q-59 114 -59 259z" />
<glyph unicode="&#xa3;" vert-adv-y="2457" d="M14 0v255h89q76 0 121 31q91 64 91 198q0 49 -15 139h-189v210h158q-14 93 -14 148q0 182 112 291q116 114 321 114q165 0 276 -88q79 -63 119 -172l-256 -101q-16 54 -31 78q-35 54 -105 54q-67 0 -103 -54q-25 -37 -25 -105q0 -39 18 -165h224v-210h-200 q0 -90 -10 -137q-18 -88 -68 -152q-24 -31 -78 -79h204q177 0 232 191l277 -83q-32 -108 -67 -162q-82 -123 -215 -171q-85 -30 -214 -30h-652z" />
<glyph unicode="&#xa4;" horiz-adv-x="1365" vert-adv-y="2457" d="M60 1254l127 127l208 -207q141 94 289 94q147 0 284 -92l207 204l126 -127l-205 -204q97 -145 97 -287q0 -144 -94 -282l207 -207l-125 -127l-207 206q-136 -96 -290 -96q-143 0 -290 94l-206 -204l-125 126l205 206q-94 133 -94 285q0 147 94 283zM400 761 q0 -117 83 -200q84 -84 201 -84q118 0 201 84q83 83 83 201q0 120 -83 201q-85 84 -197 84q-121 0 -205 -84q-83 -83 -83 -202z" />
<glyph unicode="&#xa5;" horiz-adv-x="1202" vert-adv-y="2457" d="M39 1365h344l262 -518l258 518h260l-267 -491h224v-177h-320l-66 -138h386v-177h-386v-382h-265v382h-387v177h387l-66 138h-321v177h224z" />
<glyph unicode="&#xa6;" horiz-adv-x="1024" vert-adv-y="2457" d="M371 314h283v-655h-283v655zM371 652v713h283v-713h-283z" />
<glyph unicode="&#xa7;" vert-adv-y="2457" d="M118 -59l251 47q54 -78 102 -110q65 -42 159 -42q108 0 165 52q29 27 29 69q0 67 -85 119q-61 37 -283 117q-156 57 -228 137q-72 81 -72 198q0 119 59 211q23 35 77 89q-34 31 -48 49q-51 64 -51 167q0 116 74 205q114 137 356 137q199 0 318 -96q64 -52 116 -156 l-213 -59q-25 54 -55 78q-60 47 -167 47q-93 0 -140 -42q-28 -25 -28 -64q0 -37 23 -58q32 -28 91 -52l114 -46q159 -62 189 -78q188 -103 188 -287q0 -105 -54 -190q-22 -34 -73 -86q73 -50 104 -99q47 -74 47 -175q0 -180 -136 -286q-128 -99 -332 -99q-207 0 -351 102 q-77 54 -118 135q-11 23 -28 66zM404 612q0 -59 57 -98q75 -51 276 -123q75 54 75 117q0 37 -27 68q-30 33 -70 53q-44 22 -107 46q-54 21 -124 49q-80 -46 -80 -112z" />
<glyph unicode="&#xa8;" horiz-adv-x="1024" vert-adv-y="2457" d="M225 1307q0 57 43 94q30 26 74 26q48 0 84 -33q35 -32 35 -88t-41 -89q-34 -26 -79 -26q-49 0 -81 32q-35 34 -35 84zM560 1307q0 57 43 94q30 26 74 26q48 0 84 -33q35 -31 35 -88q0 -56 -41 -89q-34 -26 -78 -26q-49 0 -82 32q-35 34 -35 84z" />
<glyph unicode="&#xa9;" horiz-adv-x="1584" vert-adv-y="2457" d="M88 682q0 196 102 366q101 167 280 260q150 78 322 78q292 0 497 -205q100 -100 154 -234q53 -130 53 -273q0 -185 -103 -356q-103 -172 -278 -262q-149 -78 -322 -78q-294 0 -499 206q-98 99 -152 228q-54 130 -54 270zM219 681q0 -242 170 -414q168 -169 404 -169 t404 171q167 171 167 413q0 165 -84 306q-82 138 -227 214q-120 64 -252 64q-244 0 -412 -169q-170 -170 -170 -416zM419 684q0 182 102 299q106 122 292 122q187 0 278 -117q56 -73 74 -201l-214 -12q-9 174 -144 174q-160 0 -160 -276q0 -115 29 -178q37 -78 135 -78 q128 0 156 155l198 -12q-16 -106 -65 -170q-99 -129 -290 -129q-184 0 -289 119q-102 116 -102 304z" />
<glyph unicode="&#xaa;" horiz-adv-x="728" vert-adv-y="2457" d="M48 933q0 133 148 186q65 23 241 37v28q0 79 -82 79q-65 0 -88 -48q-4 -8 -9 -39l-192 18q14 69 40 102q78 96 266 96q166 0 233 -76q23 -26 30 -56q8 -29 8 -101v-270q0 -70 14 -118h-202q-9 43 -10 71q-73 -83 -190 -83q-98 0 -154 52q-53 48 -53 122zM265 953 q0 -71 68 -71q38 0 67 29q37 37 37 98v46q-96 -11 -137 -38q-35 -23 -35 -64z" />
<glyph unicode="&#xab;" horiz-adv-x="698" vert-adv-y="2457" d="M68 526l170 292h101l-101 -292l101 -287h-101zM339 526l172 292h105l-105 -292l105 -287h-105z" />
<glyph unicode="&#xac;" vert-adv-y="2457" d="M157 301v252h887v-553h-281v301h-606z" />
<glyph unicode="&#xad;" horiz-adv-x="527" vert-adv-y="2457" d="M25 411v217h478v-217h-478z" />
<glyph unicode="&#xae;" horiz-adv-x="1584" vert-adv-y="2457" d="M88 682q0 196 102 366q101 167 280 260q150 78 322 78q292 0 497 -205q100 -100 154 -234q53 -130 53 -273q0 -185 -103 -356q-103 -172 -278 -262q-149 -78 -322 -78q-294 0 -499 206q-98 99 -152 228q-54 130 -54 270zM219 681q0 -242 170 -414q168 -169 404 -169 t404 171q167 171 167 413q0 165 -84 306q-82 138 -227 214q-120 64 -252 64q-244 0 -412 -169q-170 -170 -170 -416zM456 273v819h368q151 0 225 -55q42 -30 68 -81q27 -53 27 -112q0 -148 -145 -212l157 -359h-234l-133 325h-120v-325h-213zM669 743h111q77 0 104 17 q43 29 43 85q0 48 -35 76q-20 16 -44 19q-22 2 -73 2h-106v-199z" />
<glyph unicode="&#xaf;" horiz-adv-x="1024" vert-adv-y="2457" d="M205 1229v143h614v-143h-614z" />
<glyph unicode="&#xb0;" vert-adv-y="2457" d="M316 1106q0 121 83 202q85 84 199 84q119 0 203 -85t84 -209q0 -116 -82 -199q-83 -83 -200 -83t-201 83q-86 85 -86 207zM463 1105q0 -59 43 -100q40 -40 96 -40q57 0 97 41q39 40 39 97q0 59 -39 100q-41 42 -98 42q-56 0 -97 -40q-41 -41 -41 -100z" />
<glyph unicode="&#xb1;" vert-adv-y="2457" d="M95 -102v218h1012v-218h-1012zM95 581v218h397v412h217v-412h398v-218h-398v-371h-217v371h-397z" />
<glyph unicode="&#xb2;" horiz-adv-x="792" vert-adv-y="2457" d="M45 1099q59 278 350 278q135 0 220 -62q103 -76 103 -198q0 -102 -79 -186q-76 -80 -308 -210h400l-17 -175h-668v168q43 30 162 107q123 81 223 174q64 59 64 119q0 47 -33 75q-30 26 -81 26q-122 0 -142 -155z" />
<glyph unicode="&#xb3;" horiz-adv-x="792" vert-adv-y="2457" d="M26 792l199 27q15 -63 44 -90q41 -37 109 -37q56 0 91 27q36 27 36 75q0 54 -42 81q-28 17 -117 17h-87v154h99q73 0 102 29q26 26 26 60q0 41 -36 69q-27 22 -75 22q-63 0 -97 -37q-18 -20 -32 -68l-194 29q24 88 84 141q95 86 246 86q129 0 221 -56q97 -60 97 -167 q0 -129 -133 -178q159 -46 159 -192q0 -126 -113 -194q-91 -56 -233 -56q-159 0 -256 83q-75 64 -98 175z" />
<glyph unicode="&#xb4;" horiz-adv-x="1024" vert-adv-y="2457" d="M301 1273l414 243l76 -168l-440 -187z" />
<glyph unicode="&#xb5;" vert-adv-y="2457" d="M143 -341v1351h298v-528q0 -120 10 -164q31 -139 148 -139q62 0 107 47q36 38 47 116q7 53 7 140v528h298v-1010h-241l-5 153q-17 -53 -47 -91q-39 -50 -68.5 -66t-83.5 -16q-73 0 -124 49q-41 38 -48 87v-457h-298z" />
<glyph unicode="&#xb6;" vert-adv-y="2457" d="M0 1017q0 168 100 262q87 82 237 85h107l102 1h624v-127h-164v-1579h-120v1579h-122v-1579h-127v1007h-99q-172 0 -218 2q-131 7 -213 77q-107 93 -107 272zM282 1012q0 -147 85 -193q55 -30 213 -30h57v452h-53q-123 0 -168 -12q-134 -33 -134 -217z" />
<glyph unicode="&#xb7;" horiz-adv-x="309" vert-adv-y="2457" d="M0 367v303h309v-303h-309z" />
<glyph unicode="&#xb8;" horiz-adv-x="1024" vert-adv-y="2457" d="M309 -354l33 87q86 -46 137 -46q71 0 71 64q0 34 -28 52q-33 21 -79 21q-20 0 -54 -4l64 180h99l-35 -100q20 3 29 3q52 0 91 -20q83 -44 83 -130q0 -63 -38 -105q-54 -60 -165 -60q-98 0 -208 58z" />
<glyph unicode="&#xb9;" horiz-adv-x="792" vert-adv-y="2457" d="M37 1030v182q121 34 189 72q73 42 110 94h158v-671h215v-161h-667v161h238v442q-138 -76 -243 -119z" />
<glyph unicode="&#xba;" horiz-adv-x="721" vert-adv-y="2457" d="M50 1082q0 138 84 224q87 88 223 88q145 0 230 -90q84 -88 84 -229q0 -134 -84 -223q-87 -92 -231 -92q-140 0 -224 92q-82 88 -82 230zM266 1093q0 -132 31 -173q24 -31 63 -31q94 0 94 184q0 120 -30 163q-21 29 -62 29q-55 0 -76 -45q-20 -42 -20 -127z" />
<glyph unicode="&#xbb;" horiz-adv-x="698" vert-adv-y="2457" d="M82 239l105 287l-105 292h105l172 -292l-172 -287h-105zM359 239l101 287l-101 292h101l170 -292l-170 -287h-101z" />
<glyph unicode="&#xbc;" horiz-adv-x="1802" vert-adv-y="2457" d="M27 1030v182q121 33 189 72q73 42 110 94h158v-671h187v-161h-625v161h224v442q-140 -78 -243 -119zM427 0l756 1365h193l-757 -1365h-192zM1082 187v150l356 494h245v-490h123v-154h-123v-187h-208v187h-393zM1247 332h235v336z" />
<glyph unicode="&#xbd;" horiz-adv-x="1802" vert-adv-y="2457" d="M27 1030v182q121 33 189 72q73 42 110 94h158v-671h187v-161h-625v161h224v442q-140 -78 -243 -119zM427 0l756 1365h193l-757 -1365h-192zM1094 554q62 278 348 278q137 0 222 -62q103 -76 103 -198q0 -102 -79 -186q-76 -81 -308 -211h400l-17 -175h-668v168 q43 30 162 107q124 82 223 174q64 59 64 120q0 47 -33 75q-30 26 -82 26q-121 0 -141 -156z" />
<glyph unicode="&#xbe;" horiz-adv-x="1802" vert-adv-y="2457" d="M16 792l199 27q15 -63 44 -90q41 -37 109 -37q56 0 91 27q36 27 36 75q0 54 -42 81q-28 17 -117 17h-87v154h99q73 0 102 29q26 26 26 60q0 41 -36 69q-27 22 -75 22q-63 0 -97 -37q-18 -20 -32 -68l-194 29q24 88 84 141q95 86 246 86q129 0 221 -56q97 -60 97 -167 q0 -129 -133 -178q159 -46 159 -192q0 -126 -113 -194q-91 -56 -233 -56q-159 0 -256 83q-75 64 -98 175zM467 0l757 1365h192l-757 -1365h-192zM1041 187v150l356 494h245v-490h122v-154h-122v-187h-208v187h-393zM1205 332h236v336z" />
<glyph unicode="&#xbf;" horiz-adv-x="1044" vert-adv-y="2457" d="M58 55q0 218 222 364q88 58 108 85q31 42 31 128h256q1 -24 1 -35q0 -126 -18 -181q-16 -49 -63 -92q-37 -32 -98 -78q-60 -45 -86 -85q-27 -41 -27 -103q0 -78 51 -122q45 -38 109 -38q88 0 141 66q40 50 57 186l274 -39q-18 -113 -44 -173q-65 -153 -206 -229 q-106 -57 -242 -57q-179 0 -307 94q-159 116 -159 309zM390 722v302h313v-302h-313z" />
<glyph unicode="&#xc0;" horiz-adv-x="1245" vert-adv-y="2457" d="M0 0l437 1365h371l427 -1365h-344l-83 281h-442l-86 -281h-280zM288 1635l67 173l430 -208l-51 -119zM443 532h290l-145 480z" />
<glyph unicode="&#xc1;" horiz-adv-x="1245" vert-adv-y="2457" d="M0 0l437 1365h371l427 -1365h-344l-83 281h-442l-86 -281h-280zM443 532h290l-145 480zM460 1600l430 208l66 -173l-446 -154z" />
<glyph unicode="&#xc2;" horiz-adv-x="1245" vert-adv-y="2457" d="M0 0l437 1365h371l427 -1365h-344l-83 281h-442l-86 -281h-280zM244 1509l373 286l373 -286l-209 -21l-164 110l-164 -110zM443 532h290l-145 480z" />
<glyph unicode="&#xc3;" horiz-adv-x="1245" vert-adv-y="2457" d="M0 0l437 1365h371l427 -1365h-344l-83 281h-442l-86 -281h-280zM265 1639q109 110 226 110q66 0 157 -40q64 -29 99 -29q42 0 94 34q23 15 53 51l89 -117q-109 -129 -238 -129q-49 0 -90 15q-26 9 -78 31q-53 23 -85 23q-65 0 -137 -65zM443 532h290l-145 480z" />
<glyph unicode="&#xc4;" horiz-adv-x="1245" vert-adv-y="2457" d="M0 0l437 1365h371l427 -1365h-344l-83 281h-442l-86 -281h-280zM296 1628q0 61 46 101q33 29 81 29q52 0 91 -35q38 -35 38 -96t-45 -97q-36 -28 -85 -28q-53 0 -88 35q-38 37 -38 91zM443 532h290l-145 480zM679 1628q0 61 46 101q33 29 81 29q52 0 91 -35 q38 -35 38 -96t-45 -97q-36 -28 -85 -28q-53 0 -88 35q-38 37 -38 91z" />
<glyph unicode="&#xc5;" horiz-adv-x="1245" vert-adv-y="2457" d="M0 0l437 1365h371l427 -1365h-344l-83 281h-442l-86 -281h-280zM414 1637q0 79 59 133q61 56 144 56t142 -54q62 -56 62 -138q0 -77 -62 -133q-60 -53 -142 -53q-84 0 -143 55q-60 55 -60 134zM443 532h290l-145 480zM536 1639q0 -34 23 -56q24 -22 57 -22t57 21 q26 22 26 57q0 32 -22 52q-25 22 -60 22t-59 -23q-22 -21 -22 -51z" />
<glyph unicode="&#xc6;" horiz-adv-x="1726" vert-adv-y="2457" d="M-14 0l625 1365h1060v-258h-625v-280h499v-257h-499v-300h625v-270h-946v315h-319l-144 -315h-276zM501 543h224v492z" />
<glyph unicode="&#xc7;" horiz-adv-x="1285" vert-adv-y="2457" d="M72 684q0 303 159 498q165 203 457 203q291 0 433 -195q78 -106 103 -242q7 -39 14 -91l-335 -21q-5 110 -33 171q-54 117 -192 117q-250 0 -250 -458q0 -189 46 -296q26 -62 84 -96q55 -34 127 -34q199 0 243 258l310 -19q-19 -132 -57 -208q-139 -283 -506 -291 l-27 -83q34 5 55 5q65 0 114 -33q74 -49 74 -133q0 -86 -69 -135q-65 -46 -153 -46q-134 0 -251 68l35 85q105 -47 159 -47q46 0 72 23q24 21 24 52q0 35 -28 56q-33 26 -89 26q-25 0 -79 -9l54 180q-161 32 -269 123q-113 96 -170 247q-55 146 -55 325z" />
<glyph unicode="&#xc8;" horiz-adv-x="1167" vert-adv-y="2457" d="M137 0v1365h976v-261h-651v-279h512v-257h-512v-298h651v-270h-976zM292 1635l66 173l431 -208l-51 -119z" />
<glyph unicode="&#xc9;" horiz-adv-x="1167" vert-adv-y="2457" d="M137 0v1365h976v-261h-651v-279h512v-257h-512v-298h651v-270h-976zM462 1600l431 208l66 -173l-446 -154z" />
<glyph unicode="&#xca;" horiz-adv-x="1167" vert-adv-y="2457" d="M137 0v1365h976v-261h-651v-279h512v-257h-512v-298h651v-270h-976zM252 1509l373 286l373 -286l-209 -21l-164 110l-164 -110z" />
<glyph unicode="&#xcb;" horiz-adv-x="1167" vert-adv-y="2457" d="M137 0v1365h976v-261h-651v-279h512v-257h-512v-298h651v-270h-976zM304 1628q0 61 46 101q33 29 81 29q52 0 91 -35q38 -35 38 -96t-45 -97q-36 -28 -85 -28q-53 0 -88 35q-38 37 -38 91zM687 1628q0 61 46 101q33 29 81 29q52 0 91 -35q38 -35 38 -96t-45 -97 q-36 -28 -85 -28q-53 0 -88 35q-38 37 -38 91z" />
<glyph unicode="&#xcc;" horiz-adv-x="593" vert-adv-y="2457" d="M-13 1635l66 173l410 -208l-51 -119zM137 0v1365h319v-1365h-319z" />
<glyph unicode="&#xcd;" horiz-adv-x="593" vert-adv-y="2457" d="M130 1600l410 208l66 -173l-426 -154zM137 0v1365h319v-1365h-319z" />
<glyph unicode="&#xce;" horiz-adv-x="592" vert-adv-y="2457" d="M-50 1509l346 286l346 -286l-203 -21l-143 110l-144 -110zM136 0v1365h319v-1365h-319z" />
<glyph unicode="&#xcf;" horiz-adv-x="593" vert-adv-y="2457" d="M17 1628q0 57 44 96q30 27 76 27q50 0 86 -33t36 -91t-42 -91q-35 -27 -80 -27q-51 0 -84 33q-36 35 -36 86zM137 0v1365h319v-1365h-319zM331 1628q0 57 44 96q31 27 76 27q50 0 86 -33t36 -91t-42 -91q-35 -27 -80 -27q-51 0 -84 33q-36 35 -36 86z" />
<glyph unicode="&#xd0;" horiz-adv-x="1328" vert-adv-y="2457" d="M14 598v205h123v562h416q269 0 401 -83q160 -100 240 -284q62 -141 62 -311q0 -292 -170 -487q-173 -200 -480 -200h-469v598h-123zM451 257h131q162 0 246 111q99 132 99 323q0 187 -97 314q-84 109 -246 109h-133v-311h237v-205h-237v-341z" />
<glyph unicode="&#xd1;" horiz-adv-x="1324" vert-adv-y="2457" d="M137 0v1365h345l465 -805q-6 57 -6 91v714h247v-1365h-273l-536 922q2 -31 3 -47q3 -46 3 -58v-817h-248zM324 1639q109 110 226 110q66 0 157 -40q64 -29 99 -29q42 0 94 34q23 15 53 51l89 -117q-109 -129 -238 -129q-49 0 -90 15q-26 9 -78 31q-53 23 -85 23 q-65 0 -137 -65z" />
<glyph unicode="&#xd2;" horiz-adv-x="1309" vert-adv-y="2457" d="M72 687q0 303 153 499q156 199 435 199q276 0 423 -198q155 -211 155 -514q0 -186 -74 -357q-145 -336 -514 -336q-270 0 -420 196q-158 207 -158 511zM356 1635l66 173l431 -208l-51 -119zM407 684q0 -443 252 -443q244 0 244 441q0 214 -60 330q-57 112 -184 112 q-136 0 -192 -117q-60 -125 -60 -323z" />
<glyph unicode="&#xd3;" horiz-adv-x="1309" vert-adv-y="2457" d="M72 687q0 303 153 499q156 199 435 199q276 0 423 -198q155 -211 155 -514q0 -186 -74 -357q-145 -336 -514 -336q-270 0 -420 196q-158 207 -158 511zM407 684q0 -443 252 -443q244 0 244 441q0 214 -60 330q-57 112 -184 112q-136 0 -192 -117q-60 -125 -60 -323z M492 1600l430 208l67 -173l-446 -154z" />
<glyph unicode="&#xd4;" horiz-adv-x="1309" vert-adv-y="2457" d="M72 687q0 303 153 499q156 199 435 199q276 0 423 -198q155 -211 155 -514q0 -186 -74 -357q-145 -336 -514 -336q-270 0 -420 196q-158 207 -158 511zM296 1509l373 286l373 -286l-210 -21l-163 110l-164 -110zM407 684q0 -443 252 -443q244 0 244 441q0 214 -60 330 q-57 112 -184 112q-136 0 -192 -117q-60 -125 -60 -323z" />
<glyph unicode="&#xd5;" horiz-adv-x="1309" vert-adv-y="2457" d="M72 687q0 303 153 499q156 199 435 199q276 0 423 -198q155 -211 155 -514q0 -186 -74 -357q-145 -336 -514 -336q-270 0 -420 196q-158 207 -158 511zM323 1639q109 110 226 110q66 0 157 -40q64 -29 99 -29q43 0 94 34q23 15 53 51l90 -117q-110 -129 -239 -129 q-48 0 -90 15q-26 9 -77 31q-54 23 -86 23q-65 0 -137 -65zM407 684q0 -443 252 -443q244 0 244 441q0 214 -60 330q-57 112 -184 112q-136 0 -192 -117q-60 -125 -60 -323z" />
<glyph unicode="&#xd6;" horiz-adv-x="1309" vert-adv-y="2457" d="M72 687q0 303 153 499q156 199 435 199q276 0 423 -198q155 -211 155 -514q0 -186 -74 -357q-145 -336 -514 -336q-270 0 -420 196q-158 207 -158 511zM348 1628q0 61 46 101q33 29 81 29q52 0 91 -35q38 -35 38 -96t-45 -97q-36 -28 -85 -28q-53 0 -88 35q-38 37 -38 91 zM407 684q0 -443 252 -443q244 0 244 441q0 214 -60 330q-57 112 -184 112q-136 0 -192 -117q-60 -125 -60 -323zM730 1628q0 61 46 101q33 29 81 29q52 0 91 -35q38 -35 38 -96t-45 -97q-36 -28 -85 -28q-53 0 -88 35q-38 37 -38 91z" />
<glyph unicode="&#xd7;" vert-adv-y="2457" d="M156 982l153 153l292 -291l281 281l155 -155l-281 -281l290 -290l-153 -154l-291 291l-281 -281l-154 154l280 281z" />
<glyph unicode="&#xd8;" horiz-adv-x="1309" vert-adv-y="2457" d="M72 683q0 294 150 499q148 204 441 204q111 0 192 -29q22 -7 64 -26l85 145h182l-134 -248q77 -99 114 -185q72 -165 72 -355q0 -198 -73 -370q-143 -339 -528 -339q-100 0 -175 25q-26 8 -76 31l-81 -146h-181l137 251q-80 91 -119 183q-70 166 -70 360zM406 657 q0 -108 29 -204l354 633q-61 39 -132 39q-138 0 -194 -126q-57 -129 -57 -342zM521 283q58 -43 140 -43q126 0 181 108q61 117 61 338q0 119 -25 236z" />
<glyph unicode="&#xd9;" horiz-adv-x="1330" vert-adv-y="2457" d="M123 515v850h347v-850q0 -103 13 -146q39 -128 219 -128q92 0 155 36q61 35 76 111q7 37 7 127v850h273v-850q0 -219 -49 -310q-122 -225 -491 -225q-287 0 -428 136q-75 72 -98 170q-24 98 -24 229zM351 1635l67 173l430 -208l-51 -119z" />
<glyph unicode="&#xda;" horiz-adv-x="1330" vert-adv-y="2457" d="M123 515v850h347v-850q0 -103 13 -146q39 -128 219 -128q92 0 155 36q61 35 76 111q7 37 7 127v850h273v-850q0 -219 -49 -310q-122 -225 -491 -225q-287 0 -428 136q-75 72 -98 170q-24 98 -24 229zM523 1600l430 208l66 -173l-446 -154z" />
<glyph unicode="&#xdb;" horiz-adv-x="1330" vert-adv-y="2457" d="M123 515v850h347v-850q0 -103 13 -146q39 -128 219 -128q92 0 155 36q61 35 76 111q7 37 7 127v850h273v-850q0 -219 -49 -310q-122 -225 -491 -225q-287 0 -428 136q-75 72 -98 170q-24 98 -24 229zM308 1509l373 286l374 -286l-210 -21l-164 110l-163 -110z" />
<glyph unicode="&#xdc;" horiz-adv-x="1330" vert-adv-y="2457" d="M123 515v850h347v-850q0 -103 13 -146q39 -128 219 -128q92 0 155 36q61 35 76 111q7 37 7 127v850h273v-850q0 -219 -49 -310q-122 -225 -491 -225q-287 0 -428 136q-75 72 -98 170q-24 98 -24 229zM361 1628q0 61 46 101q33 29 81 29q52 0 91 -35q38 -35 38 -96 t-45 -97q-36 -28 -85 -28q-53 0 -88 35q-38 37 -38 91zM743 1628q0 61 46 101q33 29 81 29q52 0 91 -35q38 -35 38 -96t-45 -97q-36 -28 -85 -28q-53 0 -88 35q-38 37 -38 91z" />
<glyph unicode="&#xdd;" horiz-adv-x="1068" vert-adv-y="2457" d="M-55 1365h371l261 -519l258 519h287l-428 -790v-575h-319v575zM384 1600l431 208l66 -173l-446 -154z" />
<glyph unicode="&#xde;" horiz-adv-x="1249" vert-adv-y="2457" d="M137 0v1365h325v-184h213q192 0 281 -41q133 -62 197 -186q43 -84 43 -194q0 -217 -148 -343q-74 -63 -160 -80q-79 -15 -201 -15h-225v-322h-325zM451 570h209q86 0 128 25q87 52 87 157q0 81 -52 131t-165 50h-207v-363z" />
<glyph unicode="&#xdf;" horiz-adv-x="1279" vert-adv-y="2457" d="M26 710v224h104q-1 133 37 229q64 164 218 247q122 66 293 66q184 0 300 -91q117 -92 117 -224q0 -144 -134 -231q-54 -35 -109 -49l-106 -26q-26 -7 -25 -17t21 -19q4 -3 167 -60q77 -28 158 -86q165 -121 165 -300q0 -130 -85 -234q-131 -160 -389 -160q-104 0 -231 42 l78 202q113 -38 182 -38q81 0 128 44q37 34 37 84q0 61 -56 102q-49 36 -246 121q-77 33 -123 104q-33 49 -33 114q0 114 111 227q117 28 161 74q29 30 29 75q0 66 -60 102q-44 26 -99 26q-109 0 -160 -88q-27 -47 -31 -101q-4 -45 -4 -118v-1071h-311v830h-104z" />
<glyph unicode="&#xe0;" horiz-adv-x="1109" vert-adv-y="2457" d="M60 263q0 122 78 210q88 99 318 134q76 11 231 24v58q0 146 -149 146q-81 0 -130 -49q-35 -34 -43 -97l-275 26q18 91 48 138q61 96 200 143q102 34 229 34q165 0 272 -57q91 -48 124 -128q22 -52 22 -199v-457q0 -96 4 -124q4 -26 15 -65h-290q-14 70 -14 130v28 q-68 -94 -128 -130q-80 -49 -195 -49q-154 0 -239 87q-78 78 -78 197zM240 1348l76 168l414 -243l-50 -112zM374 294q0 -52 32 -90q33 -40 95 -40q73 0 126 58q60 65 60 170v92q-116 -14 -180 -35q-133 -44 -133 -155z" />
<glyph unicode="&#xe1;" horiz-adv-x="1109" vert-adv-y="2457" d="M60 263q0 122 78 210q88 99 318 134q76 11 231 24v58q0 146 -149 146q-81 0 -130 -49q-35 -34 -43 -97l-275 26q18 91 48 138q61 96 200 143q102 34 229 34q165 0 272 -57q91 -48 124 -128q22 -52 22 -199v-457q0 -96 4 -124q4 -26 15 -65h-290q-14 70 -14 130v28 q-68 -94 -128 -130q-80 -49 -195 -49q-154 0 -239 87q-78 78 -78 197zM374 294q0 -52 32 -90q33 -40 95 -40q73 0 126 58q60 65 60 170v92q-116 -14 -180 -35q-133 -44 -133 -155zM404 1273l414 243l76 -168l-440 -187z" />
<glyph unicode="&#xe2;" horiz-adv-x="1109" vert-adv-y="2457" d="M60 263q0 122 78 210q88 99 318 134q76 11 231 24v58q0 146 -149 146q-81 0 -130 -49q-35 -34 -43 -97l-275 26q18 91 48 138q61 96 200 143q102 34 229 34q165 0 272 -57q91 -48 124 -128q22 -52 22 -199v-457q0 -96 4 -124q4 -26 15 -65h-290q-14 70 -14 130v28 q-68 -94 -128 -130q-80 -49 -195 -49q-154 0 -239 87q-78 78 -78 197zM194 1188l366 314l366 -314l-202 -21l-164 138l-164 -138zM374 294q0 -52 32 -90q33 -40 95 -40q73 0 126 58q60 65 60 170v92q-116 -14 -180 -35q-133 -44 -133 -155z" />
<glyph unicode="&#xe3;" horiz-adv-x="1109" vert-adv-y="2457" d="M60 263q0 122 78 210q88 99 318 134q76 11 231 24v58q0 146 -149 146q-81 0 -130 -49q-35 -34 -43 -97l-275 26q18 91 48 138q61 96 200 143q102 34 229 34q165 0 272 -57q91 -48 124 -128q22 -52 22 -199v-457q0 -96 4 -124q4 -26 15 -65h-290q-14 70 -14 130v28 q-68 -94 -128 -130q-80 -49 -195 -49q-154 0 -239 87q-78 78 -78 197zM229 1305q103 110 212 110q63 0 148 -41q60 -28 90 -28q70 0 142 83l84 -111q-102 -129 -224 -129q-46 0 -86 15q-25 10 -72 31q-50 23 -80 23q-62 0 -130 -65zM374 294q0 -52 32 -90q33 -40 95 -40 q73 0 126 58q60 65 60 170v92q-116 -14 -180 -35q-133 -44 -133 -155z" />
<glyph unicode="&#xe4;" horiz-adv-x="1109" vert-adv-y="2457" d="M60 263q0 122 78 210q88 99 318 134q76 11 231 24v58q0 146 -149 146q-81 0 -130 -49q-35 -34 -43 -97l-275 26q18 91 48 138q61 96 200 143q102 34 229 34q165 0 272 -57q91 -48 124 -128q22 -52 22 -199v-457q0 -96 4 -124q4 -26 15 -65h-290q-14 70 -14 130v28 q-68 -94 -128 -130q-80 -49 -195 -49q-154 0 -239 87q-78 78 -78 197zM273 1307q0 56 43 94q30 26 74 26q48 0 84 -33q35 -32 35 -88t-41 -89q-34 -26 -79 -26q-49 0 -81 32q-35 34 -35 84zM374 294q0 -52 32 -90q33 -40 95 -40q73 0 126 58q60 65 60 170v92 q-116 -14 -180 -35q-133 -44 -133 -155zM608 1307q0 57 43 94q30 26 74 26q48 0 84 -33q35 -31 35 -88q0 -56 -41 -89q-34 -26 -78 -26q-49 0 -82 32q-35 34 -35 84z" />
<glyph unicode="&#xe5;" horiz-adv-x="1109" vert-adv-y="2457" d="M60 263q0 122 78 210q88 99 318 134q76 11 231 24v58q0 146 -149 146q-81 0 -130 -49q-35 -34 -43 -97l-275 26q18 91 48 138q61 96 200 143q102 34 229 34q165 0 272 -57q91 -48 124 -128q22 -52 22 -199v-457q0 -96 4 -124q4 -26 15 -65h-290q-14 70 -14 130v28 q-68 -94 -128 -130q-80 -49 -195 -49q-154 0 -239 87q-78 78 -78 197zM368 1325q0 77 56 132t133 55q82 0 138 -52q58 -55 58 -136q0 -77 -59 -133q-56 -54 -137 -54q-78 0 -132 55q-57 57 -57 133zM374 294q0 -52 32 -90q33 -40 95 -40q73 0 126 58q60 65 60 170v92 q-116 -14 -180 -35q-133 -44 -133 -155zM480 1324q0 -30 23 -53q24 -22 57 -22q32 0 56 21q25 22 25 54q0 33 -24 55q-25 21 -57 21q-33 0 -57 -22q-23 -23 -23 -54z" />
<glyph unicode="&#xe6;" horiz-adv-x="1639" vert-adv-y="2457" d="M61 262q0 225 229 306q116 41 391 63v79q0 126 -148 126q-85 0 -131 -56q-32 -36 -38 -96l-270 26q18 94 49 142q58 94 192 143q99 36 214 36q134 0 223 -46q26 -14 74 -47q44 31 67 44q88 48 208 48q173 0 294 -105q127 -109 153 -320q6 -50 6 -150h-625v-18 q0 -244 185 -244q86 0 133 54q29 33 45 102l262 -22q-24 -94 -54 -143q-123 -204 -390 -204q-176 0 -296 90q-40 30 -90 90q-79 -93 -158 -132q-96 -48 -211 -48q-151 0 -237 88q-77 79 -77 194zM367 297q0 -52 33 -91q35 -39 93 -39q74 0 129 59q59 63 59 162v95 q-314 -22 -314 -186zM950 631h348q-8 80 -25 121q-36 83 -139 83q-160 0 -184 -204z" />
<glyph unicode="&#xe7;" horiz-adv-x="1048" vert-adv-y="2457" d="M65 498q0 232 131 378q140 154 369 154q215 0 343 -142q70 -78 91 -171q6 -25 12 -75l-278 -16q-9 77 -31 115q-41 67 -127 67q-102 0 -145 -90q-32 -68 -32 -210q0 -176 53 -239q41 -48 115 -48q140 0 167 175l278 -17q-15 -108 -50 -174q-85 -155 -252 -204 q-54 -16 -141 -21l-28 -79q20 2 29 2q52 0 92 -20q83 -44 83 -130q0 -64 -38 -105q-55 -60 -166 -60q-97 0 -208 58l33 87q86 -46 138 -46q71 0 71 65q0 34 -28 51q-33 22 -80 22q-19 0 -53 -5l58 164q-133 20 -223 92q-183 147 -183 422z" />
<glyph unicode="&#xe8;" horiz-adv-x="1095" vert-adv-y="2457" d="M65 495q0 218 114 361q139 174 374 174q172 0 299 -102q136 -109 168 -318q8 -52 10 -155h-650q-1 -28 -1 -47q0 -114 65 -170q56 -48 130 -48q86 0 137 59q30 35 42 100l270 -20q-44 -135 -116 -212q-129 -137 -345 -137q-229 0 -367 152q-130 143 -130 363zM262 1348 l75 168l414 -243l-49 -112zM379 628h359q-7 81 -30 126q-40 81 -142 81q-164 0 -187 -207z" />
<glyph unicode="&#xe9;" horiz-adv-x="1095" vert-adv-y="2457" d="M65 495q0 218 114 361q139 174 374 174q172 0 299 -102q136 -109 168 -318q8 -52 10 -155h-650q-1 -28 -1 -47q0 -114 65 -170q56 -48 130 -48q86 0 137 59q30 35 42 100l270 -20q-44 -135 -116 -212q-129 -137 -345 -137q-229 0 -367 152q-130 143 -130 363zM379 628 h359q-7 81 -30 126q-40 81 -142 81q-164 0 -187 -207zM405 1273l414 243l76 -168l-440 -187z" />
<glyph unicode="&#xea;" horiz-adv-x="1095" vert-adv-y="2457" d="M65 495q0 218 114 361q139 174 374 174q172 0 299 -102q136 -109 168 -318q8 -52 10 -155h-650q-1 -28 -1 -47q0 -114 65 -170q56 -48 130 -48q86 0 137 59q30 35 42 100l270 -20q-44 -135 -116 -212q-129 -137 -345 -137q-229 0 -367 152q-130 143 -130 363zM208 1188 l367 314l366 -314l-202 -21l-164 138l-164 -138zM379 628h359q-7 81 -30 126q-40 81 -142 81q-164 0 -187 -207z" />
<glyph unicode="&#xeb;" horiz-adv-x="1095" vert-adv-y="2457" d="M65 495q0 218 114 361q139 174 374 174q172 0 299 -102q136 -109 168 -318q8 -52 10 -155h-650q-1 -28 -1 -47q0 -114 65 -170q56 -48 130 -48q86 0 137 59q30 35 42 100l270 -20q-44 -135 -116 -212q-129 -137 -345 -137q-229 0 -367 152q-130 143 -130 363zM288 1307 q0 56 43 94q30 26 75 26q47 0 83 -33q35 -32 35 -88t-41 -89q-34 -26 -78 -26q-49 0 -82 32q-35 34 -35 84zM379 628h359q-7 81 -30 126q-40 81 -142 81q-164 0 -187 -207zM623 1307q0 57 43 94q30 26 74 26q48 0 84 -33q35 -32 35 -88t-41 -89q-34 -26 -79 -26 q-49 0 -81 32q-35 34 -35 84z" />
<glyph unicode="&#xec;" horiz-adv-x="543" vert-adv-y="2457" d="M-17 1348l76 168l379 -243l-49 -112zM122 0v1010h298v-1010h-298z" />
<glyph unicode="&#xed;" horiz-adv-x="543" vert-adv-y="2457" d="M104 1273l380 243l75 -168l-405 -187zM123 0v1010h298v-1010h-298z" />
<glyph unicode="&#xee;" horiz-adv-x="543" vert-adv-y="2457" d="M-54 1188l325 314l326 -314l-196 -21l-130 138l-129 -138zM123 0v1010h298v-1010h-298z" />
<glyph unicode="&#xef;" horiz-adv-x="544" vert-adv-y="2457" d="M6 1308q0 54 41 90q30 26 73 26q46 0 81 -32q34 -30 34 -85t-40 -87q-33 -25 -76 -25q-48 0 -79 31q-34 33 -34 82zM123 0v1010h298v-1010h-298zM306 1308q0 54 41 90q30 26 73 26q46 0 81 -32q34 -31 34 -85q0 -55 -40 -87q-33 -25 -76 -25q-48 0 -79 31q-34 33 -34 82z " />
<glyph unicode="&#xf0;" horiz-adv-x="1096" vert-adv-y="2457" d="M65 493q0 141 62 263q67 130 192 202q86 49 185 49q82 0 141 -48q23 -18 54 -58q-35 178 -126 270l-181 -90l-64 93l161 84q-59 35 -176 75l48 108q94 -20 149 -41q57 -22 134 -67l185 90l75 -88l-162 -81q89 -83 158 -207q132 -236 132 -490q0 -305 -153 -451 q-132 -126 -329 -126q-249 0 -382 182q-103 143 -103 331zM380 486q0 -311 173 -311q63 0 98 40q46 52 57 134q8 62 8 147q0 142 -25 209q-41 107 -140 107q-75 0 -111 -48q-60 -78 -60 -278z" />
<glyph unicode="&#xf1;" horiz-adv-x="1124" vert-adv-y="2457" d="M123 0v1010h277v-171q50 84 90 122q73 69 203 69q158 0 240 -98q68 -82 68 -284v-648h-298v567q0 105 -7 133q-23 98 -120 98q-83 0 -124 -76q-31 -56 -31 -155v-567h-298zM210 1305q104 110 213 110q63 0 148 -41q60 -28 90 -28q70 0 141 83l84 -111 q-102 -129 -224 -129q-46 0 -85 15q-25 10 -73 31q-50 23 -80 23q-62 0 -129 -65z" />
<glyph unicode="&#xf2;" horiz-adv-x="1096" vert-adv-y="2457" d="M65 513q0 227 129 370q133 147 349 147q229 0 360 -150q129 -149 129 -379q0 -220 -129 -366q-136 -155 -361 -155q-221 0 -352 154q-125 146 -125 379zM249 1348l75 168l415 -243l-50 -112zM379 531q0 -165 30 -255q15 -42 50 -71q38 -30 90 -30q97 0 136 93 q33 76 33 227q0 168 -31 248q-36 92 -137 92q-109 0 -144 -99q-27 -76 -27 -205z" />
<glyph unicode="&#xf3;" horiz-adv-x="1096" vert-adv-y="2457" d="M65 513q0 227 129 370q133 147 349 147q229 0 360 -150q129 -149 129 -379q0 -220 -129 -366q-136 -155 -361 -155q-221 0 -352 154q-125 146 -125 379zM379 531q0 -165 30 -255q15 -42 50 -71q38 -30 90 -30q97 0 136 93q33 76 33 227q0 168 -31 248q-36 92 -137 92 q-109 0 -144 -99q-27 -76 -27 -205zM385 1273l415 243l75 -168l-440 -187z" />
<glyph unicode="&#xf4;" horiz-adv-x="1096" vert-adv-y="2457" d="M65 513q0 227 129 370q133 147 349 147q229 0 360 -150q129 -149 129 -379q0 -220 -129 -366q-136 -155 -361 -155q-221 0 -352 154q-125 146 -125 379zM189 1188l366 314l366 -314l-202 -21l-164 138l-164 -138zM379 531q0 -165 30 -255q15 -42 50 -71q38 -30 90 -30 q97 0 136 93q33 76 33 227q0 168 -31 248q-36 92 -137 92q-109 0 -144 -99q-27 -76 -27 -205z" />
<glyph unicode="&#xf5;" horiz-adv-x="1096" vert-adv-y="2457" d="M65 513q0 227 129 370q133 147 349 147q229 0 360 -150q129 -149 129 -379q0 -220 -129 -366q-136 -155 -361 -155q-221 0 -352 154q-125 146 -125 379zM224 1305q103 110 213 110q62 0 147 -41q60 -28 91 -28q69 0 141 83l84 -111q-102 -129 -224 -129q-46 0 -85 15 q-26 10 -73 31q-50 23 -80 23q-62 0 -129 -65zM379 531q0 -165 30 -255q15 -42 50 -71q38 -30 90 -30q97 0 136 93q33 76 33 227q0 168 -31 248q-36 92 -137 92q-109 0 -144 -99q-27 -76 -27 -205z" />
<glyph unicode="&#xf6;" horiz-adv-x="1096" vert-adv-y="2457" d="M65 513q0 227 129 370q133 147 349 147q229 0 360 -150q129 -149 129 -379q0 -220 -129 -366q-136 -155 -361 -155q-221 0 -352 154q-125 146 -125 379zM268 1307q0 57 43 94q30 26 74 26q48 0 84 -33q35 -32 35 -88t-41 -89q-34 -26 -79 -26q-49 0 -81 32q-35 34 -35 84 zM379 531q0 -165 30 -255q15 -42 50 -71q38 -30 90 -30q97 0 136 93q33 76 33 227q0 168 -31 248q-36 92 -137 92q-109 0 -144 -99q-27 -76 -27 -205zM603 1307q0 56 43 94q30 26 74 26q48 0 84 -33q35 -31 35 -88q0 -56 -41 -89q-34 -26 -78 -26q-49 0 -82 32 q-35 34 -35 84z" />
<glyph unicode="&#xf7;" vert-adv-y="2457" d="M95 581v218h1012v-218h-1012zM463 335q0 59 45 100q38 35 94 35q58 0 99 -45q35 -39 35 -91q0 -61 -45 -102q-39 -35 -92 -35q-61 0 -101 45q-35 39 -35 93zM463 1043q0 59 45 100q38 35 93 35q58 0 99 -45q35 -39 35 -91q0 -61 -45 -101q-39 -35 -91 -35q-61 0 -101 45 q-35 39 -35 92z" />
<glyph unicode="&#xf8;" horiz-adv-x="1096" vert-adv-y="2457" d="M65 501q0 231 130 384q122 145 357 145q107 0 190 -35l71 120h161l-109 -198q71 -64 108 -143q59 -127 59 -272q0 -221 -127 -367q-135 -155 -358 -155q-84 0 -192 31l-74 -116h-162l110 198q-72 71 -106 142q-58 118 -58 266zM379 551q0 -74 9 -181l243 440 q-26 25 -78 25q-111 0 -148 -98q-26 -69 -26 -186zM460 204q43 -29 87 -29q170 0 170 311q0 81 -10 164z" />
<glyph unicode="&#xf9;" horiz-adv-x="1109" vert-adv-y="2457" d="M123 350v660h289v-660q0 -135 113 -135q100 0 146 92q13 26 15 47q2 16 2 89v567h298v-1010h-276v172q-84 -192 -302 -192q-159 0 -230 103q-40 58 -48 123q-7 58 -7 144zM221 1348l75 168l415 -243l-50 -112z" />
<glyph unicode="&#xfa;" horiz-adv-x="1109" vert-adv-y="2457" d="M123 350v660h289v-660q0 -135 113 -135q100 0 146 92q13 26 15 47q2 16 2 89v567h298v-1010h-276v172q-84 -192 -302 -192q-159 0 -230 103q-40 58 -48 123q-7 58 -7 144zM398 1273l414 243l76 -168l-440 -187z" />
<glyph unicode="&#xfb;" horiz-adv-x="1109" vert-adv-y="2457" d="M123 350v660h289v-660q0 -135 113 -135q100 0 146 92q13 26 15 47q2 16 2 89v567h298v-1010h-276v172q-84 -192 -302 -192q-159 0 -230 103q-40 58 -48 123q-7 58 -7 144zM185 1188l367 314l366 -314l-202 -21l-164 138l-164 -138z" />
<glyph unicode="&#xfc;" horiz-adv-x="1109" vert-adv-y="2457" d="M123 350v660h289v-660q0 -135 113 -135q100 0 146 92q13 26 15 47q2 16 2 89v567h298v-1010h-276v172q-84 -192 -302 -192q-159 0 -230 103q-40 58 -48 123q-7 58 -7 144zM265 1307q0 56 43 94q30 26 74 26q48 0 84 -33q35 -32 35 -88t-41 -89q-34 -26 -79 -26 q-49 0 -81 32q-35 34 -35 84zM600 1307q0 57 43 94q30 26 74 26q48 0 84 -33q35 -31 35 -88q0 -56 -41 -89q-34 -26 -78 -26q-49 0 -82 32q-35 34 -35 84z" />
<glyph unicode="&#xfd;" horiz-adv-x="912" vert-adv-y="2457" d="M-7 1010h315l193 -601l186 601h218l-316 -969q-49 -150 -68 -190q-61 -126 -149 -170q-66 -33 -178 -33q-60 0 -143 11v230q83 -14 146 -14q88 0 123 40q23 26 39 85zM314 1273l414 243l75 -168l-440 -187z" />
<glyph unicode="&#xfe;" horiz-adv-x="1105" vert-adv-y="2457" d="M123 -341v1706h289v-483q37 59 72 89q71 60 181 60q175 0 275 -144q96 -138 96 -376q0 -241 -97 -383q-101 -148 -284 -148q-116 0 -187 61q-27 23 -56 71v-453h-289zM412 442q0 -109 10 -142q15 -45 53 -76q45 -36 95 -36q73 0 117 75q40 69 40 252q0 310 -157 310 q-75 0 -120 -67q-38 -58 -38 -166v-150z" />
<glyph unicode="&#xff;" horiz-adv-x="912" vert-adv-y="2457" d="M-7 1010h315l193 -601l186 601h218l-316 -969q-49 -150 -68 -190q-61 -126 -149 -170q-66 -33 -178 -33q-60 0 -143 11v230q83 -14 146 -14q88 0 123 40q23 26 39 85zM176 1307q0 56 43 94q30 26 75 26q47 0 83 -33q35 -32 35 -88t-41 -89q-34 -26 -78 -26q-49 0 -82 32 q-35 34 -35 84zM511 1307q0 57 43 94q30 26 74 26q48 0 84 -33q35 -32 35 -88t-41 -89q-34 -26 -79 -26q-49 0 -81 32q-35 34 -35 84z" />
<glyph unicode="&#x152;" horiz-adv-x="1904" vert-adv-y="2457" d="M72 674q0 195 79 369q156 343 550 343q82 0 177 -21h972v-258h-644v-281h513v-255h-513v-301h644v-270h-972q-97 -21 -184 -21q-295 0 -452 191q-170 208 -170 504zM427 671q0 -431 258 -431q122 0 193 105v680q-27 40 -49 60q-48 40 -135 40q-152 0 -211 -127 q-56 -120 -56 -327z" />
<glyph unicode="&#x153;" horiz-adv-x="1720" vert-adv-y="2457" d="M65 506q0 232 129 373q139 151 368 151q172 0 317 -104q53 34 81 48q108 56 231 56q174 0 305 -108q127 -103 152 -300q7 -54 7 -166h-644q0 -110 30 -171q46 -91 163 -91q155 0 180 155l271 -22q-19 -85 -49 -134q-125 -213 -407 -213q-125 0 -216 41q-37 16 -104 60 q-148 -101 -325 -101q-230 0 -367 162q-122 144 -122 364zM386 500q0 -143 32 -223q41 -102 147 -102q99 0 138 94q34 80 34 231q0 166 -36 247q-39 88 -138 88q-106 0 -144 -96q-33 -84 -33 -239zM1013 631h358q-9 84 -28 125q-39 84 -144 84q-167 0 -186 -209z" />
<glyph unicode="&#x178;" horiz-adv-x="1068" vert-adv-y="2457" d="M-55 1365h371l261 -519l258 519h287l-428 -790v-575h-319v575zM227 1628q0 61 46 101q33 29 81 29q52 0 90 -35q39 -35 39 -96t-45 -97q-36 -28 -85 -28q-53 0 -88 35q-38 37 -38 91zM609 1628q0 61 46 101q33 29 81 29q52 0 91 -35q38 -35 38 -96t-45 -97 q-36 -28 -85 -28q-53 0 -88 35q-38 37 -38 91z" />
<glyph unicode="&#x2c6;" horiz-adv-x="1024" vert-adv-y="2457" d="M146 1188l366 314l367 -314l-203 -21l-164 138l-164 -138z" />
<glyph unicode="&#x2dc;" horiz-adv-x="1024" vert-adv-y="2457" d="M174 1305q103 110 212 110q63 0 148 -41q60 -28 91 -28q69 0 141 83l84 -111q-102 -129 -224 -129q-46 0 -85 15q-26 10 -73 31q-50 23 -80 23q-62 0 -129 -65z" />
<glyph unicode="&#x2000;" horiz-adv-x="913" vert-adv-y="0" />
<glyph unicode="&#x2001;" horiz-adv-x="1826" vert-adv-y="0" />
<glyph unicode="&#x2002;" horiz-adv-x="913" vert-adv-y="0" />
<glyph unicode="&#x2003;" horiz-adv-x="1826" vert-adv-y="0" />
<glyph unicode="&#x2004;" horiz-adv-x="608" vert-adv-y="0" />
<glyph unicode="&#x2005;" horiz-adv-x="456" vert-adv-y="0" />
<glyph unicode="&#x2006;" horiz-adv-x="304" vert-adv-y="0" />
<glyph unicode="&#x2007;" horiz-adv-x="304" vert-adv-y="0" />
<glyph unicode="&#x2008;" horiz-adv-x="228" vert-adv-y="0" />
<glyph unicode="&#x2009;" horiz-adv-x="365" vert-adv-y="0" />
<glyph unicode="&#x200a;" horiz-adv-x="101" vert-adv-y="0" />
<glyph unicode="&#x2010;" horiz-adv-x="527" vert-adv-y="2457" d="M25 411v217h478v-217h-478z" />
<glyph unicode="&#x2011;" horiz-adv-x="527" vert-adv-y="2457" d="M25 411v217h478v-217h-478z" />
<glyph unicode="&#x2012;" horiz-adv-x="527" vert-adv-y="2457" d="M25 411v217h478v-217h-478z" />
<glyph unicode="&#x2013;" vert-adv-y="2457" d="M162 411v217h877v-217h-877z" />
<glyph unicode="&#x2014;" horiz-adv-x="1365" vert-adv-y="2457" d="M-41 410v218h1447v-218h-1447z" />
<glyph unicode="&#x2018;" horiz-adv-x="527" vert-adv-y="2457" d="M118 809v249l180 307h111l-139 -271h139v-285h-291z" />
<glyph unicode="&#x2019;" horiz-adv-x="527" vert-adv-y="2457" d="M118 808l139 272h-139v285h291v-249l-180 -308h-111z" />
<glyph unicode="&#x201a;" horiz-adv-x="527" vert-adv-y="2457" d="M118 0v285h291v-249l-180 -308h-111l139 272h-139z" />
<glyph unicode="&#x201c;" horiz-adv-x="897" vert-adv-y="2457" d="M116 807v281l170 277h106l-137 -277h137v-281h-276zM511 807v281l164 277h106l-142 -277h142v-281h-270z" />
<glyph unicode="&#x201d;" horiz-adv-x="897" vert-adv-y="2457" d="M116 807l142 277h-142v281h270v-281l-164 -277h-106zM505 807l137 277h-137v281h276v-281l-170 -277h-106z" />
<glyph unicode="&#x201e;" horiz-adv-x="897" vert-adv-y="2457" d="M116 0v281h270v-281l-164 -277h-106l142 277h-142zM505 0v281h276v-281l-170 -277h-106l137 277h-137z" />
<glyph unicode="&#x2022;" horiz-adv-x="1365" vert-adv-y="2457" d="M401 693q0 121 84 202q85 83 204 83q113 0 196 -83q84 -83 84 -201t-84 -201q-82 -83 -200 -83t-200 83q-84 83 -84 200z" />
<glyph unicode="&#x2026;" horiz-adv-x="1623" vert-adv-y="2457" d="M116 0v309h309v-309h-309zM657 0v309h310v-309h-310zM1198 0v309h309v-309h-309z" />
<glyph unicode="&#x202f;" horiz-adv-x="365" vert-adv-y="0" />
<glyph unicode="&#x2039;" horiz-adv-x="421" vert-adv-y="2457" d="M68 526l170 292h101l-101 -292l101 -287h-101z" />
<glyph unicode="&#x203a;" horiz-adv-x="421" vert-adv-y="2457" d="M82 239l101 287l-101 292h101l170 -292l-170 -287h-101z" />
<glyph unicode="&#x205f;" horiz-adv-x="456" vert-adv-y="0" />
<glyph unicode="&#x20ac;" vert-adv-y="2457" d="M10 435l67 177h73q-2 44 -2 74v24h-138l67 177h92q21 105 75 202q166 296 515 296q160 0 267 -53q31 -15 95 -59l-100 -273q-35 42 -64 66q-74 58 -184 58q-174 0 -241 -146q-18 -39 -32 -91h480l-65 -177h-437q-1 -17 -1 -42q0 -31 1 -56h402l-65 -177h-310 q12 -38 27 -65q36 -63 100 -95q69 -35 150 -35q129 0 239 89v-294q-191 -56 -299 -56q-138 0 -273 80q-200 119 -270 376h-169z" />
<glyph unicode="&#x2122;" horiz-adv-x="1768" vert-adv-y="2457" d="M-7 1200v165h655v-165h-219v-613h-219v613h-217zM722 587v778h330l149 -444l156 444h330v-778h-219v590l-208 -590h-150l-200 581v-581h-188z" />
<glyph unicode="&#x25fc;" horiz-adv-x="1010" vert-adv-y="2020" d="M0 0v1010h1010v-1010h-1010z" />
<glyph unicode="&#xfb01;" horiz-adv-x="1149" vert-adv-y="2457" d="M27 778v232h117q1 129 9.5 180.5t36.5 94.5q86 135 312 135q58 0 139 -12v-229q-67 6 -104 6q-66 0 -86 -36q-18 -32 -18 -101v-38h184v-232h-184v-778h-289v778h-117zM728 0v1010h298v-1010h-298zM728 1095v298h298v-298h-298z" />
<glyph unicode="&#xfb02;" horiz-adv-x="1149" vert-adv-y="2457" d="M27 778v232h117q1 128 9.5 180t36.5 95q86 135 312 135q58 0 139 -12v-230q-64 6 -101 6q-69 0 -89 -36q-18 -32 -18 -100v-38h184v-232h-184v-778h-289v778h-117zM728 0v1365h298v-1365h-298z" />
<glyph unicode="&#xfb03;" horiz-adv-x="1735" vert-adv-y="2457" d="M27 778v232h117q1 129 9.5 180.5t36.5 94.5q86 135 310 135q58 0 141 -12v-229q-70 6 -105 6q-66 0 -86 -36q-17 -32 -17 -101v-38h299q1 105 6 146q15 142 122 209q87 55 229 55q59 0 139 -12v-229q-67 6 -103 6q-67 0 -86 -36q-18 -32 -18 -101v-38h183v-232h-183v-778 h-289v778h-299v-778h-289v778h-117zM1314 0v1010h298v-1010h-298zM1314 1095v298h298v-298h-298z" />
<glyph unicode="&#xfb04;" horiz-adv-x="1737" vert-adv-y="2457" d="M27 778v232h117q1 128 9.5 180t36.5 95q86 135 310 135q58 0 141 -12v-230q-67 6 -102 6q-69 0 -89 -36q-17 -31 -17 -100v-38h299q1 105 6 146q15 142 122 210q87 54 229 54q59 0 139 -12v-230q-64 6 -101 6q-68 0 -88 -36q-18 -32 -18 -100v-38h183v-232h-183v-778 h-289v778h-299v-778h-289v778h-117zM1316 0v1365h298v-1365h-298z" />
</font>
</defs>
</svg>
