<?xml version="1.0" standalone="no"?>
<!DOCTYPE svg PUBLIC "-//W3C//DTD SVG 1.1//EN" "http://www.w3.org/Graphics/SVG/1.1/DTD/svg11.dtd" >
<svg xmlns="http://www.w3.org/2000/svg">
<metadata></metadata>
<defs>
<font id="franklingothicurwhearegular" horiz-adv-x="1201" vert-adv-y="2048" >
<font-face units-per-em="2048" ascent="1727" descent="-321" />
<missing-glyph horiz-adv-x="512" />
<glyph horiz-adv-x="2048" vert-adv-y="0" />
<glyph horiz-adv-x="2048" vert-adv-y="0" />
<glyph unicode="&#xd;" horiz-adv-x="2048" vert-adv-y="0" />
<glyph unicode=" " horiz-adv-x="512" vert-adv-y="2457" />
<glyph unicode="!" horiz-adv-x="646" vert-adv-y="2457" d="M89 1365h474l-114 -905h-253zM130 0v365h386v-365h-386z" />
<glyph unicode="&#x22;" horiz-adv-x="845" vert-adv-y="2457" d="M83 1365h295l-50 -576h-196zM467 1365h295l-50 -576h-196z" />
<glyph unicode="#" vert-adv-y="2457" d="M32 408l39 213h224l27 152h-221l39 211h220l70 381h225l-69 -381h161l69 381h229l-70 -381h195l-38 -211h-195l-28 -152h199l-38 -213h-199l-74 -408h-229l74 408h-160l-74 -408h-226l74 408h-224zM520 621h161l27 152h-160z" />
<glyph unicode="$" vert-adv-y="2457" d="M33 422l350 65q25 -73 61 -104q59 -50 166 -50q141 0 141 80q0 32 -23 54q-31 29 -127 48q-220 44 -334 107q-74 41 -119 111q-53 84 -53 192q0 146 91 258q100 124 302 152v171h191v-167q146 -17 241 -77q122 -78 181 -230l-312 -98q-53 127 -198 127q-71 0 -104 -33 q-18 -19 -18 -47t17 -45q27 -26 119 -46q198 -43 253 -62q277 -97 277 -361q0 -153 -98 -263q-119 -134 -358 -163v-173h-191v174q-147 18 -251 85q-112 73 -167 189q-18 37 -37 106z" />
<glyph unicode="%" horiz-adv-x="1455" vert-adv-y="2457" d="M61 1026q0 176 89 270q75 80 190 80q120 0 190 -81q87 -101 87 -277q0 -156 -76 -251q-76 -94 -204 -94q-121 0 -197 91q-79 95 -79 262zM216 0l835 1365h183l-829 -1365h-189zM270 1033q0 -140 21 -180q16 -31 48 -31q36 0 53 45q17 47 17 155q0 122 -21 170 q-15 35 -48 35q-70 0 -70 -194zM839 343q0 176 89 271q75 80 190 80q120 0 189 -81q87 -101 87 -278q0 -155 -76 -250q-75 -95 -204 -95q-121 0 -196 91q-79 96 -79 262zM1048 351q0 -141 21 -181q17 -31 48 -31q37 0 54 45q17 47 17 155q0 123 -21 171q-16 35 -49 35 q-70 0 -70 -194z" />
<glyph unicode="&#x26;" horiz-adv-x="1515" vert-adv-y="2457" d="M51 400q0 191 157 298q62 42 159 78q-48 64 -69 103q-42 79 -42 166q0 158 120 249q121 92 326 92q195 0 315 -89q119 -89 119 -246q0 -150 -113 -252q-60 -55 -146 -84l140 -149q69 74 103 231l354 -41q-38 -147 -84 -232q-62 -116 -141 -191q51 -38 131 -38q35 0 94 7 v-294q-88 -22 -165 -22q-116 0 -202 37q-47 21 -116 73q-54 -46 -127 -72q-125 -44 -269 -44q-205 0 -351 86q-193 113 -193 334zM452 428q0 -73 50 -115q46 -38 122 -38q92 0 155 54l-228 249q-99 -48 -99 -150zM618 1056q0 -42 39 -88q12 -14 26 -28q32 -29 33 -29 q100 40 100 127q0 50 -35 82q-24 22 -67 22q-45 0 -71 -26q-25 -25 -25 -60z" />
<glyph unicode="'" horiz-adv-x="461" vert-adv-y="2457" d="M83 1365h295l-50 -576h-195z" />
<glyph unicode="(" horiz-adv-x="601" vert-adv-y="2457" d="M11 534q0 459 316 831h270q-117 -178 -172 -333q-89 -249 -89 -503q0 -287 109 -564q36 -91 152 -286h-270q-146 200 -201 323q-115 258 -115 532z" />
<glyph unicode=")" horiz-adv-x="601" vert-adv-y="2457" d="M4 -321q116 177 171 333q89 250 89 503q0 288 -108 564q-37 93 -152 286h270q146 -200 201 -323q115 -258 115 -532q0 -459 -316 -831h-270z" />
<glyph unicode="*" vert-adv-y="2457" d="M102 942l80 259l319 -141l-37 333h273l-37 -333l319 141l80 -259l-333 -38l226 -238l-220 -162l-172 312l-171 -312l-220 162l226 238z" />
<glyph unicode="+" vert-adv-y="2457" d="M103 562v254h370v384h255v-384h370v-254h-370v-383h-255v383h-370z" />
<glyph unicode="," horiz-adv-x="563" vert-adv-y="2457" d="M91 0v363h380v-335l-219 -379h-157l157 351h-161z" />
<glyph unicode="-" horiz-adv-x="563" vert-adv-y="2457" d="M28 359v314h507v-314h-507z" />
<glyph unicode="." horiz-adv-x="563" vert-adv-y="2457" d="M91 0v365h380v-365h-380z" />
<glyph unicode="/" horiz-adv-x="1047" vert-adv-y="2457" d="M-125 -321l920 1686h204l-923 -1686h-201z" />
<glyph unicode="0" vert-adv-y="2457" d="M62 685q0 352 173 541q145 159 368 159q233 0 367 -160q169 -204 169 -556q0 -310 -148 -501q-145 -188 -394 -188q-236 0 -381 181q-154 192 -154 524zM461 700q0 -285 42 -366q34 -65 99 -65q74 0 108 94t34 317q0 248 -42 346q-31 72 -99 72q-76 0 -110 -100 q-32 -96 -32 -298z" />
<glyph unicode="1" vert-adv-y="2457" d="M130 0v304h337v648q-107 -46 -146 -60q-62 -24 -154 -39v307q294 65 394 226h296v-1082h323v-304h-1050z" />
<glyph unicode="2" vert-adv-y="2457" d="M61 0v314l233 163q84 59 227 182q124 107 159 171q28 51 28 105q0 69 -41 109q-37 35 -93 35q-149 0 -168 -236l-345 67q20 113 50 180q75 166 243 243q114 53 251 53q208 0 345 -104q158 -120 158 -332q0 -158 -100 -281q-76 -94 -274 -231q-49 -34 -150 -103h532 l-15 -335h-1040z" />
<glyph unicode="3" vert-adv-y="2457" d="M25 417l356 45q35 -187 202 -187q71 0 117 36q50 39 50 104q0 73 -58 115q-35 26 -122 26h-166v285h139q89 0 125 24q51 34 51 100q0 56 -43 93q-39 32 -102 32q-139 0 -170 -156l-331 52q37 147 125 239q153 161 410 161q217 0 357 -101q62 -45 101 -122q38 -76 38 -162 q0 -131 -89 -219q-44 -44 -114 -69q85 -28 136 -68q110 -89 110 -255q0 -176 -121 -280q-152 -130 -421 -130q-219 0 -350 88q-136 92 -197 240q-17 39 -33 109z" />
<glyph unicode="4" vert-adv-y="2457" d="M52 300v296l514 790h419v-790h193v-296h-193v-300h-375v300h-558zM350 596h260v409z" />
<glyph unicode="5" vert-adv-y="2457" d="M50 398l352 43q14 -58 46 -91q56 -57 145 -57q79 0 125 50q43 46 43 115q0 82 -57 127q-49 38 -115 38q-99 0 -160 -86l-313 44l60 784h911l-36 -337h-572l-16 -193q117 77 244 77q112 0 219 -55q117 -60 177 -176q50 -98 50 -217q0 -208 -145 -342q-154 -142 -406 -142 q-254 0 -414 153q-85 80 -118 185q-9 26 -20 80z" />
<glyph unicode="6" vert-adv-y="2457" d="M59 654q0 326 156 537q72 98 185 148q103 46 227 46q255 0 393 -173q72 -90 95 -233l-349 -42q-12 88 -35 118q-35 45 -99 45q-169 0 -173 -355q85 127 271 127q182 0 296 -110q124 -120 124 -310q0 -197 -140 -330q-149 -142 -380 -142q-260 0 -408 167 q-163 184 -163 507zM462 418q0 -72 46 -119q42 -42 107 -42q73 0 115 54q35 45 35 105q0 82 -53 133q-38 36 -93 36q-76 0 -121 -59q-36 -47 -36 -108z" />
<glyph unicode="7" vert-adv-y="2457" d="M92 1022l29 343h981v-257q-68 -77 -152 -231q-111 -205 -169 -447q-42 -178 -42 -344q0 -25 4 -86h-451q0 144 51 330q65 242 217 479q75 117 165 213h-633z" />
<glyph unicode="8" vert-adv-y="2457" d="M44 360q0 148 106 242q36 32 107 66q-171 101 -171 295q0 127 73 231q76 106 217 155q105 36 231 36q206 0 347 -86q76 -46 119 -124q39 -71 39 -154q0 -137 -101 -224q-26 -21 -75 -55q88 -48 132 -94q89 -93 89 -242q0 -218 -174 -327q-159 -99 -405 -99 q-234 0 -377 92q-83 53 -125 142q-32 67 -32 146zM399 389q0 -62 50 -102q56 -44 153 -44q100 0 143 48q22 24 22 58q0 78 -118 123l-155 59q-95 -62 -95 -142zM456 1013q0 -75 100 -116l125 -51q85 46 85 127q0 71 -59 111q-46 31 -118 31q-56 0 -90 -22q-43 -28 -43 -80z " />
<glyph unicode="9" vert-adv-y="2457" d="M55 916q0 203 136 333q143 137 389 137q272 0 415 -180t143 -495q0 -294 -128 -498q-146 -234 -455 -234q-241 0 -372 154q-69 82 -92 211l350 56q26 -126 131 -126q89 0 136 86q41 76 41 214q0 17 -1 40q-36 -47 -63 -69q-77 -62 -203 -62q-174 0 -292 108 q-135 124 -135 325zM435 936q0 -77 39 -120q39 -44 102 -44q74 0 121 58q32 40 32 103q0 89 -52 137q-40 37 -95 37q-70 0 -113 -53q-34 -43 -34 -118z" />
<glyph unicode=":" horiz-adv-x="563" vert-adv-y="2457" d="M91 0v365h380v-365h-380zM91 652v365h380v-365h-380z" />
<glyph unicode=";" horiz-adv-x="563" vert-adv-y="2457" d="M91 0v363h380v-335l-219 -379h-157l157 351h-161zM91 652v365h380v-365h-380z" />
<glyph unicode="&#x3c;" vert-adv-y="2457" d="M137 567v236l887 458v-280l-589 -297l589 -297v-278z" />
<glyph unicode="=" vert-adv-y="2457" d="M103 359v254h995v-254h-995zM103 739v254h995v-254h-995z" />
<glyph unicode="&#x3e;" vert-adv-y="2457" d="M177 109v280l589 296l-589 298v278l887 -458v-237z" />
<glyph unicode="?" horiz-adv-x="1119" vert-adv-y="2457" d="M20 917q29 144 76 225q140 244 469 244q255 0 390 -146q110 -119 110 -280q0 -162 -109 -270q-31 -30 -120 -95q-70 -51 -90 -75q-19 -22 -27 -69h-333q2 114 16 158q18 55 55 94q6 7 67 62q60 53 89 94q35 49 35 120q0 69 -41 103q-32 26 -74 26q-78 0 -118 -75 q-25 -48 -28 -156zM374 0v365h382v-365h-382z" />
<glyph unicode="@" horiz-adv-x="1570" vert-adv-y="2457" d="M68 683q0 203 100 370q93 157 257 251q177 102 389 102q209 0 378 -99q143 -84 225 -220q85 -142 85 -305q0 -165 -87 -303q-69 -109 -180 -159q-71 -31 -141 -31q-108 0 -171 87q-78 -91 -185 -91q-88 0 -163 59q-74 58 -108 167q-22 69 -22 147q0 178 105 289 q94 99 225 99q58 0 103 -23q20 -10 55 -37l12 44h189l-55 -449q-5 -43 -5 -82q0 -20 6 -29q7 -11 32 -11t47 11q59 28 95 84q65 99 65 223q0 201 -146 334q-144 131 -358 131q-233 0 -390 -162q-156 -161 -156 -396q0 -220 137 -376q154 -176 425 -176q185 0 321 64l65 30 q14 6 44 21l66 -164q-8 -4 -11 -5q-13 -7 -26 -13q-131 -61 -228.5 -83.5t-227.5 -22.5q-238 0 -410 98q-159 91 -254 251q-102 171 -102 375zM645 651q0 -78 31 -129q28 -45 74 -45q70 0 118 65q52 70 52 155q0 71 -40 114t-94 43q-61 0 -100 -54q-41 -58 -41 -149z" />
<glyph unicode="A" horiz-adv-x="1299" vert-adv-y="2457" d="M0 0l422 1365h443l427 -1365h-427l-77 269h-366l-82 -269h-340zM493 567h222l-111 396z" />
<glyph unicode="B" horiz-adv-x="1316" vert-adv-y="2457" d="M119 0v1365h693q211 0 317 -112q97 -103 97 -246q0 -127 -83 -214q-52 -55 -147 -85q107 -25 168 -82q97 -90 97 -237q0 -139 -73 -243q-70 -99 -207 -128q-82 -18 -212 -18h-650zM505 304h204q69 0 105 32q41 37 41 91q0 65 -57 102q-34 22 -103 22h-190v-247zM505 842 h193q69 0 100 33q33 35 33 84q0 112 -139 112h-187v-229z" />
<glyph unicode="C" horiz-adv-x="1287" vert-adv-y="2457" d="M58 671q0 350 191 550q157 164 433 164q345 0 491 -264q62 -112 80 -283l-391 -21q-2 98 -27 156q-19 42 -56 70q-41 32 -93 32q-53 0 -96.5 -34t-65.5 -92q-36 -99 -36 -281q0 -167 34 -257q44 -116 164 -116q164 0 184 226l383 -23q-19 -136 -55 -212 q-84 -177 -261 -255q-115 -51 -259 -51q-266 0 -432 166q-188 188 -188 525z" />
<glyph unicode="D" horiz-adv-x="1391" vert-adv-y="2457" d="M119 0v1365h528q230 0 373 -86q167 -101 251 -289q62 -141 62 -305q0 -202 -92 -369q-97 -176 -279 -258q-129 -58 -289 -58h-554zM538 314h109q79 0 141 59q55 50 83 145q24 77 24 166q0 149 -62 259q-63 112 -187 112h-108v-741z" />
<glyph unicode="E" horiz-adv-x="1193" vert-adv-y="2457" d="M119 0v1365h1027v-315h-616v-198h498v-303h-498v-223h616v-326h-1027z" />
<glyph unicode="F" horiz-adv-x="1120" vert-adv-y="2457" d="M119 0v1365h987v-325h-579v-222h445v-307h-445v-511h-408z" />
<glyph unicode="G" horiz-adv-x="1400" vert-adv-y="2457" d="M58 664q0 313 167 515q170 206 485 206q339 0 499 -240q55 -83 89 -234l-406 -41q-14 82 -39 127q-47 85 -147 85q-113 0 -164 -113q-43 -97 -43 -288q0 -138 21 -208q50 -169 204 -169q79 0 130 45q52 46 55 127h-226v289h615v-765h-205q-25 81 -55 143 q-68 -79 -136 -113q-103 -50 -240 -50q-253 0 -418 168q-186 189 -186 516z" />
<glyph unicode="H" horiz-adv-x="1395" vert-adv-y="2457" d="M119 0v1365h419v-502h320v502h419v-1365h-419v531h-320v-531h-419z" />
<glyph unicode="I" horiz-adv-x="657" vert-adv-y="2457" d="M119 0v1365h419v-1365h-419z" />
<glyph unicode="J" horiz-adv-x="852" vert-adv-y="2457" d="M14 12v326q89 -25 166 -25q89 0 132 49q24 27 28 68q4 30 4 75v860h403v-860q0 -169 -20 -248q-38 -157 -174 -228q-92 -49 -262 -49q-140 0 -277 32z" />
<glyph unicode="K" horiz-adv-x="1343" vert-adv-y="2457" d="M119 0v1365h395v-564l377 564h377l-345 -499l428 -866h-460l-235 516l-142 -201v-315h-395z" />
<glyph unicode="L" horiz-adv-x="1103" vert-adv-y="2457" d="M119 0v1365h419v-1030h538v-335h-957z" />
<glyph unicode="M" horiz-adv-x="1722" vert-adv-y="2457" d="M119 0v1365h547l198 -725l189 725h550v-1365h-389v976l-253 -976h-266l-262 976v-976h-314z" />
<glyph unicode="N" horiz-adv-x="1405" vert-adv-y="2457" d="M119 0v1365h396l318 -500q95 -149 144 -262q-32 190 -32 358v404h341v-1365h-341l-374 603l-39 71q-62 111 -106 211q33 -143 33 -224v-661h-340z" />
<glyph unicode="O" horiz-adv-x="1414" vert-adv-y="2457" d="M58 681q0 322 185 518q176 186 467 186q284 0 462 -183q184 -189 184 -517q0 -320 -187 -517q-179 -188 -460 -188q-284 0 -462 183q-189 194 -189 518zM509 670q0 -380 198 -380q101 0 150 87t49 341q0 357 -192 357q-205 0 -205 -405z" />
<glyph unicode="P" horiz-adv-x="1317" vert-adv-y="2457" d="M119 0v1365h583q202 0 308 -41q156 -59 226 -202q44 -89 44 -191q0 -136 -73 -244q-70 -105 -198 -153q-103 -39 -227 -39h-238v-495h-425zM538 789h141q91 0 132 27q52 35 52 108q0 128 -171 128h-154v-263z" />
<glyph unicode="Q" horiz-adv-x="1424" vert-adv-y="2457" d="M58 678q0 328 200 531q174 176 452 176q302 0 473 -188q183 -200 183 -519q0 -280 -144 -457q-41 -50 -108 -98q8 -29 23 -39q37 -27 110 -27q40 0 109 12v-309q-116 -11 -166 -11q-164 0 -248 77q-54 49 -91 174q-88 -21 -169 -21q-232 0 -393 138q-107 92 -163 225 q-68 158 -68 336zM512 688q0 -201 36 -292q42 -106 166 -106q135 0 172 114q30 89 30 248q0 155 -20 248q-18 82 -54 122q-47 53 -133 53q-130 0 -170 -129q-27 -85 -27 -258z" />
<glyph unicode="R" horiz-adv-x="1413" vert-adv-y="2457" d="M119 0v1365h713q245 0 377 -119q120 -109 120 -295q0 -171 -108 -271q-43 -40 -134 -85l246 -595h-464l-199 522h-132v-522h-419zM538 814h179q83 0 129 34t46 97q0 71 -59 106q-37 23 -102 23h-193v-260z" />
<glyph unicode="S" horiz-adv-x="1244" vert-adv-y="2457" d="M-22 395l389 70q28 -78 68 -111q65 -53 186 -53q156 0 156 86q0 34 -26 58q-34 31 -141 51q-242 47 -372 115q-82 43 -132 119q-59 90 -59 207q0 134 78 246t229 163q116 39 255 39q424 0 557 -335l-347 -104q-58 136 -221 136q-79 0 -116 -36q-20 -19 -20 -50 q0 -30 19 -48q30 -28 133 -50q219 -46 281 -67q308 -104 308 -388q0 -142 -84 -253q-84 -110 -241 -165q-127 -45 -287 -45q-299 0 -473 166q-78 73 -116 173q-9 25 -24 76z" />
<glyph unicode="T" horiz-adv-x="963" vert-adv-y="2457" d="M0 1037v328h963v-328h-283v-1037h-397v1037h-283z" />
<glyph unicode="U" horiz-adv-x="1331" vert-adv-y="2457" d="M105 439v926h426v-877q0 -97 34 -135q47 -53 140 -53q63 0 114 26q65 34 75 112q3 25 3 128v799h329v-904q0 -159 -52 -253q-71 -128 -225 -186q-114 -43 -273 -43q-297 0 -450 137q-121 108 -121 323z" />
<glyph unicode="V" horiz-adv-x="1280" vert-adv-y="2457" d="M-7 1365h442l204 -710q32 -99 50 -164q18 63 48 164l204 710h345l-424 -1365h-427z" />
<glyph unicode="W" horiz-adv-x="1843" vert-adv-y="2457" d="M14 1365h394l191 -788l186 788h330l202 -788l191 788h321l-362 -1365h-352l-191 753l-180 -753h-367z" />
<glyph unicode="X" horiz-adv-x="1322" vert-adv-y="2457" d="M-27 0l440 707l-422 658h488l212 -367l220 367h376l-396 -634l459 -731h-487l-252 429l-254 -429h-384z" />
<glyph unicode="Y" horiz-adv-x="1211" vert-adv-y="2457" d="M-41 1365h459l238 -449l229 449h367l-427 -787v-578h-407v578z" />
<glyph unicode="Z" horiz-adv-x="1204" vert-adv-y="2457" d="M34 0v261l604 787h-558v317h1071v-265l-587 -778h606v-322h-1136z" />
<glyph unicode="[" horiz-adv-x="601" vert-adv-y="2457" d="M75 -321v1686h471v-164h-173v-1355h173v-167h-471z" />
<glyph unicode="\" horiz-adv-x="1047" vert-adv-y="2457" d="M48 1365h204l920 -1686h-201z" />
<glyph unicode="]" horiz-adv-x="601" vert-adv-y="2457" d="M54 -157h173v1355h-173v167h471v-1686h-471v164z" />
<glyph unicode="^" horiz-adv-x="1024" vert-adv-y="2457" d="M9 685l323 689h360l323 -689h-287l-216 469l-216 -469h-287z" />
<glyph unicode="_" horiz-adv-x="1024" vert-adv-y="2457" d="M0 -94h1024v-239h-1024v239z" />
<glyph unicode="`" horiz-adv-x="1024" vert-adv-y="2457" d="M206 1327l73 195l457 -224l-52 -137z" />
<glyph unicode="a" vert-adv-y="2457" d="M51 282q0 156 132 251q154 110 534 129v23q0 62 -28 86q-29 24 -93 24q-134 0 -153 -110l-363 33q40 146 141 218q143 101 388 101q202 0 323 -60q107 -53 144 -140q24 -55 24 -233v-406q0 -78 9 -123q6 -27 22 -75h-379q-13 65 -14 142q-116 -162 -327 -162 q-150 0 -243 69q-117 87 -117 233zM462 313q0 -92 101 -92q97 0 133 71q21 42 21 135v49q-255 -30 -255 -163z" />
<glyph unicode="b" horiz-adv-x="1203" vert-adv-y="2457" d="M106 0v1365h393v-469q25 40 46 61q79 80 215 80q171 0 267 -117q121 -147 121 -395q0 -234 -101 -385q-108 -161 -337 -161q-147 0 -242 71q-38 29 -85 90q-33 -64 -53 -140h-224zM499 379q0 -67 29 -108q29 -42 85 -42q70 0 98 54q34 66 34 218q0 151 -25 214 q-12 31 -41 52q-29 20 -66 20q-47 0 -81 -37q-33 -36 -33 -95v-276z" />
<glyph unicode="c" horiz-adv-x="1071" vert-adv-y="2457" d="M51 501q0 170 84 307q74 122 204 180q110 49 240 49q215 0 350 -137q83 -85 110 -192q7 -24 14 -74l-349 -29q-11 62 -20 87q-26 73 -102 73q-66 0 -93 -56q-30 -63 -30 -205q0 -122 29 -183q30 -61 100 -61q106 0 129 150l340 -29q-24 -152 -105 -245 q-135 -156 -380 -156q-215 0 -352 124q-169 152 -169 397z" />
<glyph unicode="d" horiz-adv-x="1203" vert-adv-y="2457" d="M55 508q0 270 124 416q107 125 277 125q99 0 174 -47q31 -20 75 -68v431h393v-1365h-374v135q-42 -72 -87 -104q-71 -51 -189 -51q-170 0 -268 118q-125 149 -125 410zM464 491q0 -247 126 -247q53 0 86 47q29 40 29 111v252q0 137 -113 137q-68 0 -98 -69 q-30 -71 -30 -231z" />
<glyph unicode="e" vert-adv-y="2457" d="M51 497q0 156 81 293q78 133 222 196q116 51 255 51q233 0 381 -139q160 -150 160 -410q0 -22 -1 -59h-681q2 -99 29 -134q41 -54 127 -54q80 0 118 43q21 24 35 81l372 -25q-25 -104 -97 -189q-147 -171 -431 -171q-243 0 -394 126q-84 71 -131 174q-45 102 -45 217z M467 630h284q-2 75 -23 113q-32 60 -119 60q-141 0 -142 -173z" />
<glyph unicode="f" horiz-adv-x="803" vert-adv-y="2457" d="M7 758v259h152q0 131 9 173q27 132 131 193q86 50 249 50q140 0 288 -27v-258q-25 3 -86 10q-53 7 -93 7q-68 0 -101 -31q-24 -23 -24 -84q0 -9 1 -33h259v-259h-256v-758h-377v758h-152z" />
<glyph unicode="g" horiz-adv-x="1166" vert-adv-y="2457" d="M3 -95q0 132 146 193q-95 71 -95 159q0 100 81 164q37 28 115 62q-75 35 -107 71q-57 65 -57 164q0 167 156 251q131 71 338 71q98 0 192 -23q16 98 56 152q65 87 195 87q45 0 143 -8l-10 -273q-75 4 -96 4q-47 0 -76 -9q-21 -6 -36 -28q113 -93 113 -233 q0 -191 -200 -267q-103 -40 -268 -40q-9 0 -74 3h-13q-98 0 -98 -49q0 -23 20 -35q18 -10 66 -12l326 -14q154 -7 238 -76q48 -39 78 -104q30 -66 30 -135q0 -120 -83 -204q-75 -76 -224 -105q-113 -22 -302 -22q-554 0 -554 256zM334 -50q0 -52 61 -71q69 -22 213 -22 q105 0 150 12q57 16 57 69q0 39 -31 53q-18 8 -61 10l-244 12q-17 1 -42 1q-57 0 -77 -12q-26 -15 -26 -52zM460 715q0 -124 118 -124q120 0 120 121q0 68 -38 101q-32 26 -79 26q-59 0 -92 -36q-29 -30 -29 -88z" />
<glyph unicode="h" horiz-adv-x="1210" vert-adv-y="2457" d="M105 0v1365h398v-468q114 140 282 140q173 0 261 -113q44 -55 52 -116q6 -48 6 -146v-662h-399v612l1 31v21q0 95 -90 95q-64 0 -97 -53q-16 -27 -16 -69l1 -62v-575h-399z" />
<glyph unicode="i" horiz-adv-x="609" vert-adv-y="2457" d="M105 0v1017h399v-1017h-399zM105 1093v315h399v-315h-399z" />
<glyph unicode="j" horiz-adv-x="609" vert-adv-y="2457" d="M-87 -45q48 -19 86 -19q63 0 88 35q19 28 19 89v957h399v-957q0 -141 -20 -205q-64 -210 -377 -210q-90 0 -195 19v291zM106 1092v314h399v-314h-399z" />
<glyph unicode="k" horiz-adv-x="1175" vert-adv-y="2457" d="M105 0v1365h374v-552q0 -23 -3 -183q37 52 73 93l255 294h352l-307 -350l342 -667h-412l-191 407l-109 -127v-280h-374z" />
<glyph unicode="l" horiz-adv-x="603" vert-adv-y="2457" d="M105 0v1365h393v-1365h-393z" />
<glyph unicode="m" horiz-adv-x="1752" vert-adv-y="2457" d="M105 0v1017h358v-137q97 157 283 157q191 0 283 -157q46 67 95 102q79 56 207 56q139 0 229 -81q57 -51 73 -114q13 -54 13 -152v-691h-388v636q0 60 -11 80q-22 35 -74 35q-62 0 -90 -48q-19 -34 -19 -115v-588h-384v636q0 122 -92 122q-99 0 -99 -122v-636h-384z" />
<glyph unicode="n" horiz-adv-x="1203" vert-adv-y="2457" d="M105 0v1017h370v-144q42 74 88 107q81 57 210 57q150 0 244 -87q56 -52 69 -121q12 -63 12 -179v-650h-399v640q0 63 -16 89q-20 34 -69 34q-110 0 -110 -152v-611h-399z" />
<glyph unicode="o" horiz-adv-x="1217" vert-adv-y="2457" d="M51 506q0 155 76 281q79 131 229 199q113 51 253 51q259 0 415 -159q142 -145 142 -373q0 -149 -77 -276q-80 -132 -222 -196q-119 -53 -265 -53q-237 0 -392 147q-159 152 -159 379zM476 508q0 -159 32 -228q27 -59 98 -59q82 0 106 68q29 79 29 227q0 145 -30 211 q-27 60 -102 60q-62 0 -92 -48q-41 -67 -41 -231z" />
<glyph unicode="p" vert-adv-y="2457" d="M105 -321v1338h367v-145q42 78 89 112q73 53 199 53q194 0 295 -157q92 -143 92 -370q0 -250 -114 -397q-102 -133 -269 -133q-108 0 -186 52q-33 23 -74 77v-430h-399zM504 372q0 -70 30 -106t80 -36q80 0 104 84q21 69 21 187q0 183 -43 243q-32 44 -81 44 q-46 0 -80 -35q-31 -32 -31 -89v-292z" />
<glyph unicode="q" horiz-adv-x="1206" vert-adv-y="2457" d="M55 498q0 250 129 402q69 81 160 113q67 24 162 24q147 0 231 -66q38 -29 77 -92q39 69 66 138h231q-10 -53 -10 -138v-1200h-393v430q-35 -62 -77 -87q-67 -42 -169 -42q-180 0 -287 132q-120 147 -120 386zM463 502q0 -181 41 -237q33 -44 82 -44q64 0 101 57 q21 32 21 93v273q0 78 -33 118q-34 42 -83 42q-61 0 -95 -62t-34 -240z" />
<glyph unicode="r" horiz-adv-x="781" vert-adv-y="2457" d="M105 0v1017h332v-210q33 116 87 167q64 62 183 62q20 0 53 -4v-355q-44 11 -76 11q-197 0 -197 -222v-466h-382z" />
<glyph unicode="s" horiz-adv-x="1085" vert-adv-y="2457" d="M15 288l316 43q19 -61 64 -83q56 -27 148 -27q155 0 155 62q0 24 -26 37q-34 16 -186 37q-185 25 -287 82q-65 36 -104 111q-32 63 -32 138q0 162 134 256q132 93 345 93q238 0 374 -127q58 -55 90 -139l-302 -57q-25 47 -58 64q-50 26 -120 26q-80 0 -115 -32 q-10 -9 -10 -23q0 -23 29 -40q23 -13 201 -35q148 -18 215 -45q107 -43 160 -127q44 -70 44 -159q0 -128 -85 -219q-134 -144 -441 -144q-222 0 -357 95q-104 73 -152 213z" />
<glyph unicode="t" horiz-adv-x="760" vert-adv-y="2457" d="M-7 758v259h171l26 325l349 12l-9 -337h203v-259h-203v-375q0 -62 18 -82q24 -24 74 -24q45 0 111 17v-284q-125 -23 -230 -23q-160 0 -238 54q-72 49 -100 124q-21 57 -21 156l1 116v321h-152z" />
<glyph unicode="u" horiz-adv-x="1199" vert-adv-y="2457" d="M105 290v727h399v-640q0 -53 10 -74q18 -36 71 -36q46 0 77 30q39 37 39 110v610h393v-1017h-369v167q-31 -75 -84 -116q-95 -72 -232 -72q-133 0 -214 70q-90 79 -90 241z" />
<glyph unicode="v" horiz-adv-x="1037" vert-adv-y="2457" d="M-7 1017h410l145 -432l12 -38q12 -38 20 -67q6 22 12 37q16 45 16 47l150 453h286l-373 -1017h-298z" />
<glyph unicode="w" horiz-adv-x="1521" vert-adv-y="2457" d="M14 1017h392l134 -498l128 498h294l127 -498l141 498h277l-322 -1017h-287l-133 551l-139 -551h-284z" />
<glyph unicode="x" horiz-adv-x="1133" vert-adv-y="2457" d="M-14 0l357 539l-313 478h444l100 -179q11 -23 17 -33q10 -17 19 -34q10 17 26 46l12 21l104 179h329l-298 -462l363 -555h-450l-187 324l-199 -324h-324z" />
<glyph unicode="y" horiz-adv-x="1049" vert-adv-y="2457" d="M-7 1017h427l168 -542l176 542h291l-400 -1102q-53 -148 -155 -213q-85 -54 -242 -54q-47 0 -199 10v283q84 -13 142 -13q101 0 137 19q37 20 37 60q0 21 -18 67z" />
<glyph unicode="z" horiz-adv-x="965" vert-adv-y="2457" d="M34 0v221l429 551q-79 -3 -105 -3h-289v248h846v-214l-436 -550q18 0 51 1h29h372v-254h-897z" />
<glyph unicode="{" horiz-adv-x="601" vert-adv-y="2457" d="M-7 459v145q61 12 86 46q10 14 18 45t8 57v334q0 164 87 227q56 40 137 48q34 4 86 4q23 0 187 -4v-159h-43q-103 0 -132 -20q-20 -14 -25 -38q-4 -21 -4 -75v-302q0 -119 -42 -177q-21 -28 -81 -68q60 -37 83 -71q40 -61 40 -174v-297q0 -71 9 -89q13 -29 53 -38 q34 -7 100 -7q11 0 42 1v-164q-164 -4 -188 -4q-97 0 -148 16q-109 35 -142 130q-19 54 -19 133v334q0 87 -27 121q-28 36 -85 46z" />
<glyph unicode="|" horiz-adv-x="1024" vert-adv-y="2457" d="M371 -341v1706h283v-1706h-283z" />
<glyph unicode="}" horiz-adv-x="601" vert-adv-y="2457" d="M-1 -158h43q103 0 132 20q20 14 25 38q4 20 4 76v301q0 119 42 177q21 29 81 68q-60 37 -83 71q-40 61 -40 174v297q0 71 -9 89q-13 29 -53 38q-34 7 -100 7q-12 0 -42 -1v164q46 1 69 1q90 3 119 3q97 0 148 -16q109 -34 142 -130q19 -54 19 -133v-335q0 -86 27 -120 q28 -36 85 -46v-145q-60 -12 -86 -46q-15 -21 -22 -69q-4 -29 -4 -33v-334q0 -164 -87 -227q-56 -40 -137 -48q-34 -4 -86 -4q-35 0 -187 4v159z" />
<glyph unicode="~" vert-adv-y="2457" d="M102 578q50 124 102 190q78 98 210 98q67 0 214 -54q92 -34 115 -40q32 -7 58 -7q59 0 98 40q17 19 44 65l156 -96q-43 -93 -71 -134q-99 -144 -255 -144q-52 0 -204 54q-133 47 -171 47q-49 0 -86 -33q-22 -19 -58 -90z" />
<glyph unicode="&#xa0;" horiz-adv-x="512" vert-adv-y="2457" />
<glyph unicode="&#xa1;" horiz-adv-x="646" vert-adv-y="2457" d="M83 -321l113 905h253l108 -905h-474zM130 679v365h386v-365h-386z" />
<glyph unicode="&#xa2;" vert-adv-y="2457" d="M122 720q0 248 164 391q88 76 232 109v204h191v-204q158 -28 252 -121q68 -68 97 -157q10 -31 20 -90l-335 -26q-4 71 -39 111q-32 39 -79 39q-128 0 -128 -249q0 -236 129 -236q106 0 131 137l320 -27q-35 -174 -140 -264q-93 -79 -228 -103v-257h-191v257 q-139 33 -222 97q-174 134 -174 389z" />
<glyph unicode="&#xa3;" vert-adv-y="2457" d="M38 0v294h60q95 0 143 52q47 51 47 128q0 55 -18 140h-172v242h130q-14 86 -14 148q0 175 123 281q154 134 378 134q182 0 310 -99q64 -49 98 -117q12 -26 29 -72l-302 -107q-19 46 -32 66q-30 46 -90 46q-61 0 -91 -45q-21 -30 -21 -74q0 -61 22 -161h212v-242h-181v-29 q0 -174 -143 -291h169q86 0 137 57q28 30 44 111l320 -62q-37 -160 -131 -262q-128 -138 -338 -138h-689z" />
<glyph unicode="&#xa4;" horiz-adv-x="1365" vert-adv-y="2457" d="M40 1268l145 144l213 -212q137 89 286 89q148 0 281 -87l211 209l144 -144l-209 -209q93 -146 93 -285q0 -144 -89 -280l211 -211l-143 -145l-210 211q-138 -92 -291 -92q-141 0 -287 91l-210 -209l-143 143l210 211q-89 131 -89 281q0 147 91 282zM406 772 q0 -115 81 -197q82 -82 197 -82t197 82q81 82 81 198q0 117 -82 197q-83 82 -193 82q-118 0 -200 -82q-81 -81 -81 -198z" />
<glyph unicode="&#xa5;" horiz-adv-x="1199" vert-adv-y="2457" d="M21 1365h391l239 -490l229 490h298l-220 -450h161v-205h-261l-47 -95h308v-205h-326v-410h-354v410h-332v205h312l-50 95h-262v205h153z" />
<glyph unicode="&#xa6;" horiz-adv-x="1024" vert-adv-y="2457" d="M371 314h283v-655h-283v655zM371 652v713h283v-713h-283z" />
<glyph unicode="&#xa7;" vert-adv-y="2457" d="M117 -40l295 48q70 -129 222 -129q75 0 121 31q38 25 38 69q0 49 -67 90q-37 22 -204 85q-220 83 -300 164q-82 83 -82 222q0 109 60 203q19 31 61 82q-46 40 -66 77q-33 62 -33 144q0 152 116 240q132 99 349 99q194 0 311 -88q71 -54 123 -157l-247 -71 q-58 113 -195 113q-82 0 -119 -40q-13 -14 -13 -35q0 -53 74 -87q27 -13 167 -69q150 -62 185 -83q91 -56 132 -145q31 -69 31 -143q0 -133 -113 -259q144 -99 144 -275q0 -161 -117 -265q-139 -122 -381 -122q-233 0 -370 123q-66 60 -122 178zM435 609q0 -55 73 -90 q23 -11 223 -92q61 47 61 90q0 61 -86 102q-67 32 -216 89q-55 -47 -55 -99z" />
<glyph unicode="&#xa8;" horiz-adv-x="1024" vert-adv-y="2457" d="M199 1320q0 55 39 93q39 39 93 39q55 0 93 -39q39 -39 39 -95q0 -52 -37 -90q-39 -40 -94 -40q-54 0 -93 38q-40 39 -40 94zM559 1321q0 55 39 93q40 38 93 38q54 0 93 -38q39 -39 39 -96q0 -52 -38 -90q-39 -40 -93 -40q-55 0 -94 39t-39 94z" />
<glyph unicode="&#xa9;" horiz-adv-x="1584" vert-adv-y="2457" d="M89 683q0 197 103 367q101 166 281 258q149 77 318 77q291 0 498 -206q206 -205 206 -505q0 -190 -103 -358q-104 -169 -281 -259q-150 -77 -319 -77q-198 0 -367 104q-169 103 -259 280q-77 150 -77 319zM252 683q0 -226 158 -386t382 -160t382 160q76 76 117 177 q41 100 41 202q0 237 -158 392q-162 160 -383 160q-222 0 -381 -160q-75 -75 -117 -177q-41 -101 -41 -208zM403 676q0 211 123 330q101 98 275 98q240 0 329 -187q27 -56 37 -149l-265 -13q-3 152 -99 152q-111 0 -111 -235q0 -211 111 -211q60 0 87 54q12 25 18 80 l259 -15q-15 -108 -55 -167q-102 -152 -313 -152q-169 0 -275 98q-121 113 -121 317z" />
<glyph unicode="&#xaa;" horiz-adv-x="786" vert-adv-y="2457" d="M41 939q0 95 88 151q98 61 325 74q0 38 -6 54q-10 25 -60 25q-58 0 -80 -34q-5 -6 -11 -32l-240 21q19 64 48 96q88 98 292 98q201 0 276 -85q24 -26 31 -56q9 -33 9 -121v-239q0 -65 22 -124h-259q-7 34 -9 63l-6 -6q-65 -69 -186 -69q-94 0 -155 41q-79 52 -79 143z M311 958q0 -54 57 -54q67 0 84 51q9 26 9 98q-150 -18 -150 -95z" />
<glyph unicode="&#xab;" horiz-adv-x="771" vert-adv-y="2457" d="M61 492l179 292h140l-107 -292l107 -272h-140zM380 492l174 292h141l-105 -292l105 -272h-141z" />
<glyph unicode="&#xac;" vert-adv-y="2457" d="M157 301v252h887v-553h-281v301h-606z" />
<glyph unicode="&#xad;" horiz-adv-x="563" vert-adv-y="2457" d="M28 359v314h507v-314h-507z" />
<glyph unicode="&#xae;" horiz-adv-x="1584" vert-adv-y="2457" d="M89 683q0 197 103 367q101 166 281 258q149 77 318 77q291 0 498 -206q206 -205 206 -505q0 -190 -103 -358q-104 -169 -281 -259q-150 -77 -319 -77q-198 0 -367 104q-169 103 -259 280q-77 150 -77 319zM252 683q0 -226 158 -386t382 -160t382 160q76 76 117 177 q41 100 41 202q0 237 -158 392q-162 160 -383 160q-222 0 -381 -160q-75 -75 -117 -177q-41 -101 -41 -208zM444 300v765h403q128 0 206 -58q82 -62 82 -177q0 -97 -65 -155q-23 -20 -69 -43l139 -332h-274l-111 291h-63v-291h-248zM692 755h90q95 0 95 72q0 71 -87 71h-98 v-143z" />
<glyph unicode="&#xaf;" horiz-adv-x="1024" vert-adv-y="2457" d="M188 1209v154h647v-154h-647z" />
<glyph unicode="&#xb0;" vert-adv-y="2457" d="M297 1087q0 127 89 212q91 88 215 88q125 0 215 -88q89 -87 89 -212q0 -124 -88 -212q-89 -89 -219 -89q-124 0 -213 90q-88 88 -88 211zM464 1087q0 -59 41 -100q40 -40 94 -40q58 0 98 40q41 40 41 99t-41 99q-41 41 -97 41q-57 0 -97 -42q-39 -40 -39 -97z" />
<glyph unicode="&#xb1;" vert-adv-y="2457" d="M103 -120v254h995v-254h-995zM103 583v254h370v363h255v-363h370v-254h-370v-363h-255v363h-370z" />
<glyph unicode="&#xb2;" horiz-adv-x="792" vert-adv-y="2457" d="M39 1086q27 141 112 210q99 81 247 81q135 0 228 -62q105 -71 105 -201q0 -95 -66 -170q-49 -55 -179 -138q-64 -40 -81 -51h332l-11 -209h-686v194l154 98q104 67 206 157q61 53 61 110q0 39 -25 61q-23 19 -57 19q-93 0 -104 -141z" />
<glyph unicode="&#xb3;" horiz-adv-x="792" vert-adv-y="2457" d="M15 803l243 28q22 -111 127 -111q44 0 73 20q31 22 31 61q0 43 -35 66q-22 15 -78 15h-113v167h96q56 0 79 14q30 17 30 57q0 35 -26 54q-23 18 -62 18q-89 0 -107 -93l-226 33q25 93 84 148q102 97 271 97q142 0 235 -60q42 -27 68 -75q25 -46 25 -97q0 -80 -60 -134 q-26 -24 -61 -37q147 -48 147 -191q0 -108 -81 -171q-101 -78 -277 -78q-314 0 -383 269z" />
<glyph unicode="&#xb4;" horiz-adv-x="1024" vert-adv-y="2457" d="M288 1298l457 224l73 -195l-478 -166z" />
<glyph unicode="&#xb5;" vert-adv-y="2457" d="M99 -341v1351h399v-515q0 -139 12 -193q16 -73 90 -73q58 0 86 53q12 25 15 87q0 7 3 126v515h399v-1010h-310l-14 150q-10 -52 -23 -83q-36 -88 -128 -88q-65 0 -101 47q-21 27 -43 84v-451h-385z" />
<glyph unicode="&#xb6;" vert-adv-y="2457" d="M-5 1014q0 170 105 264q84 74 232 83q74 4 210 4h664v-158h-137v-1528h-152v1528h-140v-1528h-158v974h-85q-172 0 -219 2q-139 8 -219 84q-101 98 -101 275zM377 1010q0 -116 54 -163q42 -37 167 -37h21v397q-125 -1 -164 -20q-78 -38 -78 -177z" />
<glyph unicode="&#xb7;" horiz-adv-x="380" vert-adv-y="2457" d="M0 333v365h380v-365h-380z" />
<glyph unicode="&#xb8;" horiz-adv-x="1024" vert-adv-y="2457" d="M264 -354l39 82q85 -45 155 -45q81 0 81 64q0 32 -20 48q-38 32 -110 32q-10 0 -27 -1l66 174h112l-36 -100q21 1 35 1q63 0 104 -39q46 -43 46 -113q0 -88 -70 -132q-58 -37 -147 -37q-111 0 -228 66z" />
<glyph unicode="&#xb9;" horiz-adv-x="792" vert-adv-y="2457" d="M109 1050v193q195 38 259 135h201v-641h182v-191h-639v191h192v370q-117 -45 -195 -57z" />
<glyph unicode="&#xba;" horiz-adv-x="796" vert-adv-y="2457" d="M41 1071q0 140 97 228q104 93 260 93q164 0 263 -94q93 -89 93 -227q0 -136 -100 -227q-99 -90 -261 -90q-149 0 -248 87q-104 92 -104 230zM326 1073q0 -105 23 -140q16 -23 48 -23q38 0 52 30q20 41 20 138q0 95 -21 128q-16 25 -50 25q-72 0 -72 -158z" />
<glyph unicode="&#xbb;" horiz-adv-x="771" vert-adv-y="2457" d="M75 220l106 293l-106 271h142l173 -271l-173 -293h-142zM390 220l107 293l-107 271h141l178 -271l-178 -293h-141z" />
<glyph unicode="&#xbc;" horiz-adv-x="1802" vert-adv-y="2457" d="M17 1050v193q195 38 259 135h201v-641h141v-191h-598v191h192v370q-117 -45 -195 -57zM339 0l834 1365h211l-829 -1365h-216zM1042 177v183l337 471h281v-467h126v-187h-126v-177h-248v177h-370zM1222 344h211v296z" />
<glyph unicode="&#xbd;" horiz-adv-x="1802" vert-adv-y="2457" d="M30 1050v193q195 38 259 135h201v-641h154v-191h-611v191h192v370q-117 -45 -195 -57zM365 0l835 1365h211l-829 -1365h-217zM1073 540q27 141 112 211q99 81 247 81q135 0 228 -62q105 -71 105 -202q0 -95 -66 -170q-49 -56 -179 -138q-32 -20 -81 -51h332l-11 -209 h-686v194l154 98q104 67 206 157q61 53 61 110q0 39 -25 61q-23 19 -57 19q-92 0 -105 -141z" />
<glyph unicode="&#xbe;" horiz-adv-x="1802" vert-adv-y="2457" d="M-5 803l243 28q22 -111 127 -111q44 0 73 20q31 22 31 61q0 43 -35 66q-22 15 -78 15h-113v167h96q56 0 79 14q30 17 30 57q0 35 -26 54q-23 18 -62 18q-89 0 -107 -93l-226 33q25 93 84 148q102 97 271 97q142 0 235 -60q42 -27 68 -75q25 -46 25 -97q0 -80 -60 -134 q-26 -24 -61 -37q147 -48 147 -191q0 -108 -81 -171q-101 -78 -277 -78q-314 0 -383 269zM423 0l835 1365h211l-830 -1365h-216zM1058 177v183l338 471h281v-467h125v-187h-125v-177h-248v177h-371zM1239 344h211v296z" />
<glyph unicode="&#xbf;" horiz-adv-x="1119" vert-adv-y="2457" d="M54 84q0 162 109 270q31 31 120 96q70 51 90 75q19 22 27 69h333q-2 -114 -16 -158q-18 -55 -55 -94q-6 -7 -67 -62q-61 -53 -89 -94q-35 -49 -35 -120q0 -69 41 -103q32 -26 74 -26q78 0 117 75q26 48 29 156l367 -40q-29 -144 -76 -226q-140 -244 -469 -244 q-255 0 -390 146q-110 119 -110 280zM362 679v365h382v-365h-382z" />
<glyph unicode="&#xc0;" horiz-adv-x="1299" vert-adv-y="2457" d="M0 0l422 1365h443l427 -1365h-427l-77 269h-366l-82 -269h-340zM304 1641l69 195l462 -211l-53 -137zM493 567h222l-111 396z" />
<glyph unicode="&#xc1;" horiz-adv-x="1299" vert-adv-y="2457" d="M0 0l422 1365h443l427 -1365h-427l-77 269h-366l-82 -269h-340zM456 1625l461 211l69 -195l-478 -153zM493 567h222l-111 396z" />
<glyph unicode="&#xc2;" horiz-adv-x="1299" vert-adv-y="2457" d="M0 0l422 1365h443l427 -1365h-427l-77 269h-366l-82 -269h-340zM242 1522l401 305l402 -305l-232 -20l-170 116l-169 -116zM493 567h222l-111 396z" />
<glyph unicode="&#xc3;" horiz-adv-x="1299" vert-adv-y="2457" d="M0 0l422 1365h443l427 -1365h-427l-77 269h-366l-82 -269h-340zM279 1630q125 128 233 128q58 0 136 -40q42 -22 56 -28q32 -15 64 -15q59 0 146 78l99 -116q-123 -128 -243 -128q-52 0 -102 22q-14 6 -83 42q-37 19 -72 19q-67 0 -136 -79zM493 567h222l-111 396z" />
<glyph unicode="&#xc4;" horiz-adv-x="1299" vert-adv-y="2457" d="M0 0l422 1365h443l427 -1365h-427l-77 269h-366l-82 -269h-340zM324 1643q0 55 38 93q40 39 94 39q55 0 93 -39q39 -39 39 -95q0 -52 -37 -90q-39 -40 -94 -40q-54 0 -93 37q-40 39 -40 95zM493 567h222l-111 396zM698 1644q0 55 39 93t93 38t93 -38q39 -39 39 -96 q0 -52 -38 -91t-93 -39t-94 39t-39 94z" />
<glyph unicode="&#xc5;" horiz-adv-x="1299" vert-adv-y="2457" d="M0 0l422 1365h443l427 -1365h-427l-77 269h-366l-82 -269h-340zM448 1668q0 85 58 142q61 59 143 59q84 0 143 -58q59 -59 59 -145q0 -80 -58 -139q-60 -59 -144 -59q-83 0 -142 58q-59 59 -59 142zM493 567h222l-111 396zM580 1667q0 -29 21 -49q20 -20 49 -20t50 21 q20 20 20 48q0 31 -21 50q-21 20 -49 20q-29 0 -50 -21q-20 -20 -20 -49z" />
<glyph unicode="&#xc6;" horiz-adv-x="1865" vert-adv-y="2457" d="M-27 0l609 1365h1222v-315h-609v-199h493v-304h-493v-223h623v-324h-1037v283h-326l-128 -283h-354zM566 568h215v482z" />
<glyph unicode="&#xc7;" horiz-adv-x="1287" vert-adv-y="2457" d="M58 671q0 350 191 550q156 164 433 164q344 0 491 -264q62 -112 80 -283l-391 -21q-2 98 -27 155q-19 43 -56 71q-41 32 -93 32q-53 0 -96.5 -34t-65.5 -92q-36 -99 -36 -281q0 -167 34 -257q44 -116 164 -116q164 0 184 226l383 -23q-13 -96 -30.5 -152t-52.5 -111 q-150 -241 -463 -255l-31 -85q22 2 36 2q66 0 109 -40q47 -45 47 -119q0 -91 -73 -137q-61 -39 -153 -39q-114 0 -237 69l40 85q89 -47 162 -47q84 0 84 67q0 33 -21 51q-38 33 -114 33q-9 0 -28 -1l63 165q-10 2 -62 10q-76 12 -167 64q-168 95 -244 282q-60 146 -60 331z " />
<glyph unicode="&#xc8;" horiz-adv-x="1193" vert-adv-y="2457" d="M119 0v1365h1027v-315h-616v-198h498v-303h-498v-223h616v-326h-1027zM303 1641l69 195l461 -211l-52 -137z" />
<glyph unicode="&#xc9;" horiz-adv-x="1193" vert-adv-y="2457" d="M119 0v1365h1027v-315h-616v-198h498v-303h-498v-223h616v-326h-1027zM449 1625l461 211l70 -195l-478 -153z" />
<glyph unicode="&#xca;" horiz-adv-x="1193" vert-adv-y="2457" d="M119 0v1365h1027v-315h-616v-198h498v-303h-498v-223h616v-326h-1027zM231 1522l401 305l402 -305l-232 -20l-170 116l-169 -116z" />
<glyph unicode="&#xcb;" horiz-adv-x="1193" vert-adv-y="2457" d="M119 0v1365h1027v-315h-616v-198h498v-303h-498v-223h616v-326h-1027zM313 1643q0 55 39 93q39 39 93 39t93 -39q39 -38 39 -95q0 -52 -37 -90q-39 -40 -94 -40q-54 0 -93 37q-40 39 -40 95zM687 1644q0 55 39 93t93 38t93 -38q39 -39 39 -96q0 -52 -38 -91t-93 -39 t-94 39t-39 94z" />
<glyph unicode="&#xcc;" horiz-adv-x="657" vert-adv-y="2457" d="M35 1641l73 195l416 -211l-52 -137zM119 0v1365h419v-1365h-419z" />
<glyph unicode="&#xcd;" horiz-adv-x="657" vert-adv-y="2457" d="M119 0v1365h419v-1365h-419zM137 1625l416 211l73 -195l-437 -153z" />
<glyph unicode="&#xce;" horiz-adv-x="657" vert-adv-y="2457" d="M-18 1522l347 305l346 -305l-225 -20l-121 112l-122 -112zM119 0v1365h419v-1365h-419z" />
<glyph unicode="&#xcf;" horiz-adv-x="657" vert-adv-y="2457" d="M33 1643q0 55 39 93q39 39 93 39q55 0 93 -39q39 -39 39 -95q0 -52 -37 -90q-39 -40 -94 -40q-54 0 -93 37q-40 39 -40 95zM119 0v1365h419v-1365h-419zM359 1644q0 55 39 93q40 38 93 38q54 0 93 -38q39 -39 39 -96q0 -52 -38 -91q-39 -39 -94 -39q-54 0 -93 39 q-39 38 -39 94z" />
<glyph unicode="&#xd0;" horiz-adv-x="1391" vert-adv-y="2457" d="M7 600v201h112v564h528q230 0 372 -86q167 -101 251 -289q62 -140 62 -306q0 -202 -92 -368q-97 -176 -279 -258q-129 -58 -288 -58h-554v600h-112zM538 314h109q78 0 141 58q54 52 83 145q23 77 23 167q0 150 -62 259q-63 112 -186 112h-108v-254h195v-201h-195v-286z " />
<glyph unicode="&#xd1;" horiz-adv-x="1405" vert-adv-y="2457" d="M119 0v1365h396l318 -500q95 -149 144 -262q-32 190 -32 358v404h341v-1365h-341l-374 603l-39 71q-62 111 -106 211q33 -143 33 -224v-661h-340zM335 1630q125 128 233 128q58 0 136 -40q43 -22 57 -28q31 -15 64 -15q59 0 145 78l100 -116q-124 -128 -244 -128 q-51 0 -102 22q-13 6 -83 42q-36 19 -72 19q-67 0 -135 -79z" />
<glyph unicode="&#xd2;" horiz-adv-x="1414" vert-adv-y="2457" d="M58 681q0 322 185 518q176 186 467 186q284 0 462 -183q184 -189 184 -517q0 -320 -187 -517q-179 -188 -460 -188q-284 0 -462 183q-189 194 -189 518zM386 1641l69 195l461 -211l-52 -137zM509 670q0 -380 198 -380q101 0 150 87t49 341q0 357 -192 357 q-205 0 -205 -405z" />
<glyph unicode="&#xd3;" horiz-adv-x="1414" vert-adv-y="2457" d="M58 681q0 322 185 518q176 186 467 186q284 0 462 -183q184 -189 184 -517q0 -320 -187 -517q-179 -188 -460 -188q-284 0 -462 183q-189 194 -189 518zM509 670q0 -380 198 -380q101 0 150 87t49 341q0 357 -192 357q-205 0 -205 -405zM525 1625l461 211l69 -195 l-478 -153z" />
<glyph unicode="&#xd4;" horiz-adv-x="1414" vert-adv-y="2457" d="M58 681q0 322 185 518q176 186 467 186q284 0 462 -183q184 -189 184 -517q0 -320 -187 -517q-179 -188 -460 -188q-284 0 -462 183q-189 194 -189 518zM306 1522l401 305l401 -305l-231 -20l-170 116l-169 -116zM509 670q0 -380 198 -380q101 0 150 87t49 341 q0 357 -192 357q-205 0 -205 -405z" />
<glyph unicode="&#xd5;" horiz-adv-x="1414" vert-adv-y="2457" d="M58 681q0 322 185 518q176 186 467 186q284 0 462 -183q184 -189 184 -517q0 -320 -187 -517q-179 -188 -460 -188q-284 0 -462 183q-189 194 -189 518zM354 1630q125 128 233 128q57 0 136 -40q42 -22 56 -28q31 -15 64 -15q59 0 145 78l100 -116q-123 -128 -244 -128 q-51 0 -102 22q-13 6 -83 42q-36 19 -72 19q-66 0 -135 -79zM509 670q0 -380 198 -380q101 0 150 87t49 341q0 357 -192 357q-205 0 -205 -405z" />
<glyph unicode="&#xd6;" horiz-adv-x="1414" vert-adv-y="2457" d="M58 681q0 322 185 518q176 186 467 186q284 0 462 -183q184 -189 184 -517q0 -320 -187 -517q-179 -188 -460 -188q-284 0 -462 183q-189 194 -189 518zM388 1643q0 55 39 93q39 39 93 39q55 0 93 -39q39 -39 39 -95q0 -52 -37 -90q-39 -40 -94 -40q-54 0 -93 37 q-40 39 -40 95zM509 670q0 -380 198 -380q101 0 150 87t49 341q0 357 -192 357q-205 0 -205 -405zM762 1644q0 55 39 93t93 38t93 -38q39 -39 39 -96q0 -52 -38 -91t-93 -39t-94 39t-39 94z" />
<glyph unicode="&#xd7;" vert-adv-y="2457" d="M140 417l281 281l-281 281l180 180l281 -280l281 280l180 -179l-281 -281l281 -281l-181 -180l-281 281l-280 -281z" />
<glyph unicode="&#xd8;" horiz-adv-x="1414" vert-adv-y="2457" d="M58 686q0 333 201 528q177 172 462 172q103 0 180 -22q32 -9 94 -35l89 150h211l-144 -256q90 -90 132 -174q73 -145 73 -350q0 -317 -171 -514q-180 -206 -478 -206q-143 0 -287 62l-90 -154h-214l147 260q-86 88 -129 177q-76 160 -76 362zM503 670q0 -61 11 -142 l292 520q-44 28 -92 28q-114 0 -168 -124q-43 -97 -43 -282zM603 324q41 -35 105 -35q138 0 175 149q28 113 28 286q0 44 -6 126z" />
<glyph unicode="&#xd9;" horiz-adv-x="1331" vert-adv-y="2457" d="M105 439v926h426v-877q0 -97 34 -135q47 -53 140 -53q63 0 114 26q65 34 75 112q3 25 3 128v799h329v-904q0 -159 -52 -253q-71 -128 -225 -186q-114 -43 -273 -43q-297 0 -450 137q-121 108 -121 323zM363 1641l69 195l461 -211l-52 -137z" />
<glyph unicode="&#xda;" horiz-adv-x="1331" vert-adv-y="2457" d="M105 439v926h426v-877q0 -97 34 -135q47 -53 140 -53q63 0 114 26q65 34 75 112q3 25 3 128v799h329v-904q0 -159 -52 -253q-71 -128 -225 -186q-114 -43 -273 -43q-297 0 -450 137q-121 108 -121 323zM498 1625l461 211l69 -195l-478 -153z" />
<glyph unicode="&#xdb;" horiz-adv-x="1331" vert-adv-y="2457" d="M105 439v926h426v-877q0 -97 34 -135q47 -53 140 -53q63 0 114 26q65 34 75 112q3 25 3 128v799h329v-904q0 -159 -52 -253q-71 -128 -225 -186q-114 -43 -273 -43q-297 0 -450 137q-121 108 -121 323zM291 1522l401 305l401 -305l-232 -20l-169 116l-170 -116z" />
<glyph unicode="&#xdc;" horiz-adv-x="1331" vert-adv-y="2457" d="M105 439v926h426v-877q0 -97 34 -135q47 -53 140 -53q63 0 114 26q65 34 75 112q3 25 3 128v799h329v-904q0 -159 -52 -253q-71 -128 -225 -186q-114 -43 -273 -43q-297 0 -450 137q-121 108 -121 323zM373 1643q0 55 39 93q39 39 93 39t93 -39q39 -38 39 -95 q0 -52 -37 -90q-39 -40 -94 -40q-54 0 -93 37q-40 39 -40 95zM747 1644q0 55 39 93t93 38t93 -38q39 -39 39 -96q0 -52 -38 -91t-93 -39t-94 39t-39 94z" />
<glyph unicode="&#xdd;" horiz-adv-x="1211" vert-adv-y="2457" d="M-41 1365h459l238 -449l229 449h367l-427 -787v-578h-407v578zM453 1625l461 211l70 -195l-478 -153z" />
<glyph unicode="&#xde;" horiz-adv-x="1331" vert-adv-y="2457" d="M119 0v1365h425v-191h158q202 0 308 -41q156 -59 226 -202q44 -88 44 -191q0 -136 -73 -244q-129 -192 -425 -192h-238v-304h-425zM538 598h141q91 0 132 27q52 35 52 108q0 128 -171 128h-154v-263z" />
<glyph unicode="&#xdf;" horiz-adv-x="1319" vert-adv-y="2457" d="M42 684v250h74q9 124 30 193q54 178 223 274q130 74 322 74q201 0 312 -80q130 -93 130 -242q0 -126 -95 -210q-80 -71 -219 -93q-14 -2 -14 -6q0 -6 142 -65q338 -140 338 -410q0 -178 -143 -295q-131 -108 -325 -108q-146 0 -248 34l87 272q65 -40 140 -40q82 0 118 40 q19 21 19 52q0 53 -59 92q-18 12 -79 44q-125 67 -170 107q-81 71 -81 174q0 87 48 184q21 42 57 85q43 0 63 7q28 11 46 36q17 26 17 57q0 48 -38 79q-32 25 -80 25q-79 0 -124 -57q-42 -53 -42 -167v-1120h-375v814h-74z" />
<glyph unicode="&#xe0;" vert-adv-y="2457" d="M51 282q0 156 132 251q154 110 534 129v23q0 62 -28 86q-29 24 -93 24q-134 0 -153 -110l-363 33q40 146 141 218q143 101 388 101q202 0 323 -60q107 -53 144 -140q24 -55 24 -233v-406q0 -78 9 -123q6 -27 22 -75h-379q-13 65 -14 142q-116 -162 -327 -162 q-150 0 -243 69q-117 87 -117 233zM305 1327l73 195l458 -224l-53 -137zM462 313q0 -92 101 -92q97 0 133 71q21 42 21 135v49q-255 -30 -255 -163z" />
<glyph unicode="&#xe1;" vert-adv-y="2457" d="M51 282q0 156 132 251q154 110 534 129v23q0 62 -28 86q-29 24 -93 24q-134 0 -153 -110l-363 33q40 146 141 218q143 101 388 101q202 0 323 -60q107 -53 144 -140q24 -55 24 -233v-406q0 -78 9 -123q6 -27 22 -75h-379q-13 65 -14 142q-116 -162 -327 -162 q-150 0 -243 69q-117 87 -117 233zM416 1298l457 224l74 -195l-478 -166zM462 313q0 -92 101 -92q97 0 133 71q21 42 21 135v49q-255 -30 -255 -163z" />
<glyph unicode="&#xe2;" vert-adv-y="2457" d="M51 282q0 156 132 251q154 110 534 129v23q0 62 -28 86q-29 24 -93 24q-134 0 -153 -110l-363 33q40 146 141 218q143 101 388 101q202 0 323 -60q107 -53 144 -140q24 -55 24 -233v-406q0 -78 9 -123q6 -27 22 -75h-379q-13 65 -14 142q-116 -162 -327 -162 q-150 0 -243 69q-117 87 -117 233zM223 1195l401 318l401 -318l-232 -21l-169 130l-170 -130zM462 313q0 -92 101 -92q97 0 133 71q21 42 21 135v49q-255 -30 -255 -163z" />
<glyph unicode="&#xe3;" vert-adv-y="2457" d="M51 282q0 156 132 251q154 110 534 129v23q0 62 -28 86q-29 24 -93 24q-134 0 -153 -110l-363 33q40 146 141 218q143 101 388 101q202 0 323 -60q107 -53 144 -140q24 -55 24 -233v-406q0 -78 9 -123q6 -27 22 -75h-379q-13 65 -14 142q-116 -162 -327 -162 q-150 0 -243 69q-117 87 -117 233zM257 1305q125 128 233 128q58 0 136 -40q45 -23 57 -28q31 -15 64 -15q59 0 145 79l100 -117q-123 -128 -244 -128q-51 0 -102 22q-13 6 -83 42q-36 19 -72 19q-67 0 -135 -79zM462 313q0 -92 101 -92q97 0 133 71q21 42 21 135v49 q-255 -30 -255 -163z" />
<glyph unicode="&#xe4;" vert-adv-y="2457" d="M51 282q0 156 132 251q154 110 534 129v23q0 62 -28 86q-29 24 -93 24q-134 0 -153 -110l-363 33q40 146 141 218q143 101 388 101q202 0 323 -60q107 -53 144 -140q24 -55 24 -233v-406q0 -78 9 -123q6 -27 22 -75h-379q-13 65 -14 142q-116 -162 -327 -162 q-150 0 -243 69q-117 87 -117 233zM308 1320q0 55 38 93q40 39 94 39q55 0 93 -39q39 -39 39 -95q0 -52 -37 -90q-39 -40 -94 -40q-54 0 -93 38q-40 39 -40 94zM462 313q0 -92 101 -92q97 0 133 71q21 42 21 135v49q-255 -30 -255 -163zM669 1321q0 55 39 93t93 38t93 -38 q39 -39 39 -96q0 -52 -38 -90q-38 -40 -93 -40t-94 39t-39 94z" />
<glyph unicode="&#xe5;" vert-adv-y="2457" d="M51 282q0 156 132 251q154 110 534 129v23q0 62 -28 86q-29 24 -93 24q-134 0 -153 -110l-363 33q40 146 141 218q143 101 388 101q202 0 323 -60q107 -53 144 -140q24 -55 24 -233v-406q0 -78 9 -123q6 -27 22 -75h-379q-13 65 -14 142q-116 -162 -327 -162 q-150 0 -243 69q-117 87 -117 233zM421 1347q0 84 58 142q61 59 143 59q84 0 143 -58q59 -59 59 -145q0 -80 -58 -139q-60 -59 -144 -59q-83 0 -142 58q-59 59 -59 142zM462 313q0 -92 101 -92q97 0 133 71q21 42 21 135v49q-255 -30 -255 -163zM547 1347q0 -31 23 -53 q22 -21 53 -21t53 22q22 23 22 52q0 33 -23 54q-22 21 -53 21t-53 -22t-22 -53z" />
<glyph unicode="&#xe6;" horiz-adv-x="1627" vert-adv-y="2457" d="M51 282q0 236 261 325q104 35 337 60v32q0 57 -30 77t-74 20q-112 0 -133 -111l-338 34q40 155 146 227q133 91 343 91q125 0 204 -33q27 -12 67 -36q125 70 256 70q230 0 364 -159q122 -145 122 -367q0 -25 -3 -76h-606q6 -94 27 -131q35 -60 116 -60q119 0 135 124 l328 -25q-19 -88 -50 -140q-71 -122 -204 -181q-95 -43 -213 -43q-151 0 -263 67q-51 31 -120 105q-52 -65 -94 -95q-104 -77 -256 -77q-142 0 -229 79q-93 85 -93 223zM429 316q0 -45 28 -71q25 -24 61 -24q45 0 85 34q50 42 50 167q0 18 -4 58q-220 -36 -220 -164z M966 634h258q0 58 -14 95q-32 80 -112 80q-56 0 -93 -40q-38 -40 -39 -135z" />
<glyph unicode="&#xe7;" horiz-adv-x="1071" vert-adv-y="2457" d="M51 501q0 169 84 307q74 122 204 180q110 49 240 49q214 0 350 -137q83 -85 110 -192q7 -24 14 -74l-349 -29q-11 62 -20 87q-26 73 -102 73q-66 0 -93 -56q-30 -63 -30 -206q0 -122 29 -183q30 -61 100 -61q106 0 129 151l340 -29q-18 -110 -58 -180q-97 -166 -284 -207 q-43 -10 -109 -14l-29 -81q21 2 34 2q65 0 105 -39q46 -43 46 -113q0 -88 -70 -132q-58 -37 -147 -37q-111 0 -228 66l38 82q86 -45 156 -45q81 0 81 64q0 32 -20 48q-38 32 -110 32q-10 0 -27 -1l60 157q-125 16 -211 71q-111 70 -173 190q-60 115 -60 257z" />
<glyph unicode="&#xe8;" vert-adv-y="2457" d="M51 497q0 156 81 293q78 133 222 196q116 51 255 51q233 0 381 -139q160 -150 160 -410q0 -22 -1 -59h-681q2 -99 29 -134q41 -54 127 -54q80 0 118 43q21 24 35 81l372 -25q-25 -104 -97 -189q-147 -171 -431 -171q-243 0 -394 126q-84 71 -131 174q-45 102 -45 217z M302 1327l74 195l457 -224l-53 -137zM467 630h284q-2 75 -23 113q-32 60 -119 60q-141 0 -142 -173z" />
<glyph unicode="&#xe9;" vert-adv-y="2457" d="M51 497q0 156 81 293q78 133 222 196q116 51 255 51q233 0 381 -139q160 -150 160 -410q0 -22 -1 -59h-681q2 -99 29 -134q41 -54 127 -54q80 0 118 43q21 24 35 81l372 -25q-25 -104 -97 -189q-147 -171 -431 -171q-243 0 -394 126q-84 71 -131 174q-45 102 -45 217z M408 1298l458 224l73 -195l-478 -166zM467 630h284q-2 75 -23 113q-32 60 -119 60q-141 0 -142 -173z" />
<glyph unicode="&#xea;" vert-adv-y="2457" d="M51 497q0 156 81 293q78 133 222 196q116 51 255 51q233 0 381 -139q160 -150 160 -410q0 -22 -1 -59h-681q2 -99 29 -134q41 -54 127 -54q80 0 118 43q21 24 35 81l372 -25q-25 -104 -97 -189q-147 -171 -431 -171q-243 0 -394 126q-84 71 -131 174q-45 102 -45 217z M218 1195l401 318l401 -318l-231 -21l-170 130l-170 -130zM467 630h284q-2 75 -23 113q-32 60 -119 60q-141 0 -142 -173z" />
<glyph unicode="&#xeb;" vert-adv-y="2457" d="M51 497q0 156 81 293q78 133 222 196q116 51 255 51q233 0 381 -139q160 -150 160 -410q0 -22 -1 -59h-681q2 -99 29 -134q41 -54 127 -54q80 0 118 43q21 24 35 81l372 -25q-25 -104 -97 -189q-147 -171 -431 -171q-243 0 -394 126q-84 71 -131 174q-45 102 -45 217z M302 1320q0 55 38 93q40 39 94 39q55 0 93 -39q39 -39 39 -95q0 -52 -37 -90q-39 -40 -94 -40q-54 0 -93 38q-40 39 -40 94zM467 630h284q-2 75 -23 113q-32 60 -119 60q-141 0 -142 -173zM662 1321q0 55 39 93t93 38t93 -38q39 -39 39 -96q0 -52 -38 -90q-38 -40 -93 -40 t-94 39t-39 94z" />
<glyph unicode="&#xec;" horiz-adv-x="609" vert-adv-y="2457" d="M14 1327l73 195l403 -224l-53 -137zM105 0v1017h399v-1017h-399z" />
<glyph unicode="&#xed;" horiz-adv-x="609" vert-adv-y="2457" d="M105 0v1017h399v-1017h-399zM123 1298l402 224l73 -195l-423 -166z" />
<glyph unicode="&#xee;" horiz-adv-x="609" vert-adv-y="2457" d="M-35 1195l340 318l340 -318l-212 -21l-128 126l-129 -126zM105 0v1017h399v-1017h-399z" />
<glyph unicode="&#xef;" horiz-adv-x="609" vert-adv-y="2457" d="M8 1320q0 55 39 93q39 39 93 39q55 0 93 -39q39 -39 39 -95q0 -52 -37 -90q-39 -40 -94 -40q-54 0 -93 38q-40 39 -40 94zM105 0v1017h399v-1017h-399zM336 1321q0 55 39 93t93 38t93 -38q39 -39 39 -96q0 -52 -38 -90q-38 -40 -93 -40t-94 39t-39 94z" />
<glyph unicode="&#xf0;" horiz-adv-x="1217" vert-adv-y="2457" d="M55 507q0 147 78 272q89 143 239 201q80 31 166 31q120 0 207 -62q-38 122 -119 216l-201 -90l-59 121l151 67q-55 38 -178 71l69 122q105 -23 163 -41q50 -17 145 -57l214 96l66 -125l-143 -63q106 -82 181 -210q131 -225 131 -489q0 -307 -173 -458 q-147 -129 -379 -129q-262 0 -414 165q-144 156 -144 362zM476 499q0 -181 49 -244q27 -33 84 -33q51 0 76 29q55 66 55 245q0 172 -51 236q-28 35 -84 35t-83 -37q-46 -64 -46 -231z" />
<glyph unicode="&#xf1;" horiz-adv-x="1203" vert-adv-y="2457" d="M105 0v1017h370v-144q42 74 88 107q81 57 210 57q150 0 244 -87q56 -52 69 -121q12 -63 12 -179v-650h-399v640q0 63 -16 89q-20 34 -69 34q-110 0 -110 -152v-611h-399zM234 1309q125 128 233 128q57 0 136 -41l56 -28q32 -15 64 -15q60 0 146 79l100 -116 q-123 -129 -244 -129q-52 0 -102 22q-14 6 -83 43q-37 19 -72 19q-67 0 -136 -79z" />
<glyph unicode="&#xf2;" horiz-adv-x="1217" vert-adv-y="2457" d="M51 506q0 155 76 281q79 131 229 199q113 51 253 51q259 0 415 -159q142 -145 142 -373q0 -149 -77 -276q-80 -132 -222 -196q-119 -53 -265 -53q-237 0 -392 147q-159 152 -159 379zM297 1327l73 195l457 -224l-52 -137zM476 508q0 -159 32 -228q27 -59 98 -59 q82 0 106 68q29 79 29 227q0 145 -30 211q-27 60 -102 60q-62 0 -92 -48q-41 -67 -41 -231z" />
<glyph unicode="&#xf3;" horiz-adv-x="1217" vert-adv-y="2457" d="M51 506q0 155 76 281q79 131 229 199q113 51 253 51q259 0 415 -159q142 -145 142 -373q0 -149 -77 -276q-80 -132 -222 -196q-119 -53 -265 -53q-237 0 -392 147q-159 152 -159 379zM412 1298l457 224l73 -195l-478 -166zM476 508q0 -159 32 -228q27 -59 98 -59 q82 0 106 68q29 79 29 227q0 145 -30 211q-27 60 -102 60q-62 0 -92 -48q-41 -67 -41 -231z" />
<glyph unicode="&#xf4;" horiz-adv-x="1217" vert-adv-y="2457" d="M51 506q0 155 76 281q79 131 229 199q113 51 253 51q259 0 415 -159q142 -145 142 -373q0 -149 -77 -276q-80 -132 -222 -196q-119 -53 -265 -53q-237 0 -392 147q-159 152 -159 379zM207 1195l402 318l401 -318l-232 -21l-169 130l-170 -130zM476 508q0 -159 32 -228 q27 -59 98 -59q82 0 106 68q29 79 29 227q0 145 -30 211q-27 60 -102 60q-62 0 -92 -48q-41 -67 -41 -231z" />
<glyph unicode="&#xf5;" horiz-adv-x="1217" vert-adv-y="2457" d="M51 506q0 155 76 281q79 131 229 199q113 51 253 51q259 0 415 -159q142 -145 142 -373q0 -149 -77 -276q-80 -132 -222 -196q-119 -53 -265 -53q-237 0 -392 147q-159 152 -159 379zM255 1309q125 128 233 128q57 0 136 -41l56 -28q32 -15 64 -15q60 0 146 79l100 -116 q-123 -129 -244 -129q-51 0 -102 22q-14 6 -83 43q-37 19 -72 19q-67 0 -135 -79zM476 508q0 -159 32 -228q27 -59 98 -59q82 0 106 68q29 79 29 227q0 145 -30 211q-27 60 -102 60q-62 0 -92 -48q-41 -67 -41 -231z" />
<glyph unicode="&#xf6;" horiz-adv-x="1217" vert-adv-y="2457" d="M51 506q0 155 76 281q79 131 229 199q113 51 253 51q259 0 415 -159q142 -145 142 -373q0 -149 -77 -276q-80 -132 -222 -196q-119 -53 -265 -53q-237 0 -392 147q-159 152 -159 379zM296 1320q0 55 38 93q40 39 94 39q55 0 93 -39q39 -39 39 -95q0 -52 -37 -90 q-39 -40 -94 -40q-54 0 -93 38q-40 39 -40 94zM476 508q0 -159 32 -228q27 -59 98 -59q82 0 106 68q29 79 29 227q0 145 -30 211q-27 60 -102 60q-62 0 -92 -48q-41 -67 -41 -231zM657 1321q0 55 39 93q40 38 93 38q54 0 93 -38q39 -39 39 -96q0 -52 -38 -90 q-38 -40 -93 -40t-94 39t-39 94z" />
<glyph unicode="&#xf7;" vert-adv-y="2457" d="M103 562v254h995v-254h-995zM432 323q0 67 46 112q50 48 118 48t114 -53q41 -46 41 -109q0 -66 -46 -112q-45 -45 -110 -45q-62 0 -109 41q-54 47 -54 118zM432 1056q0 67 46 112q50 48 118 48t114 -53q41 -46 41 -109q0 -66 -46 -112q-45 -45 -110 -45q-62 0 -109 41 q-54 47 -54 118z" />
<glyph unicode="&#xf8;" horiz-adv-x="1217" vert-adv-y="2457" d="M51 507q0 233 160 384q156 147 402 147q103 0 221 -38l89 128h186l-139 -201q85 -71 124 -140q72 -125 72 -279q0 -229 -157 -379q-158 -149 -411 -149q-108 0 -219 39l-86 -128h-185l132 209q-189 164 -189 407zM467 501q0 -38 5 -98l222 359q-34 26 -84 26 q-71 0 -99 -44q-44 -70 -44 -243zM520 252q33 -30 87 -30q55 0 82 23q61 52 61 284q0 37 -5 92z" />
<glyph unicode="&#xf9;" horiz-adv-x="1199" vert-adv-y="2457" d="M105 290v727h399v-640q0 -53 10 -74q18 -36 71 -36q46 0 77 30q39 37 39 110v610h393v-1017h-369v167q-31 -75 -84 -116q-95 -72 -232 -72q-133 0 -214 70q-90 79 -90 241zM282 1327l73 195l457 -224l-52 -137z" />
<glyph unicode="&#xfa;" horiz-adv-x="1199" vert-adv-y="2457" d="M105 290v727h399v-640q0 -53 10 -74q18 -36 71 -36q46 0 77 30q39 37 39 110v610h393v-1017h-369v167q-31 -75 -84 -116q-95 -72 -232 -72q-133 0 -214 70q-90 79 -90 241zM396 1298l457 224l73 -195l-478 -166z" />
<glyph unicode="&#xfb;" horiz-adv-x="1199" vert-adv-y="2457" d="M105 290v727h399v-640q0 -53 10 -74q18 -36 71 -36q46 0 77 30q39 37 39 110v610h393v-1017h-369v167q-31 -75 -84 -116q-95 -72 -232 -72q-133 0 -214 70q-90 79 -90 241zM198 1195l401 318l402 -318l-232 -21l-170 130l-169 -130z" />
<glyph unicode="&#xfc;" horiz-adv-x="1199" vert-adv-y="2457" d="M105 290v727h399v-640q0 -53 10 -74q18 -36 71 -36q46 0 77 30q39 37 39 110v610h393v-1017h-369v167q-31 -75 -84 -116q-95 -72 -232 -72q-133 0 -214 70q-90 79 -90 241zM287 1320q0 55 39 93q39 39 93 39q55 0 93 -39q39 -39 39 -95q0 -52 -37 -90q-39 -40 -94 -40 q-54 0 -93 38q-40 39 -40 94zM647 1321q0 55 39 93q40 38 93 38q54 0 93 -38q39 -39 39 -96q0 -52 -38 -90q-39 -40 -93 -40q-55 0 -94 39t-39 94z" />
<glyph unicode="&#xfd;" horiz-adv-x="1049" vert-adv-y="2457" d="M-7 1017h427l168 -542l176 542h291l-400 -1102q-53 -148 -155 -213q-85 -54 -242 -54q-47 0 -199 10v283q84 -13 142 -13q101 0 137 19q37 20 37 60q0 21 -18 67zM347 1298l457 224l73 -195l-478 -166z" />
<glyph unicode="&#xfe;" horiz-adv-x="1196" vert-adv-y="2457" d="M105 -321v1686h393v-469q74 142 255 142q195 0 296 -157q92 -143 92 -370q0 -251 -114 -398q-102 -133 -269 -133q-108 0 -186 52q-34 23 -74 77v-430h-393zM498 372q0 -70 30 -106t80 -36q80 0 105 84q20 69 20 187q0 183 -43 243q-31 44 -81 44q-46 0 -80 -35 q-31 -32 -31 -89v-292z" />
<glyph unicode="&#xff;" horiz-adv-x="1049" vert-adv-y="2457" d="M-7 1017h427l168 -542l176 542h291l-400 -1102q-53 -148 -155 -213q-85 -54 -242 -54q-47 0 -199 10v283q84 -13 142 -13q101 0 137 19q37 20 37 60q0 21 -18 67zM229 1320q0 55 39 93q39 39 93 39q55 0 93 -39q39 -39 39 -95q0 -52 -37 -90q-39 -40 -94 -40 q-54 0 -93 38q-40 38 -40 94zM590 1321q0 55 39 93q40 38 93 38q54 0 93 -38q39 -39 39 -96q0 -52 -38 -90q-38 -40 -94 -40q-54 0 -93 39t-39 94z" />
<glyph unicode="&#x152;" horiz-adv-x="1945" vert-adv-y="2457" d="M58 677q0 319 183 521q170 187 472 187q86 0 188 -20h996v-314h-618v-196h497v-306h-497v-221h618v-328h-996q-109 -20 -193 -20q-286 0 -461 182q-189 197 -189 515zM503 675q0 -166 35 -266q42 -119 170 -119q81 0 129 54q65 73 65 341q0 167 -26 264q-17 62 -61 99 q-42 35 -103 35q-209 0 -209 -408z" />
<glyph unicode="&#x153;" horiz-adv-x="1733" vert-adv-y="2457" d="M51 502q0 157 79 292q83 143 235 205q94 38 208 38q120 0 221 -44q37 -16 90 -48q141 93 299 93q232 0 371 -157q128 -146 128 -394q0 -16 -2 -58h-624q5 -199 142 -199q71 0 114 55q21 28 29 78l339 -23q-21 -87 -52 -138q-74 -120 -211 -179q-98 -43 -217 -43 q-176 0 -316 93q-61 -37 -101 -54q-93 -39 -212 -39q-231 0 -373 146q-147 151 -147 376zM450 498q0 -124 17 -188q25 -88 109 -88q73 0 101 70q21 56 21 220q0 133 -18 194q-23 81 -103 81q-77 0 -104 -83q-23 -72 -23 -206zM1054 628h266q1 17 1 26q0 67 -39 111 q-33 37 -89 37q-125 0 -139 -174z" />
<glyph unicode="&#x178;" horiz-adv-x="1211" vert-adv-y="2457" d="M-41 1365h459l238 -449l229 449h367l-427 -787v-578h-407v578zM319 1643q0 56 39 93q39 39 93 39q55 0 93 -39q39 -38 39 -95q0 -52 -37 -90q-39 -40 -94 -40q-54 0 -93 37q-40 39 -40 95zM693 1644q0 55 39 93t93 38t93 -38q39 -39 39 -96q0 -52 -38 -91t-93 -39t-94 39 t-39 94z" />
<glyph unicode="&#x2c6;" horiz-adv-x="1024" vert-adv-y="2457" d="M111 1195l401 318l402 -318l-232 -21l-170 130l-169 -130z" />
<glyph unicode="&#x2dc;" horiz-adv-x="1024" vert-adv-y="2457" d="M145 1309q125 128 233 128q57 0 136 -41l56 -28q32 -15 64 -15q60 0 146 79l100 -116q-123 -129 -244 -129q-52 0 -102 22q-14 6 -83 43q-37 19 -72 19q-67 0 -136 -79z" />
<glyph unicode="&#x2000;" horiz-adv-x="934" vert-adv-y="0" />
<glyph unicode="&#x2001;" horiz-adv-x="1869" vert-adv-y="0" />
<glyph unicode="&#x2002;" horiz-adv-x="934" vert-adv-y="0" />
<glyph unicode="&#x2003;" horiz-adv-x="1869" vert-adv-y="0" />
<glyph unicode="&#x2004;" horiz-adv-x="623" vert-adv-y="0" />
<glyph unicode="&#x2005;" horiz-adv-x="467" vert-adv-y="0" />
<glyph unicode="&#x2006;" horiz-adv-x="311" vert-adv-y="0" />
<glyph unicode="&#x2007;" horiz-adv-x="311" vert-adv-y="0" />
<glyph unicode="&#x2008;" horiz-adv-x="233" vert-adv-y="0" />
<glyph unicode="&#x2009;" horiz-adv-x="373" vert-adv-y="0" />
<glyph unicode="&#x200a;" horiz-adv-x="103" vert-adv-y="0" />
<glyph unicode="&#x2010;" horiz-adv-x="563" vert-adv-y="2457" d="M28 359v314h507v-314h-507z" />
<glyph unicode="&#x2011;" horiz-adv-x="563" vert-adv-y="2457" d="M28 359v314h507v-314h-507z" />
<glyph unicode="&#x2012;" horiz-adv-x="563" vert-adv-y="2457" d="M28 359v314h507v-314h-507z" />
<glyph unicode="&#x2013;" vert-adv-y="2457" d="M109 359v314h984v-314h-984z" />
<glyph unicode="&#x2014;" horiz-adv-x="1365" vert-adv-y="2457" d="M-89 359v314h1544v-314h-1544z" />
<glyph unicode="&#x2018;" horiz-adv-x="563" vert-adv-y="2457" d="M109 776v287l188 302h157l-138 -271h138v-318h-345z" />
<glyph unicode="&#x2019;" horiz-adv-x="563" vert-adv-y="2457" d="M109 776l138 271h-138v318h345v-287l-188 -302h-157z" />
<glyph unicode="&#x201a;" horiz-adv-x="563" vert-adv-y="2457" d="M109 0v318h345v-286l-188 -304h-157l138 272h-138z" />
<glyph unicode="&#x201c;" horiz-adv-x="939" vert-adv-y="2457" d="M102 781v299l175 285h158l-140 -267h140v-317h-333zM505 781v299l178 285h154l-137 -267h137v-317h-332z" />
<glyph unicode="&#x201d;" horiz-adv-x="939" vert-adv-y="2457" d="M102 781l136 267h-136v317h330v-299l-177 -285h-153zM504 781l140 267h-140v317h333v-299l-175 -285h-158z" />
<glyph unicode="&#x201e;" horiz-adv-x="939" vert-adv-y="2457" d="M102 0v317h330v-299l-177 -286h-153l136 268h-136zM504 0v317h333v-299l-175 -286h-158l140 268h-140z" />
<glyph unicode="&#x2022;" horiz-adv-x="1365" vert-adv-y="2457" d="M401 693q0 121 84 202q85 83 204 83q113 0 196 -83q84 -83 84 -201t-84 -201q-82 -83 -200 -83t-200 83q-84 83 -84 200z" />
<glyph unicode="&#x2026;" horiz-adv-x="1754" vert-adv-y="2457" d="M102 0v365h380v-365h-380zM686 0v365h381v-365h-381zM1272 0v365h380v-365h-380z" />
<glyph unicode="&#x202f;" horiz-adv-x="373" vert-adv-y="0" />
<glyph unicode="&#x2039;" horiz-adv-x="452" vert-adv-y="2457" d="M61 492l173 292h142l-106 -292l106 -272h-142z" />
<glyph unicode="&#x203a;" horiz-adv-x="452" vert-adv-y="2457" d="M75 220l106 293l-106 271h142l173 -271l-173 -293h-142z" />
<glyph unicode="&#x205f;" horiz-adv-x="467" vert-adv-y="0" />
<glyph unicode="&#x20ac;" vert-adv-y="2457" d="M15 449l70 194h41q-1 16 -1 31q0 17 1 36h-111l70 194h67q25 115 88 218q161 263 515 263q233 0 376 -90l-119 -309q-53 41 -90 61q-58 31 -131 31q-152 0 -199 -128q-7 -19 -14 -46h391l-70 -194h-343q-1 -13 -1 -28l1 -32v-7h330l-71 -194h-237q6 -23 12 -38 q23 -62 65 -88q47 -30 134 -30q65 0 122 21q43 16 108 52v-342q-98 -45 -267 -45q-215 0 -364 104q-179 125 -237 366h-136z" />
<glyph unicode="&#x2122;" horiz-adv-x="1638" vert-adv-y="2457" d="M-11 1168v197h609v-197h-173v-581h-264v581h-172zM649 587v778h353l112 -375l106 375h356v-778h-259v475l-134 -475h-181l-140 478v-478h-213z" />
<glyph unicode="&#x25fc;" horiz-adv-x="1014" vert-adv-y="2029" d="M0 0v1015h1015v-1015h-1015z" />
<glyph unicode="&#xfb01;" horiz-adv-x="1274" vert-adv-y="2457" d="M37 758v259h122q1 131 11 180q48 236 380 236q55 0 122 -6v-262q-88 1 -117 -39q-16 -23 -18 -59q-1 -13 -1 -50h136v-259h-136v-758h-377v758h-122zM776 0v1017h393v-1017h-393zM776 1092v314h393v-314h-393z" />
<glyph unicode="&#xfb02;" horiz-adv-x="1273" vert-adv-y="2457" d="M38 758v259h120q-1 36 -1 49q0 116 26 182q42 107 155 154q74 31 203 31q62 0 131 -6v-262q-94 -3 -118 -33q-20 -25 -20 -92q0 -7 1 -23h137v-259h-137v-758h-377v758h-120zM775 0v1365h393v-1365h-393z" />
<glyph unicode="&#xfb03;" horiz-adv-x="1891" vert-adv-y="2457" d="M40 758v259h119q0 144 11 188q37 140 161 192q87 37 216 37q63 0 137 -12v-255h-21q-81 0 -108 -37q-20 -27 -20 -89q0 -6 1 -24h240q1 131 11 180q48 236 380 236q55 0 122 -6v-262q-88 1 -117 -39q-16 -23 -18 -59q-1 -13 -1 -50h136v-259h-136v-758h-377v758h-240 v-758h-377v758h-119zM1393 0v1017h393v-1017h-393zM1393 1092v314h393v-314h-393z" />
<glyph unicode="&#xfb04;" horiz-adv-x="1891" vert-adv-y="2457" d="M37 758v259h122q0 147 10 188q57 229 375 229q66 0 140 -12v-255h-21q-81 0 -108 -37q-20 -27 -20 -89q0 -6 1 -24h240q1 131 11 180q48 236 380 236q55 0 122 -6v-262q-88 1 -117 -39q-16 -23 -18 -59q-1 -13 -1 -50h136v-259h-136v-758h-377v758h-240v-758h-377v758 h-122zM1393 0v1365h393v-1365h-393z" />
</font>
</defs>
</svg>
